<svg width="402" height="563" viewBox="0 0 402 563" fill="none" xmlns="http://www.w3.org/2000/svg">
<g clip-path="url(#clip0_52_4848)">
<g opacity="0.5">
<mask id="mask0_52_4848" style="mask-type:luminance" maskUnits="userSpaceOnUse" x="-59" y="3" width="570" height="571">
<path d="M61.7581 3.75651L510.852 124.091L390.517 573.185L-58.5762 452.85L61.7581 3.75651Z" fill="white"/>
</mask>
<g mask="url(#mask0_52_4848)">
<path d="M399.544 28.9426C399.277 29.937 400.239 30.7104 401.125 30.2259C401.898 29.7797 402.146 28.4708 401.057 28.0417C400.32 27.844 399.699 28.3652 399.544 28.9426Z" fill="#620F0E"/>
<path d="M372.272 19.6057C371.936 20.8567 373.112 21.8593 374.225 21.298C375.306 20.7281 375.479 19.0554 374.247 18.5192C373.189 18.2355 372.444 18.9641 372.272 19.6057Z" fill="#620F0E"/>
<path d="M345.384 9.85817C344.951 11.2203 346.168 12.5781 347.598 11.861C348.906 11.2144 349.189 9.2616 347.686 8.5838C346.475 8.22511 345.623 9.09689 345.384 9.85817Z" fill="#620F0E"/>
<path d="M388.12 58.2343C387.662 60.0713 389.466 61.5517 391.084 60.6445C392.54 59.8312 393 57.3416 390.911 56.5412C389.372 56.1286 388.345 57.2633 388.088 58.2257L388.12 58.2343Z" fill="#620F0E"/>
<path d="M360.191 48.6531C359.606 50.8344 361.889 52.5806 363.762 51.3635C365.423 50.2959 365.566 47.5835 363.494 46.7189C361.706 46.2055 360.491 47.5304 360.199 48.621L360.191 48.6531Z" fill="#620F0E"/>
<path d="M332.583 38.6436C331.874 41.0323 334.097 43.003 336.314 41.9125C338.41 40.8925 338.771 37.6199 336.34 36.5559C334.345 35.9182 332.95 37.4011 332.583 38.6436Z" fill="#620F0E"/>
<path d="M305.594 28.2484C304.819 30.7568 307.071 32.873 309.393 31.7762C311.634 30.7264 312.088 27.2379 309.578 26.084C307.527 25.397 306.011 26.9504 305.626 28.257L305.594 28.2484Z" fill="#620F0E"/>
<path d="M279.16 17.4525C278.295 20.0399 280.562 22.2289 282.948 21.1493C285.23 20.076 285.797 16.5491 283.304 15.3311C281.198 14.5948 279.617 16.131 279.183 17.4932L279.16 17.4525Z" fill="#620F0E"/>
<path d="M253.872 6.48175C252.952 9.01991 255.041 11.2301 257.387 10.174C259.66 9.13277 260.323 5.63164 257.88 4.35801C255.91 3.62404 254.33 5.16025 253.872 6.48175Z" fill="#620F0E"/>
<path d="M377.043 87.8948C376.383 90.7435 379.256 92.854 381.643 91.2589C383.728 89.8923 383.769 86.5337 381.064 85.4652C378.818 84.8635 377.381 86.5068 377.043 87.8948Z" fill="#620F0E"/>
<path d="M348.449 78.1014C347.663 81.2943 350.883 83.7733 353.555 82.0138C355.681 80.6237 356.229 76.7823 353.045 75.4479C350.657 74.7391 348.899 76.2964 348.449 78.1014Z" fill="#620F0E"/>
<path d="M320.378 67.8975C319.484 71.2336 322.878 73.9652 325.736 72.1524C328.292 70.5682 328.489 66.4953 325.323 65.0968C322.654 64.2785 320.825 66.2294 320.378 67.8975Z" fill="#620F0E"/>
<path d="M292.805 57.2427C291.761 60.8824 295.217 63.7681 298.375 61.8637C301.094 60.1855 301.415 55.9053 298.082 54.359C295.15 53.3671 293.308 55.6239 292.837 57.2513L292.805 57.2427Z" fill="#620F0E"/>
<path d="M265.843 46.2366C264.777 49.6988 267.916 52.7402 271.003 51.2294C274.049 49.742 274.683 45.0642 271.248 43.3872C268.421 42.3891 266.388 44.4575 265.843 46.2366Z" fill="#620F0E"/>
<path d="M240.036 35.024C238.898 38.501 241.771 41.5057 244.881 40.0355C247.91 38.6123 248.65 33.9283 245.327 32.2129C242.646 31.185 240.613 33.2534 240.036 35.024Z" fill="#620F0E"/>
<path d="M215.711 23.7954C214.535 27.159 217.12 30.0864 220.076 28.6781C222.959 27.2846 223.801 22.7312 220.735 21.0846C218.159 20.0504 216.278 22.1938 215.711 23.7954Z" fill="#620F0E"/>
<path d="M192.861 12.5846C191.68 15.7064 193.938 18.4431 196.627 17.135C199.202 15.8652 200.112 11.5707 197.495 10.0445C195.303 9.11342 193.468 10.9595 192.861 12.5846Z" fill="#620F0E"/>
<path d="M171.324 1.34711C170.238 4.11611 171.904 6.62529 174.271 5.74676C176.792 4.80638 177.967 0.548582 175.519 -0.966781C173.465 -1.89553 171.862 -0.021349 171.324 1.34711Z" fill="#620F0E"/>
<path d="M395.599 127.453C394.924 130.745 398.307 133.13 401.013 131.242C403.296 129.653 403.249 125.721 400.183 124.59C397.552 123.885 395.924 125.855 395.599 127.453Z" fill="#620F0E"/>
<path d="M366.202 117.962C365.374 121.694 369.17 124.464 372.275 122.374C374.914 120.605 374.909 116.134 371.428 114.755C368.477 113.964 366.619 116.148 366.202 117.962Z" fill="#620F0E"/>
<path d="M337.176 107.983C336.213 112.092 340.357 115.231 343.787 112.952C346.703 111.052 346.786 106.123 342.978 104.553C339.723 103.612 337.613 105.969 337.176 107.983Z" fill="#620F0E"/>
<path d="M308.577 97.5695C307.497 101.853 311.926 105.343 315.51 103.003C318.702 100.97 318.894 95.7614 314.8 93.9767C311.369 92.9201 309.08 95.4352 308.544 97.5609L308.577 97.5695Z" fill="#620F0E"/>
<path d="M280.54 86.7218C279.328 91.2448 283.865 94.9704 287.667 92.5854C291.054 90.4673 291.324 84.9699 287.063 83.0373C283.53 81.8501 281.101 84.4998 280.508 86.7132L280.54 86.7218Z" fill="#620F0E"/>
<path d="M253.09 75.4822C251.771 80.1484 256.321 84.0836 260.268 81.6688C263.728 79.5359 264.154 73.8397 259.895 71.7702C256.284 70.493 253.75 73.1491 253.09 75.4822Z" fill="#620F0E"/>
<path d="M226.915 64.1023C225.575 68.5909 229.361 72.4247 233.235 70.5404C236.955 68.7179 237.735 62.6006 233.534 60.4435C230.1 59.1452 227.598 61.8098 226.915 64.1023Z" fill="#620F0E"/>
<path d="M202.223 52.7058C200.845 57.081 204.269 60.8523 207.957 59.0213C211.491 57.2521 212.414 51.242 208.511 49.1301C205.342 47.8685 202.898 50.4455 202.191 52.6972L202.223 52.7058Z" fill="#620F0E"/>
<path d="M179.045 41.3043C177.663 45.4378 180.696 49.0011 184.108 47.3024C187.366 45.6655 188.372 39.987 184.885 37.9869C181.862 36.6955 179.707 39.3499 179.037 41.3364L179.045 41.3043Z" fill="#620F0E"/>
<path d="M157.309 29.9111C155.972 33.7473 158.55 37.0855 161.63 35.4697C164.58 33.9566 165.651 28.674 162.614 26.7942C160.104 25.6403 157.979 27.9246 157.318 29.8791L157.309 29.9111Z" fill="#620F0E"/>
<path d="M137.03 18.5976C135.807 21.8799 137.667 24.8193 140.254 23.7592C143.069 22.6223 144.386 17.5775 141.678 15.7516C139.576 14.7415 137.689 16.7801 137.039 18.5656L137.03 18.5976Z" fill="#620F0E"/>
<path d="M118.28 7.351C117.227 10.1286 118.674 12.6824 120.776 11.7672C123.064 10.7987 124.288 6.48539 122.155 4.95115C120.462 4.08488 118.862 5.82215 118.28 7.351Z" fill="#620F0E"/>
<path d="M385.54 157.936C384.754 162.023 388.991 164.946 392.324 162.642C395.161 160.651 395.058 155.776 391.216 154.334C387.935 153.489 385.936 155.945 385.54 157.936Z" fill="#620F0E"/>
<path d="M355.648 148.242C354.709 152.769 359.581 156.275 363.289 153.727C366.28 151.675 366.832 146.15 362.102 144.298C358.413 143.31 356.112 145.994 355.648 148.242Z" fill="#620F0E"/>
<path d="M326.204 138.153C325.088 143.217 330.275 147.082 334.454 144.317C338.047 141.945 338.037 135.822 333.333 133.874C329.317 132.695 326.77 135.657 326.204 138.153Z" fill="#620F0E"/>
<path d="M297.269 127.58C296.043 132.925 301.427 137.083 305.865 134.25C309.684 131.801 309.769 125.325 304.779 123.163C300.596 121.836 297.869 124.956 297.269 127.58Z" fill="#620F0E"/>
<path d="M268.856 116.597C267.53 122.19 273.037 126.656 277.67 123.738C281.693 121.171 281.893 114.52 276.689 112.129C272.363 110.695 269.523 113.853 268.856 116.597Z" fill="#620F0E"/>
<path d="M241.135 105.215C239.71 110.918 245.198 115.586 249.903 112.653C253.941 110.159 254.227 103.187 249.113 100.717C244.781 99.1778 241.819 102.407 241.135 105.215Z" fill="#620F0E"/>
<path d="M214.665 93.6528C213.135 99.3627 218.317 104.017 222.941 101.131C226.874 98.6433 227.289 91.7062 222.448 89.2403C218.326 87.6887 215.436 90.9027 214.688 93.6935L214.665 93.6528Z" fill="#620F0E"/>
<path d="M189.765 82.1337C188.291 87.3773 192.517 91.879 196.815 89.6957C200.919 87.5978 201.781 80.4025 197.095 77.8747C193.278 76.3363 190.519 79.4477 189.765 82.1337Z" fill="#620F0E"/>
<path d="M166.252 70.5728C164.757 75.6389 168.566 80.0289 172.606 77.9137C176.482 75.8925 177.462 68.9005 173.201 66.4524C169.682 64.9593 167.021 67.9596 166.252 70.5728Z" fill="#620F0E"/>
<path d="M144.373 59.0714C142.949 63.7439 146.159 67.8016 149.777 65.8485C153.273 63.9659 154.316 57.5067 150.601 55.2047C147.562 53.8405 145.131 56.6272 144.382 59.0393L144.373 59.0714Z" fill="#620F0E"/>
<path d="M123.959 47.6196C122.574 51.89 125.267 55.5684 128.431 53.7689C131.27 52.1571 132.808 46.4152 129.382 44.1905C126.793 42.9467 124.648 45.432 123.959 47.6196Z" fill="#620F0E"/>
<path d="M104.97 36.2401C103.765 39.8368 105.653 43.0586 108.298 41.9109C111.106 40.6692 112.448 35.1495 109.678 33.1695C107.506 32.0374 105.622 34.3177 104.97 36.2401Z" fill="#620F0E"/>
<path d="M87.5425 24.934C86.4842 27.9854 87.8886 30.6996 90.0163 29.6882C92.298 28.6149 93.5208 23.9229 91.3814 22.2838C89.6732 21.3448 88.0943 23.2596 87.5425 24.934Z" fill="#620F0E"/>
<path d="M71.5867 13.7822C70.741 16.1686 71.7117 18.3197 73.3278 17.5493C75.0658 16.7086 76.095 12.9961 74.5221 11.6807C73.2779 10.9348 72.076 12.4693 71.5867 13.7822Z" fill="#620F0E"/>
<path d="M57.0468 2.73498C56.3879 4.55253 57.0362 6.23903 58.19 5.65426C59.4657 4.99904 60.3034 2.12919 59.2329 1.12034C58.3009 0.492428 57.4009 1.79842 57.0468 2.73498Z" fill="#620F0E"/>
<path d="M375.794 188.537C374.924 193.323 379.964 196.84 383.884 194.143C387.226 191.806 387.04 186.084 382.445 184.371C378.555 183.363 376.212 186.208 375.785 188.569L375.794 188.537Z" fill="#620F0E"/>
<path d="M345.612 178.766C344.561 184.226 350.221 188.252 354.638 185.241C358.477 182.591 358.335 176.192 353.1 174.171C348.77 173.011 346.107 176.148 345.612 178.766Z" fill="#620F0E"/>
<path d="M315.769 168.499C314.607 174.376 320.829 179 325.571 175.801C329.776 172.94 329.701 165.906 324.037 163.563C319.292 162.154 316.333 165.625 315.769 168.499Z" fill="#620F0E"/>
<path d="M286.513 157.842C285.216 164.096 291.769 169.152 296.795 165.789C301.268 162.827 301.226 155.286 295.252 152.688C290.276 151.114 287.137 154.743 286.481 157.834L286.513 157.842Z" fill="#620F0E"/>
<path d="M257.893 146.734C256.461 153.363 262.994 158.621 268.32 155.166C272.947 152.142 272.99 144.281 266.891 141.512C261.812 139.807 258.575 143.547 257.885 146.766L257.893 146.734Z" fill="#620F0E"/>
<path d="M229.964 135.229C228.457 142.01 234.962 147.501 240.37 143.999C245.069 140.961 245.196 132.915 239.107 129.977C233.742 128.058 230.676 132.187 229.996 135.237L229.964 135.229Z" fill="#620F0E"/>
<path d="M203.302 123.615C201.706 130.339 207.856 135.872 213.087 132.391C217.551 129.462 217.817 121.282 212.162 118.391C207.319 116.578 204.074 120.35 203.302 123.615Z" fill="#620F0E"/>
<path d="M178.14 111.921C176.506 118.531 182.198 123.976 187.225 120.613C191.535 117.745 191.945 109.672 186.596 106.795C182.058 104.995 178.935 108.696 178.14 111.921Z" fill="#620F0E"/>
<path d="M154.635 100.328C153.1 106.312 157.606 111.439 162.159 108.946C166.598 106.491 167.483 98.4419 162.425 95.5051C158.354 93.7611 155.419 97.2723 154.635 100.328Z" fill="#620F0E"/>
<path d="M132.612 88.7208C131.117 94.3024 135.015 99.1289 139.147 96.7978C143.197 94.5137 144.121 86.9569 139.641 84.1748C136.083 82.5683 133.377 85.8659 132.612 88.7208Z" fill="#620F0E"/>
<path d="M112.023 77.1524C110.616 82.2763 113.892 86.7298 117.529 84.5757C121.085 82.4685 122.088 75.5172 118.232 72.9712C115.155 71.4936 112.728 74.522 112.023 77.1524Z" fill="#620F0E"/>
<path d="M92.9551 65.6829C91.6126 70.3084 94.3332 74.2693 97.4674 72.3242C100.439 70.473 101.48 64.1507 98.359 61.9393C95.7636 60.5906 93.6553 63.3263 92.9551 65.6829Z" fill="#620F0E"/>
<path d="M75.4399 54.3193C74.338 58.0467 76.1267 61.3796 78.6203 60.1568C81.2767 58.8401 82.4686 53.1084 79.8762 51.1073C77.841 49.9774 76.0455 52.3156 75.4719 54.3279L75.4399 54.3193Z" fill="#620F0E"/>
<path d="M59.3729 43.0687C58.4515 46.1224 59.7746 48.8836 61.6925 47.8848C63.8052 46.8006 64.8677 42.0656 62.8417 40.3881C61.2705 39.4514 59.852 41.4092 59.3409 43.0601L59.3729 43.0687Z" fill="#620F0E"/>
<path d="M44.8181 31.9488C44.06 34.3931 44.9729 36.6318 46.4051 35.7778C47.8287 34.9559 48.9712 31.2051 47.4562 29.8021C46.2613 29.0006 45.194 30.6743 44.7946 31.9082L44.8181 31.9488Z" fill="#620F0E"/>
<path d="M31.7347 20.983C31.1915 22.6253 31.6731 24.164 32.5656 23.7843C33.6529 23.3192 34.4992 20.4173 33.5335 19.4022C32.8089 18.8986 32.0332 19.9972 31.7347 20.983Z" fill="#620F0E"/>
<path d="M20.2428 10.2367C19.895 11.2781 20.1723 12.04 20.6025 11.8459C21.114 11.6048 21.73 9.9476 21.2001 9.35868C20.8582 9.09515 20.4468 9.60378 20.2428 10.2367Z" fill="#620F0E"/>
<path d="M397.014 228.673C396.193 233.404 401.419 236.868 405.211 234.136C408.579 231.704 408.303 226.06 403.659 224.403C399.752 223.459 397.431 226.344 397.014 228.673Z" fill="#620F0E"/>
<path d="M366.374 219.328C365.42 224.814 371.281 228.86 375.732 225.721C379.629 222.983 379.335 216.51 373.923 214.509C369.487 213.355 366.822 216.629 366.35 219.288L366.374 219.328Z" fill="#620F0E"/>
<path d="M335.872 209.471C334.786 215.575 341.434 220.279 346.324 216.913C350.709 213.894 350.414 206.526 344.412 204.161C339.416 202.788 336.415 206.419 335.872 209.471Z" fill="#620F0E"/>
<path d="M305.942 199.147C304.699 205.965 311.733 211.151 317.169 207.416C321.888 204.176 321.669 196.141 315.196 193.478C309.529 191.788 306.525 196.071 305.95 199.115L305.942 199.147Z" fill="#620F0E"/>
<path d="M276.478 188.365C275.138 195.673 282.527 201.332 288.288 197.409C293.292 194.005 293.122 185.399 286.285 182.432C280.611 180.637 277.117 184.823 276.478 188.365Z" fill="#620F0E"/>
<path d="M247.642 177.166C246.202 184.722 253.761 190.77 259.732 186.835C264.84 183.425 264.688 174.239 257.797 171.086C251.99 169.151 248.388 173.481 247.674 177.175L247.642 177.166Z" fill="#620F0E"/>
<path d="M219.489 165.598C217.971 173.443 225.558 179.774 231.619 175.759C236.899 172.223 236.822 162.885 229.79 159.488C223.92 157.4 220.229 161.808 219.489 165.598Z" fill="#620F0E"/>
<path d="M192.747 153.896C191.165 161.723 198.333 168.079 204.216 164.086C209.35 160.579 209.411 151.244 202.702 147.796C197.115 145.68 193.528 150.082 192.747 153.896Z" fill="#620F0E"/>
<path d="M167.593 142.171C165.998 149.789 172.612 156.03 178.146 152.184C182.891 148.848 183.103 139.588 176.98 136.262C171.795 134.186 168.372 138.494 167.616 142.211L167.593 142.171Z" fill="#620F0E"/>
<path d="M144.001 130.519C142.491 137.438 147.804 143.4 152.88 140.497C157.76 137.679 158.411 128.192 152.667 124.865C147.98 122.853 144.777 126.98 143.992 130.551L144.001 130.519Z" fill="#620F0E"/>
<path d="M121.955 118.871C120.492 125.355 125.119 130.927 129.668 128.192C134.046 125.583 134.816 116.678 129.737 113.564C125.628 111.706 122.712 115.532 121.955 118.871Z" fill="#620F0E"/>
<path d="M101.407 107.28C100.026 113.202 103.911 118.334 107.885 115.823C111.727 113.415 112.542 105.244 108.215 102.4C104.683 100.697 102.118 104.239 101.398 107.312L101.407 107.28Z" fill="#620F0E"/>
<path d="M82.347 95.7779C81.057 101.105 84.2668 105.678 87.688 103.432C90.9785 101.288 91.8109 93.9474 88.2286 91.406C85.0902 89.7743 82.9618 93.2266 82.347 95.7779Z" fill="#620F0E"/>
<path d="M64.7762 84.365C63.6949 88.7855 65.885 92.6729 68.6485 91.213C71.6154 89.6357 72.7124 82.8471 69.6668 80.4839C67.2725 79.1547 65.3888 81.9505 64.7762 84.365Z" fill="#620F0E"/>
<path d="M48.6859 73.0736C47.7788 76.7156 49.4626 80.0548 51.5776 78.8337C53.9281 77.5038 54.9104 71.7846 52.5831 69.8202C50.749 68.7099 49.1953 71.0441 48.6859 73.0736Z" fill="#620F0E"/>
<path d="M34.1071 61.9135C33.3249 64.8327 34.5282 67.5274 36.1637 66.556C37.8892 65.5056 38.7741 60.7918 37.1158 59.2816C35.7371 58.3965 34.5368 60.3096 34.1305 61.9542L34.1071 61.9135Z" fill="#620F0E"/>
<path d="M21.0324 50.9154C20.4393 53.1287 21.1879 55.0828 22.3204 54.3204C23.453 53.5581 24.332 50.1492 23.112 48.9284C22.1651 48.2277 21.3333 49.7926 21.0324 50.9154Z" fill="#620F0E"/>
<path d="M9.48547 40.1188C9.10728 41.5303 9.43309 42.7521 10.0753 42.4085C10.8395 41.9944 11.42 39.5714 10.7321 38.8026C10.1913 38.3826 9.68316 39.381 9.48547 40.1188Z" fill="#620F0E"/>
<path d="M-0.622798 29.4697C-0.794704 30.1112 -0.68649 30.8623 -0.384585 30.6337C-0.0185246 30.4224 0.276023 29.1948 0.00911639 28.7795C-0.213127 28.5824 -0.485274 28.9564 -0.614204 29.4376L-0.622798 29.4697Z" fill="#620F0E"/>
<path d="M388.02 259.543C387.156 264.95 393.004 268.786 397.342 265.685C401.084 263.009 400.718 256.551 395.505 254.707C391.043 253.649 388.451 256.908 388.02 259.543Z" fill="#620F0E"/>
<path d="M357.228 250.124C356.213 256.35 362.872 260.885 367.845 257.335C372.174 254.267 371.798 246.946 365.73 244.701C360.685 243.383 357.73 247.096 357.228 250.124Z" fill="#620F0E"/>
<path d="M326.767 240.242C325.644 247.127 333.001 252.262 338.487 248.471C343.214 245.2 342.758 236.894 336.163 234.302C330.59 232.775 327.332 236.852 326.799 240.251L326.767 240.242Z" fill="#620F0E"/>
<path d="M296.644 229.867C295.457 237.251 303.478 243.113 309.297 239.103C314.399 235.588 313.957 226.461 306.837 223.522C300.785 221.728 297.231 226.139 296.644 229.867Z" fill="#620F0E"/>
<path d="M267.084 219.06C265.78 227.134 274.116 233.493 280.423 229.201C285.85 225.498 285.428 215.655 277.846 212.386C271.476 210.369 267.698 215.099 267.043 219.084L267.084 219.06Z" fill="#620F0E"/>
<path d="M238.152 207.834C236.76 216.366 245.362 223.141 251.881 218.699C257.48 214.87 257.058 204.511 249.271 200.981C242.743 198.785 238.818 203.681 238.143 207.867L238.152 207.834Z" fill="#620F0E"/>
<path d="M209.984 196.195C208.531 204.951 217.144 212.072 223.745 207.584C229.425 203.708 229.057 193.02 221.234 189.239C214.299 186.762 210.647 192.178 209.984 196.195Z" fill="#620F0E"/>
<path d="M183.274 184.501C181.79 193.249 189.951 200.387 196.301 195.934C201.772 192.071 201.549 181.353 194.105 177.57C187.861 175.21 184.015 180.196 183.274 184.501Z" fill="#620F0E"/>
<path d="M158.12 172.776C156.615 181.346 164.181 188.393 170.168 184.015C175.339 180.243 175.234 169.729 168.328 165.988C162.527 163.642 158.868 168.575 158.12 172.776Z" fill="#620F0E"/>
<path d="M134.578 161.069C133.135 169.277 139.884 176.037 145.344 171.827C150.061 168.209 150.133 158.188 143.942 154.604C138.672 152.333 135.282 157.028 134.578 161.069Z" fill="#620F0E"/>
<path d="M112.563 149.43C111.224 156.738 116.547 163.046 121.465 159.963C126.22 156.974 126.728 146.865 120.971 143.328C116.343 141.228 113.272 145.631 112.555 149.462L112.563 149.43Z" fill="#620F0E"/>
<path d="M92.1432 137.872C90.9202 144.49 95.3758 150.187 99.5955 147.399C103.693 144.68 104.258 135.514 99.374 132.315C95.4508 130.404 92.789 134.435 92.1432 137.872Z" fill="#620F0E"/>
<path d="M73.1163 126.378C71.9776 132.296 75.6616 137.409 79.2564 134.9C82.7612 132.469 83.3508 124.238 79.2982 121.399C76.008 119.692 73.7083 123.271 73.1163 126.378Z" fill="#620F0E"/>
<path d="M55.6094 114.984C54.5956 120.179 57.5253 124.643 60.4864 122.445C63.3663 120.294 63.9953 113.071 60.7424 110.583C58.1086 109.121 56.1624 112.278 55.6414 114.992L55.6094 114.984Z" fill="#620F0E"/>
<path d="M39.5596 103.669C38.7075 107.875 40.6989 111.607 43.0024 110.195C45.5413 108.675 46.3685 102.124 43.6672 99.8871C41.4739 98.5774 39.9986 101.517 39.5596 103.669Z" fill="#620F0E"/>
<path d="M25.0134 92.5167C24.312 95.9044 25.7587 98.9738 27.5099 97.8271C29.3918 96.5779 30.1192 91.1687 28.1832 89.4122C26.6292 88.4113 25.4157 90.6304 25.0134 92.5167Z" fill="#620F0E"/>
<path d="M11.9387 81.5184C11.3857 84.2239 12.3049 86.5674 13.5939 85.6063C14.9642 84.5982 15.5981 80.4361 14.2435 79.076C13.1769 78.3089 12.2614 80.0577 11.9708 81.527L11.9387 81.5184Z" fill="#620F0E"/>
<path d="M0.367454 70.6831C0.0253273 72.3449 0.397533 74.1637 1.25168 73.6705C2.15509 73.1218 2.75568 69.9822 1.86272 68.9521C1.17879 68.4251 0.578347 69.6394 0.367454 70.6831Z" fill="#620F0E"/>
<path d="M379.472 289.778C378.6 295.596 385.047 299.765 389.783 296.461C393.802 293.653 393.355 286.725 387.605 284.703C382.726 283.534 379.914 286.974 379.504 289.787L379.472 289.778Z" fill="#620F0E"/>
<path d="M348.777 280.384C347.813 286.933 355.07 291.8 360.383 288.135C364.94 284.989 364.371 277.101 357.862 274.704C352.368 273.266 349.258 277.177 348.777 280.384Z" fill="#620F0E"/>
<path d="M318.283 270.495C317.217 277.808 325.275 283.405 331.135 279.371C336.278 275.832 335.683 267.147 328.304 264.275C322.258 262.587 318.803 266.887 318.291 270.463L318.283 270.495Z" fill="#620F0E"/>
<path d="M288.224 260.136C287.107 268.157 295.782 274.401 302.13 270.085C307.558 266.382 306.868 256.64 299.091 253.456C292.526 251.525 288.798 256.199 288.265 260.113L288.224 260.136Z" fill="#620F0E"/>
<path d="M258.545 249.262C257.343 257.982 266.651 264.946 273.455 260.339C279.297 256.37 278.525 245.779 270.176 242.167C263.14 239.938 259.14 244.986 258.545 249.262Z" fill="#620F0E"/>
<path d="M229.621 238.005C228.377 247.265 237.999 254.725 244.992 249.929C251.014 245.801 250.213 234.55 241.603 230.627C234.345 228.201 230.212 233.488 229.621 238.005Z" fill="#620F0E"/>
<path d="M201.508 226.415C200.228 235.939 209.893 243.755 216.934 238.903C222.965 234.743 222.194 223.122 213.572 218.989C206.293 216.385 202.134 221.769 201.508 226.415Z" fill="#620F0E"/>
<path d="M174.872 214.705C173.583 224.262 182.811 232.166 189.611 227.318C195.473 223.148 194.8 211.415 186.509 207.2C179.554 204.545 175.515 209.995 174.912 214.682L174.872 214.705Z" fill="#620F0E"/>
<path d="M149.91 203.031C148.65 212.355 157.123 220.126 163.477 215.399C168.935 211.326 168.395 199.87 160.731 195.754C154.305 193.172 150.551 198.458 149.91 203.031Z" fill="#620F0E"/>
<path d="M126.551 191.409C125.329 200.33 132.906 207.724 138.621 203.204C143.544 199.332 143.172 188.402 136.35 184.477C130.584 182.003 127.14 187.029 126.551 191.409Z" fill="#620F0E"/>
<path d="M104.722 179.852C103.567 188.138 110.154 194.991 115.218 190.847C119.621 187.248 119.398 177.045 113.37 173.367C108.317 171.051 105.265 175.769 104.681 179.875L104.722 179.852Z" fill="#620F0E"/>
<path d="M84.365 168.313C83.3745 175.474 88.4092 181.705 92.8174 178.726C97.0951 175.85 97.2546 165.888 91.8765 162.349C87.5621 160.231 84.8871 164.568 84.365 168.313Z" fill="#620F0E"/>
<path d="M65.4982 156.861C64.5748 163.387 68.7503 168.976 72.4459 166.218C76.0109 163.563 76.2654 154.658 71.8387 151.547C68.2214 149.649 65.9406 153.542 65.4574 156.885L65.4982 156.861Z" fill="#620F0E"/>
<path d="M48.1198 145.501C47.2744 151.223 50.6079 156.104 53.6699 153.658C56.6013 151.315 56.9101 143.49 53.3387 140.78C50.442 139.144 48.564 142.56 48.1198 145.501Z" fill="#620F0E"/>
<path d="M32.1573 134.245C31.4672 138.874 33.7748 142.965 36.1534 141.401C38.7674 139.73 39.2979 132.617 36.3187 130.134C34.0378 128.767 32.4984 131.689 32.1252 134.237L32.1573 134.245Z" fill="#620F0E"/>
<path d="M17.6669 123.142C17.0954 126.943 18.8177 130.395 20.6119 129.088C22.5774 127.655 23.0958 121.743 20.914 119.749C19.1933 118.6 17.9838 121.061 17.6669 123.142Z" fill="#620F0E"/>
<path d="M4.67951 112.202C4.20952 115.239 5.35722 117.885 6.67197 116.827C8.10874 115.7 8.52503 111.067 6.98022 109.518C5.74698 108.603 4.88242 110.675 4.67091 112.234L4.67951 112.202Z" fill="#620F0E"/>
<path d="M402.489 327.955C401.728 332.977 407.572 336.572 411.818 333.687C415.477 331.195 414.998 325.153 409.751 323.437C405.345 322.429 402.845 325.472 402.489 327.955Z" fill="#620F0E"/>
<path d="M371.607 319.13C370.765 325.093 377.612 329.438 382.534 326.081C386.78 323.196 386.183 316.057 380.089 313.908C374.922 312.661 372.01 316.213 371.607 319.13Z" fill="#620F0E"/>
<path d="M340.976 309.753C340.02 316.785 348.658 321.885 353.937 317.454C357.753 314.248 357.52 306.519 350.475 303.943C344.66 302.419 341.386 306.424 340.976 309.753Z" fill="#620F0E"/>
<path d="M310.61 299.898C309.632 307.784 319.192 313.681 325.042 308.784C329.258 305.238 328.913 296.516 321.094 293.493C314.631 291.692 311.06 296.168 310.602 299.93L310.61 299.898Z" fill="#620F0E"/>
<path d="M280.552 289.539C279.502 298.334 289.983 305.027 296.34 299.648C301.366 295.391 299.972 285.838 292.012 282.57C284.91 280.461 281.049 285.374 280.552 289.539Z" fill="#620F0E"/>
<path d="M251.129 278.734C250.059 288.246 261.236 295.676 267.939 289.908C272.793 285.776 272.318 275.232 263.248 271.357C255.708 268.959 251.616 274.223 251.129 278.734Z" fill="#620F0E"/>
<path d="M222.205 267.477C221.141 277.609 232.854 285.733 239.867 279.705C244.959 275.327 244.408 264.04 234.87 259.731C226.988 257.069 222.705 262.66 222.205 267.477Z" fill="#620F0E"/>
<path d="M194.157 255.903C193.109 266.487 204.999 275.105 212.096 268.893C217.222 264.387 216.631 252.608 206.961 248.023C198.497 244.964 194.614 251.247 194.148 255.935L194.157 255.903Z" fill="#620F0E"/>
<path d="M167.801 244.304C166.761 254.855 178.054 263.52 184.796 257.35C189.713 252.857 189.171 241.022 179.961 236.388C171.949 233.313 168.257 239.647 167.792 244.336L167.801 244.304Z" fill="#620F0E"/>
<path d="M143.095 232.699C142.146 242.656 151.504 250.974 158.024 246.017C163.679 241.721 162.669 229.452 154.342 224.986C147.365 222.154 143.58 227.81 143.095 232.699Z" fill="#620F0E"/>
<path d="M120.048 221.194C119.158 230.548 127.436 238.405 133.258 233.742C138.296 229.694 137.435 218.152 130.071 213.944C123.872 211.286 120.497 216.57 120.048 221.194Z" fill="#620F0E"/>
<path d="M98.4667 209.738C97.6519 218.425 104.844 225.715 109.928 221.37C114.341 217.602 113.644 206.86 107.233 202.942C101.877 200.475 98.8933 205.452 98.4988 209.747L98.4667 209.738Z" fill="#620F0E"/>
<path d="M78.2946 198.281C77.5641 206.268 83.6551 212.92 88.0325 208.901C91.8124 205.445 91.2851 195.608 85.8108 192.044C81.2248 189.784 78.6673 194.324 78.2946 198.281Z" fill="#620F0E"/>
<path d="M59.6348 186.955C59.0126 193.768 63.5856 199.669 67.2749 196.807C70.8657 194.056 70.6695 184.652 65.9565 181.326C62.1639 179.313 59.9685 183.4 59.6348 186.955Z" fill="#620F0E"/>
<path d="M42.408 175.67C41.8404 181.638 45.5158 186.783 48.5309 184.256C51.4474 181.84 51.3845 173.606 47.5502 170.722C44.4782 168.971 42.6855 172.582 42.408 175.67Z" fill="#620F0E"/>
<path d="M26.5889 164.522C26.125 169.589 28.9436 173.954 31.3079 171.803C33.6143 169.739 33.6034 162.722 30.6157 160.272C28.2557 158.814 26.8188 161.867 26.5889 164.522Z" fill="#620F0E"/>
<path d="M12.2183 153.484C11.8433 157.578 13.7409 161.146 15.5523 159.775C17.4943 158.301 17.7372 152.006 15.3567 149.855C13.5483 148.649 12.4414 151.24 12.2183 153.484Z" fill="#620F0E"/>
<path d="M-0.681116 142.601C-1.01021 145.882 0.359753 148.725 1.65962 147.595C3.0815 146.394 3.32714 141.371 1.61565 139.675C0.326845 138.711 -0.514267 140.824 -0.681116 142.601Z" fill="#620F0E"/>
<path d="M394.949 356.224C394.2 361.455 400.954 365.122 405.127 361.736C408.467 359.021 407.723 353.458 402.411 351.725C397.845 350.674 395.305 353.741 394.949 356.224Z" fill="#620F0E"/>
<path d="M364.355 347.476C363.567 353.625 371.419 358.067 376.222 354.128C379.661 351.302 379.381 344.522 372.998 342.296C367.67 341.007 364.735 344.518 364.355 347.476Z" fill="#620F0E"/>
<path d="M334.005 338.209C333.177 345.276 342.095 350.485 347.438 346.072C351.318 342.883 350.934 335.078 343.672 332.411C337.665 330.835 334.383 334.872 333.996 338.241L334.005 338.209Z" fill="#620F0E"/>
<path d="M303.832 328.405C302.973 336.358 312.973 342.406 318.887 337.528C323.176 333.967 322.656 325.129 314.525 321.987C307.806 320.118 304.225 324.625 303.823 328.437L303.832 328.405Z" fill="#620F0E"/>
<path d="M273.997 318.107C273.163 326.995 284.172 333.899 290.594 328.537C295.733 324.241 294.076 314.514 285.707 311.103C278.325 308.884 274.407 313.885 274.029 318.116L273.997 318.107Z" fill="#620F0E"/>
<path d="M244.662 307.359C243.829 317.141 255.701 324.929 262.543 319.027C267.496 314.784 266.745 303.856 257.147 299.771C249.199 297.229 245.055 302.686 244.662 307.359Z" fill="#620F0E"/>
<path d="M215.922 296.187C215.124 306.734 227.716 315.3 234.877 309.104C240.109 304.593 239.188 292.76 229.002 288.174C220.592 285.301 216.305 291.166 215.913 296.219L215.922 296.187Z" fill="#620F0E"/>
<path d="M188.043 284.624C187.324 295.777 200.227 304.976 207.538 298.477C212.83 293.741 211.848 281.238 201.387 276.269C192.771 273.136 188.415 279.257 188.051 284.592L188.043 284.624Z" fill="#620F0E"/>
<path d="M161.966 273.134C161.275 284.57 173.406 293.699 180.51 287.076C186.091 281.902 183.956 269.468 174.594 264.759C166.421 261.641 162.306 267.759 161.998 273.143L161.966 273.134Z" fill="#620F0E"/>
<path d="M137.693 261.713C137.073 272.755 148.09 281.552 154.545 275.168C159.6 270.162 157.65 258.191 149.139 253.641C141.731 250.624 137.982 256.53 137.693 261.713Z" fill="#620F0E"/>
<path d="M115.046 250.385C114.536 260.116 123.404 268.337 129.205 263.496C134.246 259.311 132.852 247.317 125.073 242.86C118.571 240.052 115.304 245.572 115.046 250.385Z" fill="#620F0E"/>
<path d="M93.7763 239.047C93.3442 247.973 100.983 255.521 105.988 251.086C110.322 247.228 109.122 236.179 102.408 232.111C96.8126 229.512 94.0041 234.604 93.7763 239.047Z" fill="#620F0E"/>
<path d="M73.9636 227.79C73.618 235.88 80.0126 242.682 84.221 238.652C87.8726 235.161 86.8813 225.131 81.191 221.475C76.5175 219.157 74.1438 223.781 73.9636 227.79Z" fill="#620F0E"/>
<path d="M55.488 216.547C55.1781 223.478 60.0547 229.529 63.6392 226.673C67.1017 223.888 66.4907 214.235 61.5617 210.817C57.6494 208.737 55.6613 212.949 55.5115 216.588L55.488 216.547Z" fill="#620F0E"/>
<path d="M38.4367 205.377C38.1727 211.495 42.111 216.814 44.9978 214.252C47.7946 211.77 47.2763 203.311 43.3309 200.328C40.1712 198.519 38.5624 202.213 38.4367 205.377Z" fill="#620F0E"/>
<path d="M22.793 194.343C22.592 199.584 25.6414 204.114 27.9181 201.905C30.1454 199.751 29.7605 192.463 26.6296 189.905C24.1499 188.381 22.8797 191.582 22.7609 194.335L22.793 194.343Z" fill="#620F0E"/>
<path d="M8.62918 183.432C8.47874 187.586 10.528 191.229 12.2432 189.832C14.089 188.333 13.979 181.943 11.5429 179.743C9.5914 178.429 8.72159 181.291 8.62918 183.432Z" fill="#620F0E"/>
<path d="M-4.15891 172.647C-4.29553 175.979 -2.80586 178.888 -1.57874 177.773C-0.221016 176.555 -0.287591 171.415 -2.07813 169.629C-3.399 168.656 -4.11181 170.803 -4.19102 172.638L-4.15891 172.647Z" fill="#620F0E"/>
<path d="M387.933 383.432C387.234 388.608 394.052 392.291 398.208 388.969C401.531 386.319 400.618 380.745 395.402 379.038C390.804 377.978 388.281 380.98 387.933 383.432Z" fill="#620F0E"/>
<path d="M357.766 374.762C357.036 380.824 365.001 385.227 369.738 381.408C373.192 378.655 372.821 371.954 366.333 369.735C360.982 368.404 358.088 371.892 357.734 374.754L357.766 374.762Z" fill="#620F0E"/>
<path d="M327.672 365.565C326.966 372.561 336.077 377.822 341.434 373.481C345.698 370.017 344.336 362.397 337.378 359.879C331.251 358.238 328.009 362.251 327.672 365.565Z" fill="#620F0E"/>
<path d="M297.907 355.905C297.234 363.804 307.436 369.872 313.26 365.073C317.532 361.576 316.826 352.791 308.534 349.607C301.727 347.68 298.196 352.131 297.875 355.896L297.907 355.905Z" fill="#620F0E"/>
<path d="M268.481 345.751C267.865 354.594 279.034 361.541 285.375 356.226C290.392 352 288.517 342.318 280.075 338.922C272.597 336.677 268.777 341.567 268.481 345.751Z" fill="#620F0E"/>
<path d="M239.426 335.111C238.85 344.962 251.107 352.853 257.867 346.997C262.788 342.746 262.003 331.946 251.886 327.62C243.304 324.873 239.701 330.75 239.459 335.12L239.426 335.111Z" fill="#620F0E"/>
<path d="M210.911 323.999C210.432 334.769 223.575 343.586 230.73 337.286C235.915 332.693 234.962 320.851 224.064 315.971C215.374 312.989 211.15 318.872 210.911 323.999Z" fill="#620F0E"/>
<path d="M183.207 312.553C182.823 324.38 196.374 333.856 203.899 327.071C209.257 322.215 207.775 309.269 196.739 304.008C187.187 300.52 183.35 307.4 183.207 312.553Z" fill="#620F0E"/>
<path d="M157.41 301.172C157.137 313.097 170.13 322.733 177.294 315.885C182.894 310.51 180.221 297.519 170.284 292.519C161.624 289.167 157.537 295.567 157.442 301.18L157.41 301.172Z" fill="#620F0E"/>
<path d="M133.794 289.995C133.628 301.262 145.189 310.342 151.46 303.874C156.412 298.738 154.142 286.68 145.088 281.848C137.431 278.73 133.866 284.72 133.794 289.995Z" fill="#620F0E"/>
<path d="M111.547 278.842C111.486 288.693 120.721 297.082 126.321 292.222C131.161 288.018 129.304 275.83 121.3 271.313C114.655 268.398 111.58 273.969 111.547 278.842Z" fill="#620F0E"/>
<path d="M90.7 267.722C90.6935 276.728 98.6037 284.417 103.375 279.954C107.509 276.076 105.819 264.931 98.9935 260.764C93.302 258.139 90.7353 263.227 90.732 267.73L90.7 267.722Z" fill="#620F0E"/>
<path d="M71.159 256.605C71.1898 264.831 77.8645 271.742 81.8484 267.652C85.3074 264.11 83.835 253.951 78.0657 250.204C73.2959 247.861 71.1554 252.513 71.1676 256.573L71.159 256.605Z" fill="#620F0E"/>
<path d="M53.0099 245.555C53.0803 252.862 58.5836 259.013 61.8353 255.346C64.6436 252.179 63.418 243.152 58.6557 239.882C54.7113 237.793 52.9821 241.937 53.0099 245.555Z" fill="#620F0E"/>
<path d="M36.1898 234.549C36.2637 240.689 40.3625 246.05 43.0802 243.478C45.6995 241.017 44.7791 232.519 40.7374 229.51C37.5457 227.692 36.1872 231.351 36.2218 234.558L36.1898 234.549Z" fill="#620F0E"/>
<path d="M20.753 223.64C20.8408 228.958 24.0741 233.572 26.1818 231.352C28.2401 229.187 27.4703 221.795 24.2753 219.22C21.7635 217.687 20.7029 220.876 20.753 223.64Z" fill="#620F0E"/>
<path d="M6.78843 212.885C6.85394 217.131 9.07851 220.891 10.6654 219.459C12.3829 217.925 11.92 211.441 9.42836 209.192C7.56446 207.936 6.74624 210.605 6.78843 212.885Z" fill="#620F0E"/>
<path d="M-5.80111 202.257C-5.73038 205.714 -4.13811 208.754 -2.99005 207.549C-1.75204 206.265 -2.1222 200.974 -3.91273 199.188C-5.2571 198.174 -5.80954 200.364 -5.80111 202.257Z" fill="#620F0E"/>
<path d="M381.452 409.543C380.813 414.495 387.528 418.048 391.569 414.901C394.524 412.599 394.421 407.208 388.733 405.34C384.199 404.297 381.742 407.18 381.42 409.535L381.452 409.543Z" fill="#620F0E"/>
<path d="M351.789 401.044C351.16 406.858 359.014 411.163 363.603 407.51C367.31 404.584 366.254 398.388 360.151 396.271C354.896 394.966 352.086 398.27 351.789 401.044Z" fill="#620F0E"/>
<path d="M322.209 391.984C321.612 398.7 330.629 403.798 335.79 399.68C339.905 396.382 338.434 389.042 331.604 386.559C325.573 384.943 322.488 388.758 322.217 391.952L322.209 391.984Z" fill="#620F0E"/>
<path d="M292.949 382.493C292.447 390.266 302.371 396.088 308.129 391.408C312.221 388.07 311.356 379.621 303.216 376.511C296.505 374.61 293.163 378.872 292.917 382.485L292.949 382.493Z" fill="#620F0E"/>
<path d="M263.931 372.484C263.538 381.008 274.71 387.818 280.772 382.772C285.2 379.077 284.112 369.536 275.151 365.898C268.154 363.782 264.149 367.694 263.931 372.484Z" fill="#620F0E"/>
<path d="M235.445 362.032C235.181 371.484 247.289 379.164 253.698 373.592C258.39 369.555 257.341 359.097 247.335 354.869C238.882 352.157 235.549 357.796 235.445 362.032Z" fill="#620F0E"/>
<path d="M207.426 351.12C207.319 361.784 220.138 370.273 227.057 364.082C232.52 359.22 229.956 347.874 219.954 343.372C211.392 340.425 207.485 346.151 207.426 351.12Z" fill="#620F0E"/>
<path d="M180.121 339.849C180.178 351.314 193.7 360.644 200.818 354.094C206.391 348.951 203.315 336.437 193.061 331.593C183.605 328.131 180.093 334.822 180.13 339.817L180.121 339.849Z" fill="#620F0E"/>
<path d="M154.798 328.629C154.998 340.2 168.002 349.667 174.678 343.101C179.953 337.913 176.864 325.189 166.974 320.27C158.41 316.944 154.68 323.165 154.798 328.629Z" fill="#620F0E"/>
<path d="M131.532 317.684C131.831 328.629 143.426 337.58 149.226 331.33C153.386 326.84 151.535 314.758 142.169 309.807C134.177 306.531 131.403 312.905 131.523 317.716L131.532 317.684Z" fill="#620F0E"/>
<path d="M109.748 306.725C110.126 316.866 120.138 325.05 125.061 319.252C128.579 315.106 126.848 303.984 118.812 299.459C112.255 296.601 109.57 302.002 109.748 306.725Z" fill="#620F0E"/>
<path d="M89.2288 295.795C89.6291 304.566 97.5909 312.063 101.941 307.762C105.734 303.999 103.629 293.121 96.8418 289.068C90.943 286.318 89.0476 291.724 89.2288 295.795Z" fill="#620F0E"/>
<path d="M70.0466 284.88C70.4841 292.87 77.1932 299.653 80.7961 295.702C83.9235 292.242 82.0357 282.35 76.3455 278.694C71.6719 276.376 69.8396 280.905 70.0466 284.88Z" fill="#620F0E"/>
<path d="M52.1926 274.01C52.6205 281.139 58.1902 287.169 61.0696 283.609C63.5783 280.533 61.9545 271.709 57.2885 268.465C53.4403 266.402 52.0022 270.487 52.1926 274.01Z" fill="#620F0E"/>
<path d="M35.6354 263.178C36.0261 269.162 40.1913 274.404 42.6416 271.931C45.0105 269.506 43.7006 261.179 39.6824 258.211C36.5548 256.411 35.4466 260.033 35.644 263.146L35.6354 263.178Z" fill="#620F0E"/>
<path d="M20.4857 252.482C20.8496 257.668 24.1493 262.162 26.0301 260.019C27.8703 257.899 26.775 250.695 23.58 248.12C21.1324 246.604 20.29 249.748 20.4857 252.482Z" fill="#620F0E"/>
<path d="M6.71956 241.883C7.0331 246.23 9.54008 249.962 10.8921 248.124C12.227 246.35 11.3293 240.333 9.00432 238.232C7.17249 236.984 6.56394 239.641 6.71956 241.883Z" fill="#620F0E"/>
<path d="M-5.648 231.454C-5.41458 234.817 -3.73241 237.777 -2.73844 236.634C-1.64593 235.38 -2.29221 230.221 -4.09134 228.467C-5.40362 227.462 -5.81053 229.622 -5.6566 231.486L-5.648 231.454Z" fill="#620F0E"/>
<path d="M375.482 434.519C374.912 439.214 381.276 442.535 385.201 439.564C388.302 437.232 387.45 432.328 382.386 430.696C378.044 429.705 375.729 432.316 375.482 434.519Z" fill="#620F0E"/>
<path d="M346.396 426.176C345.894 431.645 353.494 435.745 357.877 432.346C361.386 429.642 360.165 423.677 354.407 421.687C349.313 420.425 346.658 423.53 346.405 426.144L346.396 426.176Z" fill="#620F0E"/>
<path d="M317.504 417.369C317.06 423.645 325.735 428.479 330.568 424.686C334.454 421.601 332.926 414.728 326.377 412.354C320.603 410.807 317.691 414.359 317.495 417.401L317.504 417.369Z" fill="#620F0E"/>
<path d="M288.854 408.042C288.532 415.657 299.008 421.214 304.032 416.063C307.262 412.734 306.082 405.335 298.534 402.453C292.112 400.629 288.984 404.604 288.854 408.042Z" fill="#620F0E"/>
<path d="M260.533 398.253C260.373 406.806 271.947 413.139 277.255 407.444C280.685 403.756 279.229 395.458 270.971 392.145C263.887 389.972 260.598 394.42 260.501 398.245L260.533 398.253Z" fill="#620F0E"/>
<path d="M232.672 388.037C232.69 397.462 245.209 404.633 250.736 398.378C254.315 394.386 252.553 385.181 243.658 381.422C236.039 378.934 232.638 383.799 232.64 388.028L232.672 388.037Z" fill="#620F0E"/>
<path d="M205.364 377.42C205.619 387.63 218.866 395.546 224.569 388.892C228.234 384.579 226.212 374.548 216.753 370.329C208.728 367.56 205.265 372.786 205.364 377.42Z" fill="#620F0E"/>
<path d="M178.876 366.438C179.347 377.256 193.01 385.8 198.639 378.781C202.3 374.227 199.989 363.603 190.311 359.05C181.608 355.858 178.687 361.883 178.876 366.438Z" fill="#620F0E"/>
<path d="M154.064 355.491C154.661 365.965 166.72 374.594 172.499 368.682C176.671 364.402 174.458 352.773 164.752 347.937C156.468 344.721 153.796 350.846 154.064 355.491Z" fill="#620F0E"/>
<path d="M131.069 344.688C131.81 354.754 142.755 363.05 147.789 357.351C151.821 352.827 148.704 341.746 140.48 337.411C133.392 334.48 130.699 339.913 131.037 344.679L131.069 344.688Z" fill="#620F0E"/>
<path d="M109.549 333.901C110.357 343.332 119.974 351.066 124.293 345.726C127.7 341.481 124.837 331.122 117.639 327.061C111.426 324.331 109.174 329.4 109.558 333.869L109.549 333.901Z" fill="#620F0E"/>
<path d="M89.3246 323.154C90.1361 331.417 97.8866 338.547 101.708 334.552C105.094 331.024 102.633 320.703 96.1092 316.824C90.762 314.325 88.9188 319.023 89.316 323.186L89.3246 323.154Z" fill="#620F0E"/>
<path d="M70.5019 312.437C71.3015 319.974 77.8633 326.408 81.0188 322.715C83.7802 319.467 81.5452 310.101 76.0623 306.569C71.6047 304.343 70.1385 308.66 70.5105 312.404L70.5019 312.437Z" fill="#620F0E"/>
<path d="M52.9983 301.798C53.7625 308.57 59.232 314.333 61.7133 310.975C63.9138 308.024 61.9365 299.621 57.4137 296.483C53.7173 294.496 52.6045 298.392 52.9983 301.798Z" fill="#620F0E"/>
<path d="M36.7595 291.19C37.4287 296.905 41.5578 301.896 43.6678 299.539C45.6878 297.261 44.033 289.323 40.2222 286.479C37.2464 284.754 36.4316 288.18 36.7681 291.158L36.7595 291.19Z" fill="#620F0E"/>
<path d="M21.8957 280.709C22.5059 285.617 25.793 289.902 27.3656 287.882C28.8976 285.886 27.5067 279.015 24.4783 276.588C22.1505 275.139 21.5522 278.142 21.8957 280.709Z" fill="#620F0E"/>
<path d="M8.38385 270.317C8.90536 274.273 11.1901 277.807 12.4367 276.491C13.7819 275.064 12.6768 268.923 10.2556 266.796C8.48796 265.566 8.11481 268.113 8.38385 270.317Z" fill="#620F0E"/>
<path d="M-3.7373 260.122C-3.3068 263.263 -1.64578 266.046 -0.814502 264.997C0.0660428 263.892 -0.800841 258.915 -2.49744 257.292C-3.72209 256.345 -3.9577 258.379 -3.7373 260.122Z" fill="#620F0E"/>
<path d="M398.388 465.927C397.87 469.399 402.903 471.916 405.969 469.712C408.187 468.106 408.01 464.277 403.915 463.007C400.503 462.265 398.625 464.272 398.388 465.927Z" fill="#620F0E"/>
<path d="M369.975 458.28C369.491 462.654 375.496 465.776 379.192 463.019C382.103 460.877 381.262 456.319 376.446 454.788C372.338 453.825 370.179 456.237 369.943 458.271L369.975 458.28Z" fill="#620F0E"/>
<path d="M341.723 450.16C341.326 455.108 348.391 458.892 352.398 455.874C355.637 453.407 354.55 448.096 349.072 446.216C344.339 445.017 341.908 447.803 341.723 450.16Z" fill="#620F0E"/>
<path d="M313.528 441.573C313.215 447.746 322.042 452.14 326.285 447.982C328.997 445.305 328.05 439.344 321.716 437.063C316.295 435.61 313.679 438.829 313.52 441.605L313.528 441.573Z" fill="#620F0E"/>
<path d="M285.671 432.493C285.522 439.467 295.36 444.579 299.877 439.91C302.78 436.906 301.532 430.142 294.512 427.47C288.507 425.758 285.748 429.385 285.671 432.493Z" fill="#620F0E"/>
<path d="M258.103 422.975C258.15 430.758 268.95 436.643 273.71 431.455C276.771 428.115 275.222 420.549 267.58 417.504C261.385 415.603 258.091 418.915 258.103 422.975Z" fill="#620F0E"/>
<path d="M231.091 413.055C231.359 421.55 242.89 428.044 247.752 422.47C250.882 418.874 249.039 410.61 240.889 407.154C233.935 404.878 230.977 409.243 231.091 413.055Z" fill="#620F0E"/>
<path d="M204.536 402.708C205.083 411.829 217.191 418.992 222.076 413.081C225.234 409.251 223.097 400.29 214.525 396.48C207.229 393.941 204.299 398.588 204.536 402.708Z" fill="#620F0E"/>
<path d="M178.848 392.077C179.645 401.677 192.003 409.32 196.723 403.124C199.787 399.132 197.391 389.723 188.687 385.637C181.738 383.087 178.409 387.043 178.816 392.069L178.848 392.077Z" fill="#620F0E"/>
<path d="M154.643 381.431C155.566 390.686 166.442 398.345 171.242 393.133C175.074 388.968 172.003 379 163.686 374.881C156.307 372.01 154.22 377.364 154.61 381.422L154.643 381.431Z" fill="#620F0E"/>
<path d="M131.975 370.819C133.023 379.868 143.079 387.375 147.338 382.259C150.421 378.581 148.02 368.552 140.035 364.349C133.627 361.704 131.476 366.525 131.975 370.819Z" fill="#620F0E"/>
<path d="M110.805 360.265C111.941 368.856 120.9 375.967 124.511 371.089C127.363 367.246 124.356 357.811 117.716 354.106C112.062 351.594 110.245 356.196 110.773 360.257L110.805 360.265Z" fill="#620F0E"/>
<path d="M91.004 349.734C92.1731 357.817 100.029 364.426 103.046 359.837C105.427 356.212 102.571 347.367 96.8211 343.935C91.9058 341.621 90.4716 345.947 91.004 349.734Z" fill="#620F0E"/>
<path d="M72.4996 339.24C73.5909 346.202 79.8537 352.212 82.5211 348.801C84.8351 345.811 82.3469 337.134 77.238 333.874C73.084 331.798 71.9861 335.767 72.5317 339.248L72.4996 339.24Z" fill="#620F0E"/>
<path d="M55.3466 328.834C56.3915 335.199 61.6583 340.564 63.7414 337.409C65.5438 334.66 63.3069 326.841 59.1026 323.926C55.6456 322.072 54.852 325.675 55.3873 328.81L55.3466 328.834Z" fill="#620F0E"/>
<path d="M39.4821 318.496C40.3999 323.796 44.3818 328.438 46.1257 326.293C47.829 324.171 45.9146 316.816 42.3174 314.202C39.549 312.6 39.0126 315.757 39.4735 318.528L39.4821 318.496Z" fill="#620F0E"/>
<path d="M24.9367 308.239C25.7933 312.869 28.9716 316.918 30.2446 314.99C31.5004 313.126 29.8609 306.67 26.9992 304.391C24.8231 303.017 24.4861 305.815 24.9046 308.23L24.9367 308.239Z" fill="#620F0E"/>
<path d="M11.7352 298.1C12.4303 301.793 14.6876 305.045 15.6667 303.829C16.7443 302.502 15.4141 296.816 13.1596 294.837C11.5351 293.714 11.3504 296.071 11.7352 298.1Z" fill="#620F0E"/>
<path d="M-0.132141 288.112C0.446168 291.087 2.08598 293.692 2.73108 292.696C3.43405 291.612 2.39126 287.035 0.750213 285.461C-0.331231 284.621 -0.399521 286.287 -0.281039 287.385C-0.268454 287.595 -0.208915 287.886 -0.172848 288.136L-0.132141 288.112Z" fill="#620F0E"/>
<path d="M392.607 488.273C392.143 491.415 396.673 493.626 399.51 491.635C401.711 490.094 401.09 486.764 397.628 485.699C394.538 485.043 392.833 486.786 392.647 488.249L392.607 488.273Z" fill="#620F0E"/>
<path d="M365.083 480.898C364.67 484.879 370.674 487.622 373.749 484.871C375.736 483.1 375.253 479.257 370.878 477.878C367.155 477.018 365.25 479.121 365.051 480.89L365.083 480.898Z" fill="#620F0E"/>
<path d="M337.593 473.017C337.264 477.708 344.305 481.073 347.742 477.868C349.952 475.779 349.28 471.232 344.242 469.504C339.894 468.408 337.75 470.893 337.593 473.017Z" fill="#620F0E"/>
<path d="M310.304 464.639C310.14 470.13 318.185 474.108 321.929 470.401C324.353 468.025 323.371 462.708 317.63 460.654C312.722 459.339 310.378 462.184 310.304 464.639Z" fill="#620F0E"/>
<path d="M283.2 455.83C283.225 462.026 292.257 466.681 296.282 462.567C299.135 459.619 297.18 453.697 291.129 451.388C285.637 449.813 283.19 453.043 283.2 455.83Z" fill="#620F0E"/>
<path d="M256.578 446.633C256.833 453.508 266.637 458.748 270.765 454.25C273.727 451.021 271.405 444.417 264.916 441.819C258.978 439.987 256.477 443.546 256.578 446.633Z" fill="#620F0E"/>
<path d="M230.373 437.033C230.884 444.493 241.323 450.316 245.472 445.48C248.471 441.986 245.798 434.771 238.911 431.86C232.654 429.805 230.14 433.67 230.373 437.033Z" fill="#620F0E"/>
<path d="M204.755 427.039C205.507 435.011 216.397 441.333 220.455 436.197C223.105 432.85 220.941 425.016 213.289 421.625C206.809 419.373 204.381 423.432 204.755 427.039Z" fill="#620F0E"/>
<path d="M179.803 416.743C180.807 425.058 191.858 431.801 195.758 426.485C198.297 423.04 195.907 414.767 188.137 411.172C181.252 408.64 179.362 413.256 179.794 416.775L179.803 416.743Z" fill="#620F0E"/>
<path d="M156.245 406.375C157.456 414.813 168.048 421.605 171.522 416.21C173.805 412.696 171.263 404.347 163.857 400.678C157.327 398.103 155.693 402.789 156.213 406.366L156.245 406.375Z" fill="#620F0E"/>
<path d="M134.088 396.038C135.396 403.986 144.476 410.648 147.975 406.188C150.486 402.976 147.985 394.088 140.838 390.351C135.15 387.968 133.46 392.225 134.088 396.038Z" fill="#620F0E"/>
<path d="M113.365 385.74C114.774 393.441 123.005 399.806 125.921 395.465C128.028 392.351 125.569 383.819 119.169 380.247C114.035 377.977 112.693 382.087 113.365 385.74Z" fill="#620F0E"/>
<path d="M94.0666 375.514C95.5083 382.708 102.691 388.621 105.056 384.544C106.914 381.329 104.042 373.443 98.8496 370.367C94.4218 368.286 93.3903 372.136 94.0666 375.514Z" fill="#620F0E"/>
<path d="M76.0088 365.278C77.3533 371.551 83.1591 376.958 85.2806 373.916C87.162 371.257 84.5144 363.431 79.8438 360.46C76.0896 358.561 75.3365 362.141 76.0088 365.278Z" fill="#620F0E"/>
<path d="M59.23 355.144C60.5344 360.926 65.4146 365.809 67.0417 362.944C68.4608 360.471 66.067 353.366 62.2046 350.715C59.0833 349.019 58.5852 352.289 59.1979 355.135L59.23 355.144Z" fill="#620F0E"/>
<path d="M43.7394 345.079C44.8738 349.956 48.6764 354.241 50.0715 352.242C51.3422 350.451 49.5148 343.67 45.9818 341.073C43.3096 339.497 43.2074 342.702 43.7394 345.079Z" fill="#620F0E"/>
<path d="M29.5682 335.093C30.592 339.356 33.6318 343.024 34.6201 341.26C35.5998 339.529 33.7414 333.633 31.1341 331.559C29.1653 330.31 29.0253 332.885 29.5682 335.093Z" fill="#620F0E"/>
<path d="M16.6998 325.25C17.545 328.64 19.6786 331.584 20.4629 330.453C21.3051 329.235 19.7732 324.045 17.7409 322.263C16.3473 321.305 16.3471 323.23 16.5532 324.386C16.5893 324.636 16.6723 324.968 16.7084 325.218L16.6998 325.25Z" fill="#620F0E"/>
<path d="M5.16615 315.558C5.80693 318.171 7.3551 320.477 7.82891 319.607C8.35199 318.681 7.12478 314.536 5.70598 313.159C4.68009 312.368 4.90677 314.217 4.94053 314.604C4.99149 314.927 5.07454 315.259 5.13409 315.55L5.16615 315.558Z" fill="#620F0E"/>
<path d="M387.201 509.345C386.8 512.125 391.174 514.019 393.519 512.069C395.194 510.696 394.553 508.083 391.563 507.179C388.834 506.585 387.367 508.083 387.169 509.336L387.201 509.345Z" fill="#620F0E"/>
<path d="M360.649 502.196C360.317 505.614 365.586 508.023 368.284 505.652C369.993 504.15 369.532 500.863 365.726 499.672C362.46 498.9 360.811 500.693 360.64 502.228L360.649 502.196Z" fill="#620F0E"/>
<path d="M334.048 494.586C333.851 498.659 340.109 501.608 343.12 498.839C345.043 497.051 344.385 493.093 339.875 491.575C336.008 490.607 334.127 492.751 334.048 494.586Z" fill="#620F0E"/>
<path d="M307.705 486.531C307.641 491.258 314.849 494.771 318.1 491.62C320.188 489.6 319.226 484.976 314.109 483.158C309.747 481.989 307.748 484.445 307.696 486.563L307.705 486.531Z" fill="#620F0E"/>
<path d="M281.65 478.038C281.811 483.341 289.766 487.398 293.184 483.879C295.373 481.612 294.165 476.371 288.473 474.262C283.655 472.867 281.602 475.652 281.682 478.046L281.65 478.038Z" fill="#620F0E"/>
<path d="M255.868 469.169C256.268 475.121 264.995 479.763 268.484 475.85C270.742 473.327 269.221 467.452 263.036 465.004C257.794 463.394 255.696 466.476 255.868 469.169Z" fill="#620F0E"/>
<path d="M230.545 459.874C231.217 466.346 240.499 471.481 243.961 467.285C246.239 464.561 244.381 458.149 237.821 455.429C232.293 453.604 230.231 456.936 230.512 459.865L230.545 459.874Z" fill="#620F0E"/>
<path d="M205.887 450.275C206.811 457.09 216.369 462.608 219.714 458.209C221.888 455.354 219.738 448.623 213.069 445.667C207.439 443.712 205.48 447.175 205.919 450.284L205.887 450.275Z" fill="#620F0E"/>
<path d="M181.71 440.29C182.887 447.447 192.665 453.299 195.802 448.776C197.866 445.822 195.48 438.685 188.662 435.517C182.658 433.29 181.213 437.269 181.71 440.29Z" fill="#620F0E"/>
<path d="M158.88 430.287C160.281 437.504 169.631 443.413 172.398 438.86C174.205 435.837 171.7 428.634 165.196 425.447C159.787 423.31 158.242 427.022 158.903 430.328L158.88 430.287Z" fill="#620F0E"/>
<path d="M137.395 420.267C138.882 427.164 146.929 432.93 149.676 429.093C151.688 426.332 149.135 418.668 142.866 415.373C137.891 413.283 136.661 416.976 137.363 420.259L137.395 420.267Z" fill="#620F0E"/>
<path d="M117.27 410.302C118.849 416.983 126.167 422.52 128.437 418.796C130.094 416.077 127.544 408.655 121.95 405.54C117.496 403.556 116.533 407.148 117.27 410.302Z" fill="#620F0E"/>
<path d="M98.4502 400.343C100.051 406.686 106.529 411.894 108.354 408.291C109.662 405.72 107.178 398.693 102.289 395.768C98.3808 393.93 97.7115 397.326 98.4908 400.32L98.4502 400.343Z" fill="#620F0E"/>
<path d="M80.8863 390.445C82.3878 396.005 87.6724 400.79 89.3207 398.103C90.7782 395.743 88.0996 388.803 83.8907 386.162C80.5598 384.479 80.1195 387.661 80.8863 390.445Z" fill="#620F0E"/>
<path d="M64.5864 380.576C66.0157 385.635 70.4944 389.964 71.7124 387.471C72.7804 385.282 70.3406 378.989 66.8757 376.651C64.1136 375.155 63.8556 378.043 64.5864 380.576Z" fill="#620F0E"/>
<path d="M49.5569 370.843C50.8139 375.134 54.2706 378.914 55.3317 377.135C56.3435 375.412 54.1322 369.422 51.1955 367.294C49.0578 366.034 48.9694 368.417 49.4527 370.334C49.4825 370.48 49.5271 370.698 49.589 370.852L49.5569 370.843Z" fill="#620F0E"/>
<path d="M35.7834 361.169C36.9213 364.878 39.662 368.122 40.3891 366.564C41.0325 365.189 39.3316 359.989 36.8354 358.013C35.2258 356.963 35.2491 358.929 35.5492 360.247C35.6173 360.506 35.6918 360.87 35.792 361.137L35.7834 361.169Z" fill="#620F0E"/>
<path d="M23.3126 351.639C24.2226 354.53 26.1534 357.076 26.6851 356.118C27.266 355.105 25.6585 350.583 23.9361 349.056C22.598 348.147 23.0126 350.321 23.0486 350.571C23.1231 350.935 23.2061 351.267 23.3212 351.607L23.3126 351.639Z" fill="#620F0E"/>
<path d="M12.0564 342.194C12.8066 344.527 14.2225 346.557 14.5422 345.749C14.9112 344.885 13.6106 341.27 12.3585 340.041C11.6746 339.514 11.7014 340.311 11.765 340.844C11.7862 341.022 11.8669 341.49 12.065 342.162L12.0564 342.194Z" fill="#620F0E"/>
<path d="M2.12663 332.932C2.56988 334.358 3.46221 335.903 3.67878 335.48C3.91254 334.992 3.01513 332.311 2.18402 331.435C1.9297 331.229 1.79913 331.332 1.83289 331.719C1.86036 332.002 1.94968 332.438 2.09457 332.924L2.12663 332.932Z" fill="#620F0E"/>
<path d="M382.262 529.062C381.934 531.312 385.573 532.871 387.477 531.284C388.832 530.203 388.327 528.109 385.843 527.374C383.732 526.912 382.402 527.896 382.262 529.062Z" fill="#620F0E"/>
<path d="M356.599 522.186C356.341 525.074 360.914 527.124 363.204 525.125C364.643 523.86 364.214 521.098 360.953 520.052C358.136 519.4 356.71 520.875 356.608 522.154L356.599 522.186Z" fill="#620F0E"/>
<path d="M331.057 514.861C330.909 518.363 336.385 520.896 338.937 518.554C340.753 516.909 339.673 513.629 336.044 512.416C332.892 511.605 331.119 513.09 331.048 514.893L331.057 514.861Z" fill="#620F0E"/>
<path d="M305.763 507.121C305.816 511.158 312.057 514.171 314.801 511.502C316.57 509.776 315.652 505.886 311.2 504.28C307.415 503.266 305.729 505.324 305.763 507.121Z" fill="#620F0E"/>
<path d="M280.71 498.998C280.972 503.538 287.881 507.005 290.711 504.016C292.532 502.097 291.35 497.655 286.442 495.824C282.298 494.611 280.607 496.942 280.71 498.998Z" fill="#620F0E"/>
<path d="M255.914 490.428C256.44 495.52 264.034 499.515 266.885 496.187C268.725 494.067 267.238 489.096 261.925 486.985C257.637 485.664 255.628 487.773 255.881 490.42L255.914 490.428Z" fill="#620F0E"/>
<path d="M231.582 481.537C232.384 487.012 240.454 491.41 243.252 487.896C245.071 485.599 243.285 480.203 237.662 477.837C232.895 476.251 231.245 479.075 231.582 481.537Z" fill="#620F0E"/>
<path d="M207.796 472.275C208.859 478.061 217.181 482.801 219.886 479.124C221.634 476.705 219.564 470.958 213.75 468.404C208.881 466.686 207.333 469.641 207.837 472.252L207.796 472.275Z" fill="#620F0E"/>
<path d="M184.636 462.735C185.944 468.758 194.334 473.757 196.767 469.939C198.364 467.444 196.08 461.469 190.236 458.769C185.393 456.955 184.029 459.993 184.603 462.726L184.636 462.735Z" fill="#620F0E"/>
<path d="M162.572 453.075C164.056 459.215 172.132 464.232 174.203 460.352C175.567 457.829 173.148 451.715 167.587 448.987C162.986 447.17 161.878 450.276 162.54 453.067L162.572 453.075Z" fill="#620F0E"/>
<path d="M141.814 443.422C143.407 449.281 150.405 454.216 152.514 450.965C154.201 448.391 151.216 441.953 146.177 439.33C141.913 437.535 141.079 440.646 141.814 443.422Z" fill="#620F0E"/>
<path d="M122.329 433.766C124.021 439.514 130.441 444.294 132.099 441.059C133.306 438.735 130.778 432.385 125.958 429.718C122.12 428.002 121.513 431.037 122.297 433.757L122.329 433.766Z" fill="#620F0E"/>
<path d="M104.099 424.171C105.712 429.313 111.106 433.818 112.695 431.356C113.985 429.364 111.626 423.024 107.056 420.321C103.667 418.726 103.304 421.62 104.131 424.179L104.099 424.171Z" fill="#620F0E"/>
<path d="M87.1016 414.596C88.7046 419.392 93.3952 423.571 94.5703 421.239C95.6359 419.187 92.9412 413.204 89.3136 410.96C86.4381 409.502 86.2958 412.214 87.093 414.628L87.1016 414.596Z" fill="#620F0E"/>
<path d="M71.3835 405.124C72.9057 409.451 76.8224 413.182 77.6721 411.038C78.4124 409.173 76.0058 403.784 73.0026 401.776C70.7279 400.513 70.6974 402.808 71.2472 404.606C71.309 404.76 71.3623 404.946 71.4241 405.1L71.3835 405.124Z" fill="#620F0E"/>
<path d="M56.8157 395.72C58.1312 399.408 61.1864 402.633 61.9048 401.106C62.6061 399.644 60.396 394.548 57.8653 392.701C56.0868 391.64 56.1914 393.559 56.5322 394.853C56.6003 395.112 56.7154 395.453 56.8157 395.72Z" fill="#620F0E"/>
<path d="M43.4716 386.368C44.6124 389.424 46.9109 392.138 47.4919 391.124C48.1627 390.032 46.1875 385.342 44.0887 383.68C42.5989 382.696 43.022 384.838 43.1199 385.243C43.2264 385.615 43.333 385.987 43.4481 386.328L43.4716 386.368Z" fill="#620F0E"/>
<path d="M31.398 377.152C32.3321 379.568 34.075 381.788 34.3947 380.98C34.7723 380.084 33.1767 376.287 31.7001 374.998C30.8878 374.436 30.9147 375.234 31.0103 375.776C31.0847 376.139 31.221 376.657 31.398 377.152Z" fill="#620F0E"/>
<path d="M20.531 368.051C21.2497 369.86 22.3901 371.506 22.6474 371.06C22.9625 370.525 21.7019 367.402 20.5758 366.344C20.4647 366.246 20.0672 365.933 20.1433 366.675C20.1645 366.853 20.2217 367.281 20.531 368.051Z" fill="#620F0E"/>
<path d="M10.9176 359.148C11.4124 360.38 12.0871 361.455 12.2372 361.152C12.3638 360.807 11.577 358.74 10.857 357.962C10.7693 357.905 10.6112 357.725 10.645 358.112C10.6725 358.394 10.8345 358.816 10.9582 359.124L10.9176 359.148Z" fill="#620F0E"/>
<path d="M2.58283 350.349C2.81535 350.892 3.12691 351.526 3.19337 351.406C3.23635 351.246 2.81199 350.135 2.5279 349.784C2.5279 349.784 2.44881 349.694 2.43162 349.758C2.43162 349.758 2.42076 349.927 2.59143 350.316L2.58283 350.349Z" fill="#620F0E"/>
<path d="M402.198 553.589C401.944 554.793 403.96 555.608 405.11 554.781C405.836 554.254 405.766 553.101 404.299 552.673C402.958 552.417 402.294 553.099 402.198 553.589Z" fill="#620F0E"/>
<path d="M377.619 547.417C377.347 549.2 380.315 550.443 381.874 549.244C382.869 548.48 382.681 546.745 380.517 546.096C378.598 545.685 377.712 546.685 377.61 547.449L377.619 547.417Z" fill="#620F0E"/>
<path d="M353.111 540.849C352.961 543.078 356.679 544.728 358.524 543.228C359.839 542.171 359.142 540.024 356.642 539.217C354.348 538.671 353.208 539.844 353.143 540.858L353.111 540.849Z" fill="#620F0E"/>
<path d="M328.683 533.857C328.628 536.627 333.129 538.692 335.206 536.842C336.654 535.546 335.716 532.887 332.72 531.878C329.993 531.148 328.712 532.592 328.692 533.825L328.683 533.857Z" fill="#620F0E"/>
<path d="M304.439 526.433C304.562 529.698 309.804 532.202 312.031 530.049C313.612 528.513 312.392 525.366 308.909 524.124C305.733 523.273 304.392 524.942 304.439 526.433Z" fill="#620F0E"/>
<path d="M280.459 518.666C280.776 522.361 286.64 525.239 288.928 522.86C290.412 521.298 289.281 517.695 285.158 516.143C281.871 515.194 280.291 516.73 280.459 518.666Z" fill="#620F0E"/>
<path d="M256.728 510.486C257.303 514.628 263.74 517.934 266 515.274C267.495 513.543 266.114 509.459 261.6 507.7C258.01 506.6 256.386 508.297 256.696 510.477L256.728 510.486Z" fill="#620F0E"/>
<path d="M233.47 501.949C234.32 506.475 241.114 510.117 243.33 507.238C244.763 505.353 243.098 500.919 238.33 498.954C234.348 497.646 233.085 499.921 233.47 501.949Z" fill="#620F0E"/>
<path d="M210.636 493.115C211.746 497.951 218.801 501.904 220.859 498.846C222.181 496.862 220.263 492.085 215.369 489.948C211.253 488.502 210.125 490.916 210.604 493.107L210.636 493.115Z" fill="#620F0E"/>
<path d="M188.435 483.968C189.792 489.042 196.923 493.222 198.773 490.039C199.944 487.98 197.781 482.965 192.912 480.733C188.822 479.19 187.837 481.711 188.459 484.009L188.435 483.968Z" fill="#620F0E"/>
<path d="M167.259 474.719C168.808 479.844 175.681 484.092 177.202 480.855C178.18 478.745 175.897 473.664 171.182 471.369C167.302 469.813 166.541 472.395 167.251 474.751L167.259 474.719Z" fill="#620F0E"/>
<path d="M147.292 465.45C148.901 470.351 154.873 474.495 156.425 471.782C157.529 469.844 155.14 464.39 150.603 462.074C147.02 460.564 146.501 463.141 147.26 465.442L147.292 465.45Z" fill="#620F0E"/>
<path d="M128.589 456.21C130.306 460.967 135.732 464.965 136.929 462.295C137.783 460.392 135.383 455.107 131.304 452.88C128.081 451.432 127.781 453.965 128.589 456.21Z" fill="#620F0E"/>
<path d="M110.982 446.987C112.632 451.349 117.289 455.141 118.427 453.073C119.317 451.421 116.96 445.976 113.122 443.744C110.285 442.4 110.148 444.838 110.973 447.019L110.982 446.987Z" fill="#620F0E"/>
<path d="M94.6381 437.795C96.2463 441.801 100.296 445.293 101.085 443.373C101.783 441.669 99.241 436.656 96.1799 434.736C93.856 433.528 93.877 435.631 94.4525 437.333C94.5144 437.487 94.5762 437.641 94.6381 437.795Z" fill="#620F0E"/>
<path d="M79.4778 428.678C80.9262 432.126 84.1206 435.217 84.8368 433.827C85.5444 432.47 83.1606 427.637 80.5401 425.869C78.6802 424.855 78.8192 426.645 79.2178 427.852C79.286 428.111 79.4096 428.419 79.5185 428.655L79.4778 428.678Z" fill="#620F0E"/>
<path d="M65.4681 419.629C66.778 422.696 69.4552 425.407 69.8952 424.15C70.3587 422.933 68.2075 418.644 66.0744 417.11C64.655 416.248 64.8949 417.791 65.0077 418.268C65.1056 418.672 65.2591 419.126 65.4681 419.629Z" fill="#620F0E"/>
<path d="M52.6412 410.658C53.727 413.15 55.7117 415.366 56.0956 414.575C56.5052 413.688 54.6445 409.854 52.9112 408.496C51.9706 407.9 52.0209 408.739 52.1486 409.288C52.2231 409.652 52.3914 410.179 52.6326 410.69L52.6412 410.658Z" fill="#620F0E"/>
<path d="M41.0122 401.834C41.8741 403.75 43.3587 405.523 43.5306 404.881C43.7025 404.24 42.3286 401.156 41.01 400.046C40.4607 399.658 40.4452 400.101 40.5431 400.505C40.5792 400.756 40.7092 401.169 40.9886 401.794L41.0122 401.834Z" fill="#620F0E"/>
<path d="M30.5577 393.119C31.1871 394.491 32.1248 395.739 32.2514 395.395C32.4273 394.995 31.2835 392.591 30.4587 391.82C30.3476 391.721 30.1167 391.556 30.1505 391.944C30.1866 392.194 30.3166 392.607 30.5577 393.119Z" fill="#620F0E"/>
<path d="M21.3095 384.521C21.6978 385.382 22.2254 386.107 22.2769 385.915C22.3457 385.658 21.6137 384.156 21.1544 383.689C21.0902 383.672 21.0111 383.582 21.0088 383.719C21.0002 383.751 21.0363 384.001 21.3009 384.553L21.3095 384.521Z" fill="#620F0E"/>
<path d="M13.5084 376.552L13.4638 376.334L13.2141 375.854L13.2501 376.105L13.5084 376.552Z" fill="#620F0E"/>
<path d="M373.322 564.349C373.156 565.611 375.388 566.518 376.506 565.683C377.24 565.124 377.083 563.913 375.497 563.419C374.132 563.122 373.404 563.786 373.322 564.349Z" fill="#620F0E"/>
<path d="M350.066 558.118C349.965 559.776 352.796 561.016 354.192 559.911C355.074 559.185 354.779 557.593 352.72 556.938C350.97 556.538 350.126 557.378 350.098 558.126L350.066 558.118Z" fill="#620F0E"/>
<path d="M326.792 551.434C326.805 553.569 330.363 555.175 331.973 553.785C333.003 552.892 332.498 550.797 329.943 549.94C327.794 549.364 326.809 550.475 326.792 551.434Z" fill="#620F0E"/>
<path d="M303.686 544.384C303.859 547.078 308.449 549.064 309.972 547.1C310.919 545.876 309.91 543.611 307.18 542.639C304.645 541.96 303.576 543.255 303.654 544.376L303.686 544.384Z" fill="#620F0E"/>
<path d="M280.844 536.991C281.21 540.114 286.4 542.433 287.936 540.163C288.787 538.913 287.857 536.223 284.543 534.991C281.866 534.205 280.645 535.425 280.844 536.991Z" fill="#620F0E"/>
<path d="M258.274 529.225C258.892 532.691 264.566 535.38 266.058 532.892C266.995 531.321 265.45 528.363 262.088 527.049C258.819 526.036 257.991 527.842 258.265 529.257L258.274 529.225Z" fill="#620F0E"/>
<path d="M236.136 521.126C236.971 524.684 242.568 527.662 244.209 525.386C245.289 523.922 243.77 520.352 239.898 518.764C236.677 517.695 235.745 519.508 236.136 521.126Z" fill="#620F0E"/>
<path d="M214.358 512.712C215.453 516.581 221.296 519.797 222.802 517.382C223.78 515.787 222.024 511.947 217.985 510.212C214.653 509.044 213.864 510.964 214.349 512.744L214.358 512.712Z" fill="#620F0E"/>
<path d="M193.117 503.962C194.435 508.028 200.395 511.447 201.694 508.907C202.552 507.246 200.573 503.209 196.537 501.337C193.167 500.056 192.512 502.115 193.117 503.962Z" fill="#620F0E"/>
<path d="M172.925 495.147C174.426 499.297 180.136 502.752 181.211 500.152C181.876 498.439 179.786 494.304 175.887 492.433C172.534 491.088 172.294 493.396 172.957 495.155L172.925 495.147Z" fill="#620F0E"/>
<path d="M153.869 486.328C155.421 490.285 160.399 493.648 161.459 491.491C162.227 489.909 159.996 485.529 156.283 483.606C153.379 482.381 153.126 484.479 153.86 486.36L153.869 486.328Z" fill="#620F0E"/>
<path d="M135.916 477.495C137.559 481.373 142.144 484.664 142.897 482.494C143.455 480.924 141.208 476.609 137.824 474.739C135.273 473.609 135.177 475.508 135.722 477.064C135.752 477.21 135.846 477.373 135.884 477.486L135.916 477.495Z" fill="#620F0E"/>
<path d="M119.059 468.68C120.651 472.235 124.57 475.314 125.323 473.659C125.926 472.308 123.672 467.888 120.521 466.046C118.332 464.978 118.383 466.711 118.759 467.877C118.827 468.136 118.95 468.445 119.059 468.68Z" fill="#620F0E"/>
<path d="M103.425 459.918C104.989 463.191 108.349 466.051 108.843 464.464C109.219 463.189 107.089 459.077 104.37 457.42C102.341 456.396 102.862 458.426 102.992 458.839C103.084 459.139 103.237 459.593 103.425 459.918Z" fill="#620F0E"/>
<path d="M88.8784 451.207C90.2569 454.017 92.9623 456.496 93.4235 455.416C93.8612 454.295 91.639 450.399 89.4566 448.921C87.9879 448.115 88.2708 449.497 88.3922 449.942C88.5136 450.387 88.7226 450.89 88.8784 451.207Z" fill="#620F0E"/>
<path d="M75.4822 442.564C76.7136 445.025 78.9251 447.165 79.1595 446.162C79.3853 445.191 77.4449 441.783 75.7179 440.53C74.7687 439.966 74.8362 440.74 74.9404 441.25C75.0235 441.581 75.2325 442.084 75.4501 442.555L75.4822 442.564Z" fill="#620F0E"/>
<path d="M63.1962 434.011C64.1246 435.807 65.7994 437.768 66.0527 437.08C66.2738 436.383 64.5768 433.349 63.1854 432.255C62.5399 431.841 62.6034 432.374 62.6865 432.705C62.7695 433.037 62.9551 433.499 63.2048 433.979L63.1962 434.011Z" fill="#620F0E"/>
<path d="M52.0845 425.567C52.8187 426.933 53.8846 428.215 54.0434 427.88C54.2192 427.48 52.9065 425.065 51.9534 424.26C51.8337 424.193 51.5473 423.979 51.6045 424.407C51.6406 424.657 51.8347 425.088 52.0758 425.599L52.0845 425.567Z" fill="#620F0E"/>
<path d="M42.0419 417.238C42.4944 418.115 43.2355 419.07 43.3043 418.814C43.3816 418.525 42.4274 416.825 41.8484 416.292C41.7521 416.266 41.6496 416.136 41.6622 416.345C41.6833 416.523 41.8392 416.84 42.0419 417.238Z" fill="#620F0E"/>
<path d="M33.661 409.766L33.5865 409.402L33.0527 408.571L33.1506 408.976L33.661 409.766Z" fill="#620F0E"/>
<path d="M303.48 560.935C303.664 562.944 307.215 564.446 308.327 562.99C309.019 562.076 308.193 560.41 306.087 559.674C304.034 559.124 303.413 560.161 303.48 560.935Z" fill="#620F0E"/>
<path d="M281.84 553.933C282.211 556.267 286.265 558.075 287.373 556.378C288.068 555.326 287.013 553.359 284.635 552.481C282.311 551.79 281.711 553.004 281.872 553.941L281.84 553.933Z" fill="#620F0E"/>
<path d="M260.431 546.58C261.046 549.289 265.57 551.395 266.61 549.439C267.274 548.242 265.959 545.964 263.351 544.921C260.907 544.163 260.161 545.407 260.44 546.548L260.431 546.58Z" fill="#620F0E"/>
<path d="M239.454 538.898C240.315 541.844 245.117 544.197 246.054 542.11C246.648 540.791 245.032 538.226 242.303 537.117C239.716 536.252 239.096 537.667 239.445 538.93L239.454 538.898Z" fill="#620F0E"/>
<path d="M218.916 530.988C219.969 533.986 224.551 536.52 225.573 534.628C226.238 533.431 224.701 530.441 221.558 529.083C218.956 528.145 218.447 529.659 218.916 530.988Z" fill="#620F0E"/>
<path d="M198.755 522.697C199.999 525.884 204.747 528.566 205.585 526.59C206.139 525.295 204.395 522.18 201.213 520.709C198.716 519.765 198.066 521.034 198.723 522.689L198.755 522.697Z" fill="#620F0E"/>
<path d="M179.538 514.351C180.933 517.612 185.471 520.307 186.086 518.271C186.47 516.964 184.615 513.751 181.603 512.291C179.122 511.282 178.894 512.906 179.538 514.351Z" fill="#620F0E"/>
<path d="M161.401 505.949C162.895 509.1 166.918 511.794 167.559 510.04C168.023 508.823 166.123 505.392 163.072 503.818C160.849 502.879 160.759 504.367 161.254 505.6C161.292 505.714 161.363 505.836 161.401 505.949Z" fill="#620F0E"/>
<path d="M144.319 497.591C145.838 500.645 149.549 503.221 149.932 501.536C150.258 500.317 148.204 496.947 145.538 495.477C143.612 494.582 143.653 495.969 144.016 496.925C144.101 497.12 144.201 497.387 144.287 497.582L144.319 497.591Z" fill="#620F0E"/>
<path d="M128.34 489.217C129.8 491.981 132.933 494.402 133.35 493.104C133.723 491.966 131.509 488.553 129.219 487.218C127.334 486.3 127.875 488.13 127.96 488.325C128.052 488.624 128.208 488.941 128.34 489.217Z" fill="#620F0E"/>
<path d="M113.448 480.895C114.769 483.278 117.287 485.431 117.681 484.471C118.059 483.575 115.965 480.229 113.955 479.003C112.598 478.295 112.868 479.468 113.006 479.849C113.098 480.148 113.277 480.506 113.48 480.904L113.448 480.895Z" fill="#620F0E"/>
<path d="M99.6107 472.614C100.855 474.77 102.99 476.683 103.19 475.808C103.364 475.03 101.586 472.043 99.8245 470.918C98.8988 470.395 98.9601 471.065 99.0901 471.478C99.1817 471.777 99.3758 472.208 99.6107 472.614Z" fill="#620F0E"/>
<path d="M86.8515 464.416C87.8699 466.133 89.4703 467.731 89.6892 467.171C89.8846 466.57 88.1978 463.883 86.8448 462.902C86.7016 462.795 86.1907 462.52 86.3012 463.134C86.3607 463.425 86.5783 463.896 86.8601 464.384L86.8515 464.416Z" fill="#620F0E"/>
<path d="M75.1384 456.292C75.9689 457.684 77.1568 458.896 77.2044 458.462C77.284 458.036 75.9988 455.904 74.9408 455.105C74.8211 455.039 74.5347 454.824 74.6006 455.22C74.6366 455.47 74.8159 455.828 75.0977 456.316L75.1384 456.292Z" fill="#620F0E"/>
<path d="M64.5032 448.251C65.0754 449.195 65.8423 450.053 65.9025 449.829C65.9712 449.572 64.9443 447.887 64.269 447.328C64.1813 447.27 64.0381 447.163 64.0828 447.382C64.104 447.559 64.2597 447.876 64.5032 448.251Z" fill="#620F0E"/>
<path d="M54.9611 440.365C55.2045 440.74 55.606 441.295 55.6788 441.28C55.7132 441.151 55.1175 440.167 54.7841 439.871C54.752 439.862 54.6965 439.813 54.72 439.854C54.7412 440.031 54.8672 440.203 54.9611 440.365Z" fill="#620F0E"/>
<path d="M46.6077 432.662L46.5842 432.621L46.5051 432.531L46.5287 432.572L46.6077 432.662Z" fill="#620F0E"/>
<path d="M263.336 562.556C263.9 564.426 267.266 565.981 267.933 564.647C268.308 563.888 267.491 562.19 265.369 561.381C263.567 560.795 263.076 561.729 263.336 562.556Z" fill="#620F0E"/>
<path d="M243.567 555.367C244.361 557.539 247.98 559.3 248.562 557.771C248.924 556.802 247.667 554.953 245.563 554.079C243.64 553.427 243.228 554.451 243.567 555.367Z" fill="#620F0E"/>
<path d="M224.191 547.872C225.112 550.079 228.625 551.983 229.3 550.616C229.768 549.642 228.258 547.449 226.043 546.477C224.097 545.784 223.805 546.875 224.191 547.872Z" fill="#620F0E"/>
<path d="M205.197 540.101C206.317 542.464 209.965 544.507 210.497 543.034C210.819 542.089 209.352 539.736 206.897 538.632C204.905 537.857 204.691 539.038 205.197 540.101Z" fill="#620F0E"/>
<path d="M187.059 532.216C188.252 534.564 191.561 536.585 192.106 535.322C192.484 534.426 190.844 531.82 188.439 530.66C186.606 529.929 186.556 531.015 186.959 531.948C187.006 532.03 187.044 532.143 187.059 532.216Z" fill="#620F0E"/>
<path d="M169.985 524.339C171.26 526.64 174.336 528.633 174.671 527.382C174.937 526.388 173.079 523.827 170.995 522.753C169.395 522.049 169.458 523.098 169.744 523.827C169.806 523.982 169.891 524.176 169.994 524.307L169.985 524.339Z" fill="#620F0E"/>
<path d="M153.846 516.44C155.122 518.604 157.805 520.526 158.144 519.517C158.449 518.636 156.52 515.953 154.541 514.872C152.918 514.128 153.425 515.571 153.487 515.725C153.564 515.951 153.705 516.196 153.846 516.44Z" fill="#620F0E"/>
<path d="M138.728 508.573C139.943 510.583 142.322 512.355 142.507 511.407C142.658 510.588 140.855 508.077 139.1 507.056C137.918 506.465 138.176 507.427 138.267 507.727C138.329 507.881 138.453 508.189 138.696 508.564L138.728 508.573Z" fill="#620F0E"/>
<path d="M124.578 500.69C125.725 502.441 127.695 504.069 127.876 503.396C128.056 502.722 126.286 500.219 124.715 499.282C123.868 498.849 123.932 499.382 124.07 499.763C124.177 500.135 124.467 500.591 124.57 500.722L124.578 500.69Z" fill="#620F0E"/>
<path d="M111.539 492.898C112.536 494.437 114.164 495.802 114.223 495.198C114.281 494.595 112.722 492.458 111.495 491.648C111.343 491.573 110.865 491.307 111.001 491.825C111.069 492.084 111.248 492.442 111.539 492.898Z" fill="#620F0E"/>
<path d="M99.4483 485.154C100.266 486.336 101.416 487.434 101.455 487.032C101.526 486.639 100.26 484.821 99.272 484.144C99.1523 484.077 98.8573 483.895 98.9403 484.227C98.9936 484.413 99.1728 484.771 99.4483 485.154Z" fill="#620F0E"/>
<path d="M88.372 477.476C88.9379 478.315 89.7307 479.078 89.7822 478.885C89.8424 478.661 88.796 477.177 88.1676 476.699C88.1034 476.682 87.9368 476.534 87.99 476.72C88.0198 476.866 88.1521 477.142 88.4041 477.485L88.372 477.476Z" fill="#620F0E"/>
<path d="M78.333 469.903C78.6876 470.377 79.1149 470.835 79.1086 470.73C79.143 470.602 78.545 469.754 78.1475 469.441C78.1154 469.433 78.0278 469.375 78.0512 469.415C78.034 469.48 78.1601 469.651 78.3096 469.863L78.333 469.903Z" fill="#620F0E"/>
<path d="M69.4812 462.65L69.4342 462.568L69.2292 462.307L69.2996 462.429L69.4812 462.65Z" fill="#620F0E"/>
<path d="M230.246 563.383C231.01 564.895 233.541 566.226 233.895 565.289C234.14 564.633 232.965 563.115 231.389 562.452C230.012 561.946 229.879 562.7 230.246 563.383Z" fill="#620F0E"/>
<path d="M212.556 556.134C213.464 557.752 216.01 559.157 216.276 558.162C216.457 557.489 215.147 555.831 213.58 555.136C212.244 554.606 212.183 555.346 212.494 555.98C212.518 556.021 212.533 556.093 212.588 556.143L212.556 556.134Z" fill="#620F0E"/>
<path d="M195.522 548.751C196.502 550.355 198.838 551.771 199.102 550.914C199.266 550.304 197.991 548.519 196.321 547.693C195.081 547.189 195.133 547.891 195.366 548.434C195.404 548.548 195.475 548.67 195.554 548.76L195.522 548.751Z" fill="#620F0E"/>
<path d="M179.414 541.375C180.49 543.004 182.754 544.436 182.881 543.576C182.965 542.876 181.498 541.039 179.957 540.248C178.661 539.694 179.07 540.732 179.141 540.854C179.226 541.049 179.32 541.212 179.423 541.342L179.414 541.375Z" fill="#620F0E"/>
<path d="M164.336 534C165.359 535.444 167.27 536.781 167.41 536.13C167.565 535.553 166.033 533.699 164.652 532.95C163.669 532.515 163.899 533.196 163.984 533.39C164.061 533.617 164.21 533.829 164.336 534Z" fill="#620F0E"/>
<path d="M150.163 526.592C151.115 527.913 152.746 529.14 152.883 528.627C153.021 528.114 151.521 526.268 150.269 525.554C149.661 525.254 149.625 525.519 149.725 525.787C149.763 525.9 149.864 526.168 150.195 526.6L150.163 526.592Z" fill="#620F0E"/>
<path d="M136.929 519.265C137.741 520.342 139.115 521.501 139.148 520.994C139.155 520.583 137.965 518.992 136.864 518.353C136.537 518.162 136.383 518.224 136.451 518.483C136.504 518.669 136.669 518.954 136.897 519.256L136.929 519.265Z" fill="#620F0E"/>
<path d="M124.655 511.953C125.34 512.858 126.349 513.713 126.394 513.416C126.44 513.118 125.28 511.673 124.515 511.193C124.418 511.167 124.155 510.994 124.224 511.253C124.268 511.471 124.552 511.822 124.678 511.993L124.655 511.953Z" fill="#620F0E"/>
<path d="M113.289 504.714C113.778 505.326 114.524 506.007 114.511 505.798C114.499 505.588 113.623 504.494 113.074 504.106C113.009 504.089 112.866 503.982 112.896 504.127C112.934 504.24 113.084 504.452 113.289 504.714Z" fill="#620F0E"/>
<path d="M103.467 498.128L103.376 497.828L102.758 497.181L102.882 497.489L103.467 498.128Z" fill="#620F0E"/>
<path d="M93.5503 490.485L93.4713 490.395L93.4947 490.436L93.5503 490.485Z" fill="#620F0E"/>
<path d="M204.814 563.858C205.546 564.845 207.085 565.774 207.127 565.235C207.198 564.841 206.258 563.73 205.187 563.236C204.443 562.934 204.54 563.338 204.57 563.484C204.632 563.638 204.703 563.76 204.773 563.882L204.814 563.858Z" fill="#620F0E"/>
<path d="M189.905 557.01C190.623 557.925 192.001 558.81 192.072 558.416C192.158 558.096 191.172 556.903 190.109 556.377C189.557 556.126 189.553 556.4 189.615 556.554C189.676 556.708 189.77 556.871 189.905 557.01Z" fill="#620F0E"/>
<path d="M175.85 550.184C176.544 551.057 177.707 551.85 177.793 551.53C177.879 551.209 176.819 550.031 175.949 549.557C175.517 549.373 175.483 549.501 175.536 549.687C175.575 549.801 175.692 550.004 175.85 550.184Z" fill="#620F0E"/>
<path d="M162.665 543.317C163.289 544.068 164.268 544.777 164.305 544.512C164.309 544.238 163.361 543.159 162.61 542.752C162.514 542.726 162.251 542.552 162.319 542.811C162.334 542.884 162.396 543.038 162.665 543.317Z" fill="#620F0E"/>
<path d="M150.326 536.503C150.856 537.092 151.563 537.659 151.606 537.499C151.649 537.339 150.835 536.399 150.181 536.017C150.117 536 149.942 535.884 150.004 536.038C150.042 536.152 150.168 536.323 150.326 536.503Z" fill="#620F0E"/>
<path d="M138.904 529.729C139.253 530.097 139.753 530.541 139.778 530.444C139.813 530.316 139.172 529.629 138.789 529.389C138.757 529.38 138.637 529.314 138.661 529.354C138.691 529.5 138.802 529.598 138.913 529.697L138.904 529.729Z" fill="#620F0E"/>
<path d="M128.67 523.274L128.599 523.152L128.274 522.824L128.336 522.978L128.67 523.274Z" fill="#620F0E"/>
<path d="M176.731 559.085L176.669 558.931L176.114 558.439L176.135 558.616L176.731 559.085Z" fill="#620F0E"/>
<path d="M165.096 552.597L165.081 552.524L164.794 552.31L164.841 552.391L165.096 552.597Z" fill="#620F0E"/>
</g>
</g>
</g>
<defs>
<clipPath id="clip0_52_4848">
<rect width="402" height="563" fill="white"/>
</clipPath>
</defs>
</svg>
