<svg width="980" height="980" viewBox="0 0 980 980" fill="none" xmlns="http://www.w3.org/2000/svg">
<g opacity="0.5">
<mask id="mask0_308_676" style="mask-type:luminance" maskUnits="userSpaceOnUse" x="0" y="0" width="980" height="980">
<path d="M206.922 -0.000135528L979.165 206.922L772.243 979.165L3.3645e-05 772.243L206.922 -0.000135528Z" fill="white"/>
</mask>
<g mask="url(#mask0_308_676)">
<path d="M883.749 73.6404L884.238 73.3578L883.971 72.813L883.411 73.1361L883.749 73.6404Z" fill="#620F0E"/>
<path d="M836.158 60.1777L837.822 59.2638L837.033 57.5744L835.424 58.5031L836.158 60.1777Z" fill="#620F0E"/>
<path d="M787.765 43.3088C787.307 45.0188 788.96 46.3487 790.484 45.5155C791.813 44.7483 792.239 42.4976 790.367 41.7596C789.099 41.4197 788.031 42.316 787.765 43.3088Z" fill="#620F0E"/>
<path d="M740.869 27.2536C740.292 29.4049 742.313 31.1288 744.227 30.1637C746.086 29.1837 746.384 26.3075 744.266 25.3853C742.446 24.8976 741.164 26.1504 740.869 27.2536Z" fill="#620F0E"/>
<path d="M694.634 10.4924C693.888 12.8347 695.982 15.1694 698.441 13.9363C700.69 12.8244 701.176 9.46654 698.591 8.30103C696.51 7.68422 695.044 9.1833 694.634 10.4924Z" fill="#620F0E"/>
<path d="M916.383 139.613L917.657 138.831L916.985 137.587L915.726 138.314L916.383 139.613Z" fill="#620F0E"/>
<path d="M866.204 124.335C865.857 126.074 867.76 127.353 869.204 126.38C870.507 125.488 870.502 123.299 868.711 122.701C867.277 122.317 866.316 123.478 866.134 124.375L866.204 124.335Z" fill="#620F0E"/>
<path d="M816.988 109.433C816.463 111.835 818.892 114.023 821.219 112.4C823.111 111.074 823.163 108.014 820.684 107.113C818.644 106.566 817.273 108.15 816.988 109.433Z" fill="#620F0E"/>
<path d="M768.12 93.678C767.333 96.8369 770.435 99.3825 773.217 97.8225C775.721 96.424 776.513 92.1431 772.921 90.7667C770.273 90.0573 768.508 92.0084 768.065 93.6632L768.12 93.678Z" fill="#620F0E"/>
<path d="M720.094 77.2025C719.089 80.9534 723.015 83.9561 726.236 81.8632C729.092 80.0273 729.337 75.3633 725.774 73.8765C722.7 72.9937 720.612 75.2719 720.109 77.1473L720.094 77.2025Z" fill="#620F0E"/>
<path d="M672.621 59.9904C671.403 64.0979 675.224 67.4867 679.037 65.6116C682.641 63.8575 683.262 58.2301 679.082 56.4006C675.651 55.3039 673.253 57.854 672.621 59.9904Z" fill="#620F0E"/>
<path d="M626.213 42.1155C624.879 46.4288 628.752 50.0678 632.746 48.1818C636.599 46.3766 637.379 40.3779 633.063 38.3937C629.536 37.2123 626.929 39.8835 626.268 42.1303L626.213 42.1155Z" fill="#620F0E"/>
<path d="M580.757 23.5512C579.269 28.0005 583.168 31.7646 587.271 29.9082C591.195 28.0626 592.17 21.9978 587.883 19.9033C584.261 18.6372 581.543 21.2788 580.797 23.6212L580.757 23.5512Z" fill="#620F0E"/>
<path d="M537.274 4.68621C535.691 9.05073 539.284 12.8513 543.318 11.0352C547.227 9.2448 548.367 3.22439 544.165 1.03432C540.778 -0.227792 538.06 2.41382 537.274 4.68621Z" fill="#620F0E"/>
<path d="M951.457 205.529L953.04 204.475L952.111 202.867L950.558 203.81L951.457 205.529Z" fill="#620F0E"/>
<path d="M899.75 190.434C899.31 192.74 901.666 194.317 903.518 192.921C904.936 191.823 905.119 189.153 902.791 188.352C901.177 187.978 899.98 189.135 899.75 190.434Z" fill="#620F0E"/>
<path d="M849.155 176.049C848.548 179.197 851.889 181.511 854.455 179.656C856.727 178.018 856.665 174.277 853.635 173.229C851.083 172.604 849.514 174.489 849.21 176.064L849.155 176.049Z" fill="#620F0E"/>
<path d="M798.866 160.741C797.953 164.812 802.223 167.848 805.574 165.494C808.49 163.438 808.488 158.589 804.62 157.139C801.2 156.223 799.313 158.851 798.866 160.741Z" fill="#620F0E"/>
<path d="M749.074 144.681C747.939 149.579 752.878 153.209 756.983 150.466C760.569 148.116 760.638 142.341 755.987 140.503C752.126 139.468 749.654 142.294 749.074 144.681Z" fill="#620F0E"/>
<path d="M699.905 127.84C698.552 133.331 704.09 137.593 708.685 134.568C712.34 132.177 713.283 125.572 707.808 123.277C703.701 122.059 700.677 124.737 699.905 127.84Z" fill="#620F0E"/>
<path d="M651.634 110.294C650.097 116.031 655.933 120.728 660.848 117.611C665.243 114.887 665.582 107.883 660.137 105.478C655.548 104.071 652.403 107.426 651.634 110.294Z" fill="#620F0E"/>
<path d="M604.222 91.9728C602.426 98.2315 608.369 103.194 613.798 99.9188C618.474 97.0331 619.027 89.673 613.295 87.014C608.254 85.3085 605.086 89.1892 604.277 91.9876L604.222 91.9728Z" fill="#620F0E"/>
<path d="M557.858 73.0469C556.026 79.0003 561.424 84.2302 566.731 81.6322C571.969 79.0745 573.06 71.0309 567.152 68.1472C562.291 66.4309 558.796 69.9875 557.858 73.0469Z" fill="#620F0E"/>
<path d="M513.481 53.7664C511.524 59.7454 516.466 64.9122 521.814 62.3841C527.022 59.9368 528.293 51.8824 522.58 48.9327C517.969 47.1652 514.474 50.7218 513.481 53.7664Z" fill="#620F0E"/>
<path d="M471.654 34.4582C469.631 40.2421 474.076 45.276 479.159 42.8542C484.117 40.4581 485.565 32.6282 480.293 29.7968C475.862 28.0184 472.628 31.7042 471.654 34.4582Z" fill="#620F0E"/>
<path d="M432.36 15.1806C430.331 20.5488 434.213 25.2546 438.836 23.0052C443.264 20.8218 444.829 13.4372 440.33 10.8127C436.561 9.21169 433.405 12.3861 432.36 15.1806Z" fill="#620F0E"/>
<path d="M395.327 -4.14322C393.459 0.618244 396.324 4.93292 400.394 3.42224C404.729 1.8052 406.75 -5.51633 402.541 -8.12209C399.008 -9.71912 396.253 -6.49636 395.327 -4.14322Z" fill="#620F0E"/>
<path d="M935.427 256.748C935.027 259.124 937.548 260.746 939.47 259.31C941.097 258.09 940.91 255.261 938.678 254.545C936.773 254.153 935.597 255.671 935.412 256.803L935.427 256.748Z" fill="#620F0E"/>
<path d="M883.782 242.971C883.211 246.424 886.938 248.842 889.674 246.796C891.89 245.143 892.168 241.02 888.586 239.824C885.799 239.195 884.115 241.286 883.822 243.041L883.782 242.971Z" fill="#620F0E"/>
<path d="M832.319 228.293C831.452 232.85 836.22 236.019 839.92 233.463C843.13 231.19 842.986 225.772 838.606 224.243C834.771 223.334 832.685 226.263 832.304 228.348L832.319 228.293Z" fill="#620F0E"/>
<path d="M780.982 212.704C779.82 218.364 785.638 222.465 790.292 219.218C794.216 216.486 794.136 209.725 788.863 207.78C784.34 206.568 781.54 209.956 780.982 212.704Z" fill="#620F0E"/>
<path d="M730.432 196.382C729.008 202.8 735.535 207.564 740.874 203.969C745.413 200.929 745.404 193.24 739.418 190.868C734.343 189.508 731.149 193.264 730.432 196.382Z" fill="#620F0E"/>
<path d="M680.52 179.225C678.864 186.289 685.99 191.687 691.888 187.769C696.902 184.501 697.044 176.026 690.496 173.325C684.899 171.707 681.271 175.76 680.52 179.225Z" fill="#620F0E"/>
<path d="M631.341 161.317C629.486 168.683 637.1 174.684 643.263 170.66C648.752 167.165 649.083 158.208 642.042 155.139C636.144 153.322 632.206 157.647 631.286 161.302L631.341 161.317Z" fill="#620F0E"/>
<path d="M583.131 142.664C581.047 150.441 588.848 156.848 595.386 152.747C601.21 149.104 601.674 139.651 594.347 136.328C588.272 134.287 584.095 138.843 583.075 142.649L583.131 142.664Z" fill="#620F0E"/>
<path d="M535.929 123.337C533.661 131.361 541.484 138.127 548.272 133.975C554.221 130.307 554.954 120.512 547.631 116.954C541.42 114.758 537.063 119.325 535.929 123.337Z" fill="#620F0E"/>
<path d="M490.919 103.768C488.615 111.486 495.125 118.079 501.787 114.839C508.184 111.705 509.525 101.186 502.301 97.4766C496.396 95.244 492.094 99.826 490.919 103.768Z" fill="#620F0E"/>
<path d="M448.46 84.1714C446.09 91.6948 451.979 98.1798 458.321 95.0312C464.397 91.989 465.984 81.6542 459.272 78.0228C453.823 75.8533 449.62 80.2846 448.405 84.1566L448.46 84.1714Z" fill="#620F0E"/>
<path d="M408.604 64.5659C406.227 71.6737 411.443 77.801 417.31 74.8799C422.912 72.0652 424.642 62.3008 418.646 58.8615C413.448 56.6408 409.741 61.2051 408.59 64.6211L408.604 64.5659Z" fill="#620F0E"/>
<path d="M371.228 44.9743C368.928 51.5708 373.361 57.3109 378.658 54.5326C383.73 51.9306 385.573 42.8469 380.35 39.6145C376.033 37.6303 372.38 41.5583 371.243 44.9191L371.228 44.9743Z" fill="#620F0E"/>
<path d="M336.357 25.5201C334.254 31.1641 337.452 36.2186 341.901 34.3957C346.741 32.4408 349.006 23.7659 344.349 20.6262C340.735 18.8893 337.49 22.3947 336.372 25.4649L336.357 25.5201Z" fill="#620F0E"/>
<path d="M304.115 6.18098C302.303 10.9572 304.792 15.3487 308.406 13.7749C312.341 12.1096 314.446 4.69251 310.778 2.0543C307.867 0.564687 305.115 3.55203 304.115 6.18098Z" fill="#620F0E"/>
<path d="M972.685 322.896C972.329 325.106 974.81 326.658 976.607 325.247C978.179 324.013 978.017 321.309 975.825 320.663C973.85 320.311 972.855 321.818 972.685 322.896Z" fill="#620F0E"/>
<path d="M920.322 309.813C919.751 313.266 923.548 315.643 926.298 313.542C928.53 311.835 928.752 307.697 925.1 306.541C922.132 305.923 920.57 308.224 920.322 309.813Z" fill="#620F0E"/>
<path d="M867.739 295.781C866.924 300.588 872.063 303.915 875.962 301.058C879.327 298.649 879.051 292.84 874.381 291.293C870.475 290.424 868.14 293.405 867.739 295.781Z" fill="#620F0E"/>
<path d="M815.558 280.914C814.477 286.714 820.902 290.978 825.585 287.621C829.679 284.698 829.452 277.602 823.849 275.568C819.02 274.393 816.106 277.987 815.558 280.914Z" fill="#620F0E"/>
<path d="M763.685 265.12C762.333 272.148 769.618 277.175 775.35 273.212C780.229 269.79 780.051 261.406 773.444 258.926C767.803 257.474 764.365 261.697 763.685 265.12Z" fill="#620F0E"/>
<path d="M712.282 248.451C710.669 256.237 719.045 262.265 725.422 257.884C730.565 254.355 731.514 244.854 723.381 241.67C717.038 239.97 713.082 244.586 712.282 248.451Z" fill="#620F0E"/>
<path d="M661.653 231.102C659.734 239.81 668.653 246.457 675.84 241.702C682.017 237.623 682 227.095 673.911 223.745C667.006 221.717 662.626 226.81 661.653 231.102Z" fill="#620F0E"/>
<path d="M611.897 212.922C609.789 222.112 619.047 229.263 626.678 224.391C633.246 220.179 633.392 209.045 624.81 205.326C617.618 203.044 612.929 208.41 611.897 212.922Z" fill="#620F0E"/>
<path d="M563.039 194.036C560.758 203.653 570.229 211.334 578.195 206.315C585.112 201.901 585.457 190.465 576.508 186.353C569.07 183.887 564.185 189.318 563.039 194.036Z" fill="#620F0E"/>
<path d="M515.371 174.463C512.921 184.271 522.357 192.298 530.449 187.253C537.392 182.965 537.884 170.977 529.09 166.729C521.641 164.083 516.547 169.635 515.371 174.463Z" fill="#620F0E"/>
<path d="M469.855 154.582C467.224 164.401 476.135 172.405 484.086 167.441C490.849 163.164 491.562 151.235 483.239 146.995C476.15 144.327 471.181 149.853 469.895 154.652L469.855 154.582Z" fill="#620F0E"/>
<path d="M427.038 134.774C424.504 143.791 431.77 151.532 439.161 147.778C446.217 144.17 447.7 131.797 439.642 127.451C433.079 124.805 428.335 130.156 427.038 134.774Z" fill="#620F0E"/>
<path d="M386.606 114.895C384.035 123.606 390.585 131.155 397.531 127.518C404.197 124.042 405.881 112.019 398.555 107.809C392.503 105.242 387.928 110.401 386.606 114.895Z" fill="#620F0E"/>
<path d="M348.983 95.1171C346.535 103.152 352.055 110.129 358.276 106.771C364.287 103.533 366.081 92.4265 359.692 88.4681C354.468 86.1223 350.287 90.9141 348.998 95.0619L348.983 95.1171Z" fill="#620F0E"/>
<path d="M313.88 75.4256C311.499 82.7687 316.13 89.094 321.571 85.9995C326.452 83.228 329.097 73.3544 323.205 69.529C318.753 67.3901 315.066 71.6638 313.88 75.4256Z" fill="#620F0E"/>
<path d="M281.227 55.8575C279.156 62.0423 282.401 67.5823 286.95 65.6087C291.779 63.4736 294.086 53.9821 289.323 50.5774C285.588 48.6307 282.349 52.5518 281.227 55.8575Z" fill="#620F0E"/>
<path d="M251.26 36.4161C249.44 41.6631 251.855 46.3304 255.514 44.5912C259.437 42.7456 261.54 34.6774 257.861 31.8589C254.924 30.2442 252.209 33.5369 251.26 36.4161Z" fill="#620F0E"/>
<path d="M223.823 17.2399C222.369 21.3434 224.038 25.0423 226.817 23.7177C229.806 22.2719 231.575 15.8881 228.87 13.6263C226.731 12.3436 224.664 14.9823 223.823 17.2399Z" fill="#620F0E"/>
<path d="M198.821 -1.75648C197.688 1.36891 198.803 4.26893 200.786 3.26339C202.98 2.13671 204.421 -2.79816 202.58 -4.53295C200.977 -5.61268 199.43 -3.36695 198.821 -1.75648Z" fill="#620F0E"/>
<path d="M958.047 376.203C957.535 379.435 961.101 381.573 963.641 379.594C965.887 377.831 965.66 374.045 962.531 373.147C960.004 372.648 958.354 374.393 958.047 376.203Z" fill="#620F0E"/>
<path d="M905.077 362.956C904.335 367.487 909.353 370.605 912.972 367.909C916.157 365.511 915.832 360.103 911.368 358.67C907.613 357.901 905.432 360.745 905.077 362.956Z" fill="#620F0E"/>
<path d="M852.053 348.806C851.038 354.801 857.382 358.925 862.235 355.377C866.428 352.303 866.102 345.358 860.248 343.375C855.169 342.251 852.542 346.099 852.108 348.821L852.053 348.806Z" fill="#620F0E"/>
<path d="M799.28 333.721C798.01 340.889 805.626 346.004 811.472 341.836C816.435 338.317 816.066 329.764 809.209 327.336C803.373 325.949 799.921 330.227 799.28 333.721Z" fill="#620F0E"/>
<path d="M746.925 317.74C745.429 325.971 754.096 332.018 760.837 327.38C766.584 323.363 766.264 313.522 758.363 310.577C751.674 308.844 747.643 313.735 746.91 317.796L746.925 317.74Z" fill="#620F0E"/>
<path d="M695.026 300.939C693.219 310.328 702.952 317.251 710.547 312.074C717.148 307.517 716.904 296.514 707.903 293.038C700.456 291.043 695.877 296.437 695.026 300.939Z" fill="#620F0E"/>
<path d="M643.71 283.285C641.711 293.391 652.41 301.342 660.564 295.841C667.795 290.921 667.666 278.826 657.926 274.797C649.767 272.374 644.679 278.342 643.71 283.285Z" fill="#620F0E"/>
<path d="M593.402 264.959C591.171 275.713 602.439 284.407 611.083 278.624C618.773 273.531 618.7 260.564 608.428 256.097C599.871 253.391 594.475 259.63 593.346 264.944L593.402 264.959Z" fill="#620F0E"/>
<path d="M544.188 245.857C541.724 257.258 552.959 266.298 562.118 260.357C570.074 255.158 570.149 241.64 559.66 236.878C550.927 233.947 545.361 240.378 544.173 245.912L544.188 245.857Z" fill="#620F0E"/>
<path d="M496.163 226.074C493.57 237.736 504.756 247.177 514.055 241.155C522.136 235.931 522.355 222.096 511.884 217.044C502.659 213.744 497.386 220.845 496.218 226.089L496.163 226.074Z" fill="#620F0E"/>
<path d="M450.315 206.104C447.572 217.666 458.147 227.181 467.141 221.196C474.817 216.158 475.275 202.092 465.551 197.121C457.223 194.003 451.642 200.489 450.315 206.104Z" fill="#620F0E"/>
<path d="M407.047 185.995C404.238 197.362 414.026 206.725 422.67 200.941C430.081 196.01 430.786 182.128 421.588 177.18C413.786 174.085 408.415 180.45 407.047 185.995Z" fill="#620F0E"/>
<path d="M366.629 166.061C363.99 176.351 371.737 185.166 379.567 180.879C387.201 176.658 388.722 162.817 380.025 157.767C373.025 154.768 367.978 160.806 366.629 166.061Z" fill="#620F0E"/>
<path d="M328.76 146.101C326.189 155.699 332.892 163.999 339.996 159.99C346.961 156.062 348.551 143.068 340.846 138.284C334.728 135.522 330.076 141.192 328.76 146.101Z" fill="#620F0E"/>
<path d="M293.356 126.209C290.936 135.019 296.569 142.678 302.824 138.973C308.938 135.35 310.663 123.397 304.032 119.019C298.742 116.478 294.568 121.685 293.356 126.209Z" fill="#620F0E"/>
<path d="M260.567 106.486C258.259 114.44 262.937 121.251 268.326 117.906C273.436 114.723 275.226 103.851 269.859 100.049C265.397 97.7295 261.771 102.434 260.567 106.486Z" fill="#620F0E"/>
<path d="M230.449 86.946C228.554 93.3554 231.63 99.0866 235.918 96.9839C240.485 94.7198 242.535 84.8637 238.077 81.4227C234.578 79.4799 231.49 83.5005 230.504 86.9608L230.449 86.946Z" fill="#620F0E"/>
<path d="M202.821 67.5999C201.236 72.8509 203.511 77.599 206.809 75.8814C210.442 74.017 212.269 65.875 208.785 62.9905C206.084 61.3798 203.644 64.7464 202.765 67.5851L202.821 67.5999Z" fill="#620F0E"/>
<path d="M177.793 48.4782C176.489 52.6812 178.059 56.5309 180.522 55.0624C182.97 53.6491 184.934 47.1993 182.329 44.7867C180.274 43.4085 178.439 46.2866 177.752 48.4083L177.793 48.4782Z" fill="#620F0E"/>
<path d="M155.295 29.6222C154.361 32.4462 155.189 35.092 156.724 34.4391C158.593 33.6394 160.049 28.6494 158.388 26.9037C157.142 26.0378 155.808 27.927 155.295 29.6222Z" fill="#620F0E"/>
<path d="M135.534 11.1431C134.936 12.9338 135.413 14.244 136.152 13.9101C137.032 13.4955 138.091 10.6459 137.18 9.63318C136.592 9.18002 135.885 10.0546 135.534 11.1431Z" fill="#620F0E"/>
<path d="M943.158 429.561C942.535 433.651 947.115 436.415 950.385 433.921C953.275 431.74 952.998 426.817 948.945 425.613C945.687 424.977 943.558 427.185 943.158 429.561Z" fill="#620F0E"/>
<path d="M889.747 416.195C888.806 421.914 894.989 425.758 899.576 422.316C903.49 419.404 903.119 412.624 897.607 410.911C892.955 409.96 890.196 413.418 889.747 416.195Z" fill="#620F0E"/>
<path d="M836.462 401.918C835.306 408.88 842.925 413.76 848.577 409.658C853.485 406.125 853.002 397.778 846.17 395.474C840.414 394.228 837.032 398.465 836.476 401.863L836.462 401.918Z" fill="#620F0E"/>
<path d="M783.414 386.758C782.003 394.893 790.99 400.848 797.51 396.151C803.301 391.968 802.827 382.264 794.841 379.414C788.122 377.792 784.132 382.753 783.414 386.758Z" fill="#620F0E"/>
<path d="M730.727 370.689C729.086 380.122 739.165 387.079 746.819 381.681C753.519 376.973 753.014 365.841 743.708 362.402C736.081 360.417 731.498 366.047 730.687 370.619L730.727 370.689Z" fill="#620F0E"/>
<path d="M678.277 353.739C676.411 364.235 687.841 372.323 696.25 366.536C703.79 361.343 703.282 348.674 692.962 344.608C684.371 342.247 679.21 348.491 678.277 353.739Z" fill="#620F0E"/>
<path d="M626.81 335.985C624.674 347.71 636.769 356.626 646.116 350.204C654.231 344.633 653.854 330.816 642.724 326.238C632.98 323.331 627.813 330.697 626.825 335.93L626.81 335.985Z" fill="#620F0E"/>
<path d="M576.145 317.446C573.842 330.012 586.547 339.743 596.454 332.997C605.058 327.144 604.767 312.345 593.009 307.243C583.253 304.156 577.245 311.355 576.145 317.446Z" fill="#620F0E"/>
<path d="M526.56 298.188C524.084 311.181 537.082 321.581 547.35 314.814C556.134 308.95 555.873 293.154 544.023 287.732C534.037 284.406 527.844 291.851 526.615 298.203L526.56 298.188Z" fill="#620F0E"/>
<path d="M478.149 278.296C475.54 291.786 488.586 302.672 499.008 295.768C508.086 289.688 507.955 273.631 495.863 267.79C485.77 264.198 479.423 271.779 478.149 278.296Z" fill="#620F0E"/>
<path d="M432.165 258.173C429.446 271.633 441.77 282.562 451.887 275.695C460.716 269.666 460.819 253.613 449.283 247.684C439.676 244.046 433.509 251.616 432.165 258.173Z" fill="#620F0E"/>
<path d="M388.911 238.011C386.17 251.111 397.542 261.844 407.059 255.23C415.217 249.494 415.582 233.57 405.054 227.852C396.137 224.28 390.25 231.689 388.951 238.081L388.911 238.011Z" fill="#620F0E"/>
<path d="M348.343 217.976C345.747 229.873 354.883 240.125 363.611 235.133C372.004 230.287 373.123 213.974 363.246 208.253C355.187 204.793 349.679 211.89 348.329 218.032L348.343 217.976Z" fill="#620F0E"/>
<path d="M310.434 197.945C307.919 209.096 315.875 218.677 323.698 213.974C331.226 209.488 332.55 194.176 323.816 188.82C316.75 185.626 311.736 192.205 310.434 197.945Z" fill="#620F0E"/>
<path d="M275.1 178.015C272.726 188.198 279.407 197.023 286.239 192.706C292.847 188.564 294.247 174.514 286.808 169.624C280.734 166.696 276.324 172.786 275.085 178.07L275.1 178.015Z" fill="#620F0E"/>
<path d="M242.326 158.237C240.108 167.397 245.627 175.261 251.51 171.398C257.168 167.712 258.6 155.089 252.44 150.719C247.043 147.913 243.383 153.849 242.326 158.237Z" fill="#620F0E"/>
<path d="M212.112 138.611C210.252 146.212 214.019 152.897 218.771 150.387C223.872 147.674 225.759 136.001 220.522 131.937C216.404 129.651 213.165 134.459 212.112 138.611Z" fill="#620F0E"/>
<path d="M184.444 119.195C182.884 125.458 185.779 131.2 189.416 129.1C193.458 126.813 195.147 116.979 191.145 113.601C187.991 111.691 185.32 115.705 184.444 119.195Z" fill="#620F0E"/>
<path d="M159.374 100.005C158.029 105.024 160.099 109.658 162.911 107.988C165.878 106.181 167.4 98.0757 164.548 95.4789C162.177 93.9568 160.113 97.2466 159.415 100.075L159.374 100.005Z" fill="#620F0E"/>
<path d="M136.892 81.0924C135.872 84.8985 137.159 88.2585 139.107 86.9476C141.054 85.6367 142.566 79.7749 140.468 77.6757C138.84 76.4708 137.409 79.1618 136.892 81.0924Z" fill="#620F0E"/>
<path d="M117.036 62.5273C116.386 64.9544 116.946 67.0555 118.05 66.4646C119.364 65.7525 120.363 61.5859 119.18 60.2639C118.25 59.5418 117.376 61.2586 117.036 62.5273Z" fill="#620F0E"/>
<path d="M99.6544 44.2152C99.3588 45.3184 99.5449 46.6098 100.064 46.2168C100.694 45.8534 101.2 43.7425 100.741 43.0283C100.359 42.6895 99.8909 43.3326 99.6692 44.16L99.6544 44.2152Z" fill="#620F0E"/>
<path d="M928.189 482.778C927.4 487.71 932.803 490.931 936.802 487.924C940.281 485.309 939.95 479.485 935.14 478.019C930.969 477.256 928.604 480.347 928.189 482.778Z" fill="#620F0E"/>
<path d="M874.723 469.398C873.66 475.793 880.721 480.109 885.993 476.32C890.536 473.044 890.112 465.362 883.732 463.357C878.403 462.284 875.275 466.235 874.723 469.398Z" fill="#620F0E"/>
<path d="M821.162 455.046C819.91 462.81 828.639 468.401 834.95 463.825C840.027 460.101 840.561 450.607 832.144 447.82C825.616 446.366 821.781 451.192 821.162 455.046Z" fill="#620F0E"/>
<path d="M767.949 439.84C766.463 449.138 776.519 455.734 783.978 450.402C790.414 445.801 789.783 434.694 780.819 431.524C773.148 429.705 768.69 435.309 767.949 439.84Z" fill="#620F0E"/>
<path d="M715.001 423.644C713.255 434.35 724.705 442.148 733.257 436.044C740.701 430.767 740.054 418.178 729.619 414.318C720.944 412.053 715.864 418.436 715.001 423.644Z" fill="#620F0E"/>
<path d="M662.621 406.652C660.69 418.491 673.341 427.32 682.773 420.802C690.902 415.176 690.117 400.895 678.778 396.438C669.195 393.811 663.592 400.823 662.676 406.667L662.621 406.652Z" fill="#620F0E"/>
<path d="M610.823 388.811C608.781 401.507 622.574 411.588 632.581 404.692C641.354 398.648 640.593 382.954 628.349 377.9C617.943 374.816 611.831 382.401 610.823 388.811Z" fill="#620F0E"/>
<path d="M559.992 370.227C557.75 384.111 572.083 395.046 582.929 387.665C592.262 381.298 591.535 364.372 578.498 358.75C567.544 355.283 561.049 363.416 559.922 370.268L559.992 370.227Z" fill="#620F0E"/>
<path d="M510.242 350.924C507.848 365.595 522.64 377.244 533.85 369.606C543.478 363.022 542.752 345.21 529.362 339.139C518.136 335.363 511.387 343.782 510.227 350.979L510.242 350.924Z" fill="#620F0E"/>
<path d="M461.805 330.91C459.307 345.966 474.117 358.212 485.467 350.493C495.235 343.828 494.602 325.449 481.15 318.948C469.225 314.689 462.946 324.003 461.805 330.91Z" fill="#620F0E"/>
<path d="M415.876 310.801C413.324 325.843 427.357 338.117 438.277 330.46C447.684 323.817 447.301 305.387 434.5 298.883C423.764 294.824 417.151 303.398 415.876 310.801Z" fill="#620F0E"/>
<path d="M372.623 290.639C370.034 305.376 383.045 317.494 393.339 309.965C402.23 303.48 402.05 285.399 390.176 278.966C380.201 274.934 373.908 283.416 372.623 290.639Z" fill="#620F0E"/>
<path d="M332.14 270.508C329.658 284.623 341.265 296.246 350.654 289.007C358.765 282.785 358.889 265.555 348.243 259.392C339.18 255.486 333.351 263.56 332.14 270.508Z" fill="#620F0E"/>
<path d="M294.285 250.494C291.982 263.061 301.136 273.909 309.592 268.607C317.768 263.467 318.642 246.083 308.743 240.002C300.783 236.391 295.503 243.962 294.27 250.549L294.285 250.494Z" fill="#620F0E"/>
<path d="M259.171 230.62C257.068 241.999 264.73 251.796 271.986 247.001C279.032 242.327 280.004 226.565 271.605 221.063C264.859 217.778 260.282 224.71 259.171 230.62Z" fill="#620F0E"/>
<path d="M226.453 210.855C224.495 221.031 230.83 229.823 237.011 225.508C243.038 221.329 244.052 207.176 237.083 202.293C231.426 199.358 227.471 205.512 226.453 210.855Z" fill="#620F0E"/>
<path d="M196.349 191.262C194.606 200.195 199.643 207.871 204.735 204.091C209.687 200.393 210.769 187.972 205.175 183.695C200.647 181.18 197.3 186.61 196.404 191.277L196.349 191.262Z" fill="#620F0E"/>
<path d="M168.751 171.805C167.285 179.039 170.71 185.455 174.671 183.028C179.036 180.414 180.459 169.148 175.814 165.302C172.042 163.05 169.505 168.105 168.751 171.805Z" fill="#620F0E"/>
<path d="M143.737 152.628C142.531 158.454 145.019 163.732 148.03 161.76C151.266 159.612 152.517 150.31 149.188 147.29C146.516 145.569 144.429 149.385 143.737 152.628Z" fill="#620F0E"/>
<path d="M121.255 133.716C120.304 138.369 121.884 142.398 124.101 140.746C126.457 139.012 127.547 131.855 125.218 129.517C123.384 128.197 121.81 131.205 121.31 133.731L121.255 133.716Z" fill="#620F0E"/>
<path d="M101.357 115.084C100.769 117.942 101.409 121.069 102.878 120.221C104.431 119.278 105.464 113.879 103.928 112.108C102.752 111.201 101.72 113.289 101.357 115.084Z" fill="#620F0E"/>
<path d="M84.1825 96.8824C83.7647 98.6623 84.2265 100.028 84.856 99.6642C85.6401 99.1649 86.2176 96.1271 85.5124 95.2287C84.954 94.6652 84.3786 95.9299 84.1678 96.9376L84.1825 96.8824Z" fill="#620F0E"/>
<path d="M69.5657 79.7239L69.8494 79.3269L69.8356 78.4956L69.5372 78.9477L69.5657 79.7239Z" fill="#620F0E"/>
<path d="M966.862 547.175C966.173 551.07 970.536 553.54 973.776 551.156C976.652 549.03 976.381 544.523 972.355 543.444C969.081 542.863 967.129 545.296 966.862 547.175Z" fill="#620F0E"/>
<path d="M913.49 534.767C912.583 540.14 918.81 543.818 923.243 540.513C926.792 537.858 927.219 531.41 921.251 529.633C916.363 528.678 913.865 532.266 913.45 534.697L913.49 534.767Z" fill="#620F0E"/>
<path d="M860.079 521.403C859.008 528.269 866.727 532.998 872.433 528.911C877.326 525.433 876.799 517.251 869.882 515.043C864.002 513.822 860.635 518.004 860.079 521.403Z" fill="#620F0E"/>
<path d="M806.504 507.106C805.199 515.506 814.712 521.484 821.747 516.629C827.774 512.45 827.058 502.326 818.49 499.439C811.3 497.809 807.141 502.961 806.504 507.106Z" fill="#620F0E"/>
<path d="M753.249 491.832C751.751 501.835 762.837 509.003 770.981 503.322C777.891 498.493 777.122 486.581 767.235 483.104C758.846 481.093 754.009 487.01 753.305 491.846L753.249 491.832Z" fill="#620F0E"/>
<path d="M700.468 475.677C698.81 486.938 711.288 495.307 720.426 489.006C728.26 483.597 727.283 470.033 716.091 465.911C706.644 463.438 701.295 470.164 700.468 475.677Z" fill="#620F0E"/>
<path d="M648.032 458.673C646.199 471.247 660.056 480.872 670.132 473.936C678.975 467.851 677.952 452.915 665.264 447.978C654.868 445.074 648.926 452.468 648.046 458.618L648.032 458.673Z" fill="#620F0E"/>
<path d="M596.344 440.86C594.422 454.653 609.34 465.39 620.256 457.968C629.589 451.601 628.402 434.848 615.03 429.373C603.741 426.052 597.331 434.089 596.414 440.82L596.344 440.86Z" fill="#620F0E"/>
<path d="M545.308 422.161C543.241 437.156 559.247 449.13 570.947 441.21C580.994 434.383 579.666 416.173 565.308 409.961C553.211 406.128 546.332 414.809 545.308 422.161Z" fill="#620F0E"/>
<path d="M495.572 402.805C493.434 418.727 509.979 431.555 522.003 423.308C532.359 416.21 530.981 396.863 516.176 390.117C503.696 385.945 496.589 395.037 495.572 402.805Z" fill="#620F0E"/>
<path d="M447.231 382.874C445.03 399.252 461.648 412.691 473.757 404.348C484.128 397.195 482.802 377.211 467.975 370.105C455.458 365.628 448.307 374.886 447.231 382.874Z" fill="#620F0E"/>
<path d="M401.427 362.738C399.212 379.171 415.079 392.764 426.772 384.428C436.853 377.256 435.696 357.081 421.439 349.832C409.479 345.268 402.533 354.64 401.497 362.698L401.427 362.738Z" fill="#620F0E"/>
<path d="M358.505 342.665C356.338 358.697 370.907 372.06 381.835 363.932C391.22 356.929 390.29 337.229 377.111 330.15C366.063 325.712 359.607 334.801 358.505 342.665Z" fill="#620F0E"/>
<path d="M318.337 322.68C316.237 338.02 329.265 350.734 339.093 342.962C347.558 336.303 346.918 317.509 335.188 310.759C325.272 306.506 319.35 315.147 318.337 322.68Z" fill="#620F0E"/>
<path d="M280.8 302.806C278.815 317.055 290.142 328.839 298.85 321.713C306.421 315.524 306.037 297.981 295.671 291.656C286.984 287.673 281.736 295.785 280.73 302.847L280.8 302.806Z" fill="#620F0E"/>
<path d="M245.796 282.965C244.093 295.279 252.75 305.993 260.33 300.871C267.686 295.925 267.96 278.794 258.712 272.71C251.294 269.067 246.694 276.525 245.796 282.965Z" fill="#620F0E"/>
<path d="M213.353 263.273C211.765 274.494 218.945 284.104 225.3 279.363C231.431 274.797 231.868 259.484 224.256 254.134C218.036 250.871 214.114 257.565 213.283 263.313L213.353 263.273Z" fill="#620F0E"/>
<path d="M183.47 243.739C182.016 253.577 187.749 261.971 193.014 257.765C198.055 253.736 198.586 240.281 192.444 235.62C187.463 232.807 184.234 238.682 183.47 243.739Z" fill="#620F0E"/>
<path d="M156.022 224.383C154.835 232.342 158.803 239.377 162.893 236.689C167.388 233.814 168.3 221.584 163.178 217.314C159.255 214.963 156.608 219.988 155.967 224.369L156.022 224.383Z" fill="#620F0E"/>
<path d="M131.105 205.29C130.122 211.826 133.083 217.763 136.169 215.515C139.549 213.051 140.44 202.884 136.688 199.455C133.729 197.48 131.65 201.711 131.105 205.29Z" fill="#620F0E"/>
<path d="M108.772 186.479C107.964 191.701 109.937 196.25 112.198 194.432C114.669 192.493 115.385 184.526 112.728 181.863C110.608 180.29 109.121 183.853 108.757 186.534L108.772 186.479Z" fill="#620F0E"/>
<path d="M89.0265 167.943C88.4814 171.521 89.5223 174.697 90.9507 173.779C92.6588 172.7 93.4129 166.576 91.6607 164.51C90.3487 163.449 89.3527 165.843 89.0412 167.888L89.0265 167.943Z" fill="#620F0E"/>
<path d="M71.8507 149.744C71.4801 152.01 72 154.041 72.8688 153.446C73.8776 152.77 74.4157 148.776 73.4535 147.513C72.7847 146.92 72.1394 148.225 71.9058 149.759L71.8507 149.744Z" fill="#620F0E"/>
<path d="M57.3737 133.39L57.9411 132.596L57.8437 130.974L57.3314 131.783L57.3737 133.39Z" fill="#620F0E"/>
<path d="M952.22 597.408C951.442 601.634 956.313 604.417 959.972 601.791C963.113 599.558 962.865 594.526 958.397 593.329C954.723 592.699 952.546 595.308 952.22 597.408Z" fill="#620F0E"/>
<path d="M899.29 585.116C898.323 590.71 904.866 594.532 909.674 591.15C913.823 588.242 913.353 581.612 907.55 579.88C902.608 578.91 899.778 582.409 899.29 585.116Z" fill="#620F0E"/>
<path d="M846.059 571.74C844.928 578.827 853.17 583.814 859.266 579.595C864.479 576.025 863.861 567.524 856.447 565.183C850.181 563.858 846.589 568.217 846.074 571.685L846.059 571.74Z" fill="#620F0E"/>
<path d="M792.829 557.479C791.52 566.115 801.57 572.296 808.87 567.335C815.162 563.049 814.339 552.66 805.316 549.71C797.74 547.976 793.441 553.209 792.829 557.479Z" fill="#620F0E"/>
<path d="M739.725 542.304C738.279 552.558 750.052 560.029 758.516 554.256C765.816 549.295 764.79 537.019 754.311 533.324C745.426 531.18 740.419 537.287 739.725 542.304Z" fill="#620F0E"/>
<path d="M687.054 526.178C685.41 538.271 700.264 547.04 709.341 539.422C715.903 533.908 715.503 520.617 703.387 516.189C693.389 513.569 687.76 520.455 687.054 526.178Z" fill="#620F0E"/>
<path d="M634.839 509.233C633.156 522.794 649.594 532.933 659.654 524.514C666.904 518.416 666.312 503.418 652.866 498.219C641.753 495.123 635.611 502.819 634.824 509.288L634.839 509.233Z" fill="#620F0E"/>
<path d="M583.152 491.42C581.346 506.544 599.368 518.053 610.3 508.804C618.943 501.483 616.546 485.055 602.857 479.437C590.645 475.81 584.006 484.259 583.152 491.42Z" fill="#620F0E"/>
<path d="M532.557 472.84C530.717 489.196 549.936 501.973 561.462 492.054C569.81 484.95 568.993 466.818 553.396 460.155C540.431 456.031 533.394 465.083 532.557 472.84Z" fill="#620F0E"/>
<path d="M482.82 453.483C480.99 470.906 501.131 484.876 513.191 474.509C521.947 466.983 520.999 447.574 504.598 440.164C491.045 435.586 483.68 445.2 482.82 453.483Z" fill="#620F0E"/>
<path d="M434.589 433.581C432.787 451.781 453.233 466.6 465.436 455.918C474.252 448.17 473.235 427.915 456.607 420.03C442.053 414.771 435.375 425.574 434.574 433.637L434.589 433.581Z" fill="#620F0E"/>
<path d="M389.268 413.635C387.481 431.779 406.9 446.678 418.493 436.068C426.948 428.343 426.016 407.992 410.179 400.024C396.401 394.736 390.054 405.628 389.253 413.69L389.268 413.635Z" fill="#620F0E"/>
<path d="M346.786 393.681C345.155 410.802 361.246 425.105 372.457 416.581C382.181 409.195 380.444 388.097 366.125 380.417C354.128 375.547 347.62 385.273 346.786 393.681Z" fill="#620F0E"/>
<path d="M307.155 373.897C305.624 389.982 319.859 403.492 329.87 395.473C338.534 388.513 337.053 368.666 324.389 361.429C313.731 356.859 307.926 365.945 307.155 373.897Z" fill="#620F0E"/>
<path d="M270.045 354.198C268.644 369.135 281.011 381.671 289.752 374.2C297.342 367.72 296.142 349.249 285.119 342.511C275.909 338.27 270.778 346.827 270.1 354.213L270.045 354.198Z" fill="#620F0E"/>
<path d="M235.358 334.497C234.102 348.231 244.575 359.669 252.103 352.759C258.602 346.815 257.695 329.9 248.282 323.771C240.396 319.885 235.998 327.693 235.358 334.497Z" fill="#620F0E"/>
<path d="M203.271 315.021C202.201 326.736 210.065 336.883 216.409 331.962C222.583 327.231 222.246 311.06 214.141 305.341C207.62 301.879 203.845 308.908 203.271 315.021Z" fill="#620F0E"/>
<path d="M173.648 295.616C172.672 305.878 178.993 314.725 184.177 310.38C189.192 306.226 189.084 292.067 182.491 287.108C177.208 284.096 174.126 290.305 173.648 295.616Z" fill="#620F0E"/>
<path d="M146.446 276.445C145.649 285.159 150.496 292.665 154.561 288.966C158.527 285.417 158.508 273.351 153.371 269.137C149.313 266.631 146.842 271.881 146.446 276.445Z" fill="#620F0E"/>
<path d="M121.736 257.465C121.091 264.505 124.354 270.641 127.468 268.283C130.808 265.749 131.226 254.924 127.132 251.226C124.023 249.151 122.119 253.607 121.736 257.465Z" fill="#620F0E"/>
<path d="M99.5541 238.751C98.9882 244.394 101.344 249.281 103.579 247.338C106.024 245.274 106.447 236.637 103.504 233.72C101.287 232.062 99.841 235.695 99.5541 238.751Z" fill="#620F0E"/>
<path d="M79.9584 220.317C79.6005 224.301 80.8433 227.826 82.3564 226.813C84.0941 225.623 84.5843 218.719 82.5859 216.469C81.1232 215.309 80.1635 218.007 79.9584 220.317Z" fill="#620F0E"/>
<path d="M62.9742 202.288C62.71 204.819 63.4063 207.074 64.2495 206.354C65.2474 205.499 65.5689 201.21 64.5111 199.862C63.7212 199.059 63.1635 200.92 63.0294 202.303L62.9742 202.288Z" fill="#620F0E"/>
<path d="M48.5051 184.578C48.4153 185.796 48.6606 186.866 48.9847 186.539C49.3935 186.117 49.5946 184.042 49.1356 183.328C48.8086 183.004 48.5869 183.832 48.5199 184.523L48.5051 184.578Z" fill="#620F0E"/>
<path d="M937.86 645.704C937.082 649.93 942.229 652.787 946.054 650.205C949.375 647.962 949.086 642.859 944.398 641.603C940.503 640.914 938.241 643.619 937.86 645.704Z" fill="#620F0E"/>
<path d="M885.275 633.446C884.309 639.04 891.348 642.995 896.252 639.698C900.637 636.794 900.17 629.929 893.981 628.093C888.748 627.105 885.739 630.614 885.22 633.431L885.275 633.446Z" fill="#620F0E"/>
<path d="M832.582 620.272C831.418 627.705 841.071 632.716 847.095 627.886C851.477 624.33 851.295 616.182 843.386 613.708C836.829 612.365 833.127 616.694 832.582 620.272Z" fill="#620F0E"/>
<path d="M779.863 606.089C778.576 615.085 790.189 621.389 797.365 615.567C803.109 610.899 801.83 601.333 792.696 598.353C784.844 596.545 780.475 601.819 779.863 606.089Z" fill="#620F0E"/>
<path d="M727.256 591.046C725.901 601.62 739.403 609.258 747.662 602.485C753.575 597.625 753.093 585.967 742.117 582.14C732.956 579.922 727.91 585.959 727.256 591.046Z" fill="#620F0E"/>
<path d="M675.066 575.111C673.642 587.263 688.979 596.22 698.166 588.632C704.838 583.148 704.177 569.727 691.69 565.14C681.36 562.431 675.716 569.373 675.051 575.166L675.066 575.111Z" fill="#620F0E"/>
<path d="M623.182 558.252C621.705 571.927 638.901 582.329 649.071 573.939C656.446 567.816 655.552 552.619 641.569 547.217C630.015 544.003 623.859 551.753 623.167 558.307L623.182 558.252Z" fill="#620F0E"/>
<path d="M571.88 540.545C570.446 555.828 589.376 567.699 600.419 558.479C609.256 551.092 606.407 534.366 592.016 528.5C579.322 524.685 572.584 533.284 571.935 540.56L571.88 540.545Z" fill="#620F0E"/>
<path d="M521.437 522.063C520.004 538.884 540.418 552.276 552.183 542.126C560.701 534.831 559.41 516.039 542.905 509.016C529.237 504.644 522.112 514.027 521.437 522.063Z" fill="#620F0E"/>
<path d="M472.016 502.851C470.644 520.988 492.297 535.717 504.611 525.064C513.607 517.306 512.024 496.958 494.508 489.072C480.047 484.133 472.674 494.218 472.001 502.906L472.016 502.851Z" fill="#620F0E"/>
<path d="M424.076 482.968C422.839 502.147 445.028 517.965 457.599 506.79C466.699 498.646 465.01 477.146 447.022 468.602C432.207 463.213 424.716 473.74 424.091 482.913L424.076 482.968Z" fill="#620F0E"/>
<path d="M379.236 463.211C378.046 482.875 398.907 498.574 411.122 487.185C420.719 478.287 417.048 456.907 400.949 448.81C386.896 443.448 379.821 453.967 379.291 463.226L379.236 463.211Z" fill="#620F0E"/>
<path d="M337.497 443.572C336.43 462.56 355.375 477.686 366.475 466.708C375.166 458.1 371.814 437.515 357.179 429.691C344.439 424.504 337.994 434.66 337.497 443.572Z" fill="#620F0E"/>
<path d="M298.554 424.092C297.677 440.825 312.926 454.961 322.901 446.638C331.569 439.442 329.173 418.817 315.796 411.154C304.615 406.325 298.998 415.816 298.554 424.092Z" fill="#620F0E"/>
<path d="M261.979 404.595C261.236 419.945 274.372 432.924 282.977 425.298C290.431 418.663 288.368 399.665 276.822 392.669C267.2 388.199 262.371 396.956 261.979 404.595Z" fill="#620F0E"/>
<path d="M227.91 385.238C227.316 399.15 238.312 410.846 245.548 403.917C251.827 397.914 250.123 380.667 240.338 374.38C232.302 370.394 228.22 378.345 227.91 385.238Z" fill="#620F0E"/>
<path d="M196.14 365.906C195.607 377.823 203.993 388.229 210.157 383.318C216.111 378.529 215.06 361.93 206.584 356.052C199.857 352.476 196.438 359.719 196.181 365.976L196.14 365.906Z" fill="#620F0E"/>
<path d="M166.82 346.699C166.365 357.219 173.138 366.365 178.102 361.96C182.911 357.691 182.02 343.145 175.235 338.017C169.802 334.905 167.036 341.259 166.82 346.699Z" fill="#620F0E"/>
<path d="M139.919 327.725C139.574 336.737 144.817 344.527 148.732 340.728C152.562 337.025 151.9 324.491 146.517 320.093C142.253 317.472 140.068 322.976 139.864 327.71L139.919 327.725Z" fill="#620F0E"/>
<path d="M115.564 308.963C115.305 316.106 118.829 322.371 121.778 319.969C124.952 317.39 124.763 306.402 120.574 302.62C117.218 300.361 115.723 305.281 115.564 308.963Z" fill="#620F0E"/>
<path d="M93.5739 290.417C93.3389 296.148 95.9005 301.15 98.0106 299.232C100.345 297.138 100.231 288.299 97.1519 285.227C94.8806 283.554 93.6548 287.246 93.5186 290.402L93.5739 290.417Z" fill="#620F0E"/>
<path d="M74.2096 272.223C74.0536 276.556 75.7081 280.31 77.104 278.851C78.6694 277.201 78.6296 270.51 76.6311 268.26C75.1281 267.03 74.3044 269.883 74.2096 272.223Z" fill="#620F0E"/>
<path d="M57.3608 254.348C57.2729 257.103 58.0755 259.624 58.9188 258.904C59.9167 258.048 59.9851 253.159 58.8062 251.602C57.9059 250.769 57.4693 252.84 57.3608 254.348Z" fill="#620F0E"/>
<path d="M43.0283 236.791C42.9642 238.133 43.2862 239.579 43.695 239.157C44.1186 238.679 44.2025 236.159 43.7032 235.375C43.2954 234.911 43.1102 236.044 43.0835 236.805L43.0283 236.791Z" fill="#620F0E"/>
<path d="M975.514 703.09C974.956 705.837 978.319 707.625 980.786 705.922C982.804 704.57 983.08 701.333 979.825 700.461C977.269 700.072 975.759 701.737 975.514 703.09Z" fill="#620F0E"/>
<path d="M923.811 691.957C923.033 696.182 928.18 699.039 932.115 696.488C935.546 694.274 935.284 689.296 930.5 687.955C926.55 687.251 924.248 689.886 923.826 691.902L923.811 691.957Z" fill="#620F0E"/>
<path d="M871.943 679.892C870.947 685.596 877.946 689.481 883.045 686.118C887.485 683.228 887.014 676.599 880.715 674.734C875.427 673.731 872.392 677.115 871.943 679.892Z" fill="#620F0E"/>
<path d="M819.747 666.849C818.598 674.227 828.457 679.352 834.591 674.551C839.463 670.713 838.28 662.77 830.742 660.454C824.034 659.011 820.277 663.326 819.747 666.849Z" fill="#620F0E"/>
<path d="M767.8 652.874C766.597 661.774 778.321 668.108 785.467 662.397C791.182 657.838 789.612 648.254 780.643 645.319C772.737 643.496 768.397 648.659 767.8 652.874Z" fill="#620F0E"/>
<path d="M715.925 637.966C714.669 648.39 728.367 655.962 736.511 649.395C742.45 644.66 741.813 633.138 730.657 629.321C721.456 627.033 716.479 633.031 715.87 637.952L715.925 637.966Z" fill="#620F0E"/>
<path d="M664.176 622.151C662.963 634.182 678.63 643.228 687.842 635.764C695.173 629.806 692.831 616.704 680.866 612.375C670.331 609.552 664.757 616.453 664.176 622.151Z" fill="#620F0E"/>
<path d="M612.994 605.54C611.838 619.123 629.379 629.558 639.395 621.304C646.74 615.291 645.526 600.186 631.267 594.71C619.563 591.396 613.491 599.051 612.939 605.525L612.994 605.54Z" fill="#620F0E"/>
<path d="M562.395 588.08C561.336 603.286 580.542 615.231 591.445 606.092C600.072 598.826 596.848 582.177 582.332 576.336C569.472 572.477 562.904 580.886 562.395 588.08Z" fill="#620F0E"/>
<path d="M512.433 569.784C511.442 586.723 532.518 600.292 544.144 590.223C552.606 582.913 551.256 564.342 533.858 556.902C519.102 552.179 512.906 562.284 512.489 569.799L512.433 569.784Z" fill="#620F0E"/>
<path d="M463.399 550.676C462.575 569.197 485.176 584.357 497.479 573.524C506.394 565.626 504.756 545.263 486.017 536.872C471.073 531.745 463.811 541.859 463.399 550.676Z" fill="#620F0E"/>
<path d="M415.76 530.994C415.099 551.332 438.402 567.626 451.342 555.959C460.556 547.608 458.007 525.347 439.03 516.3C422.605 510.303 416.006 522.133 415.76 530.994Z" fill="#620F0E"/>
<path d="M371.401 511.423C370.932 531.93 393.274 548.5 405.593 536.725C415.223 527.481 410.626 505.143 393.538 496.544C378.647 490.781 371.619 501.786 371.457 511.438L371.401 511.423Z" fill="#620F0E"/>
<path d="M330.792 492.205C330.507 511.579 350.386 527.193 361.17 516.071C369.685 507.238 365.781 486.505 350.213 478.195C337.046 472.834 330.917 483.134 330.792 492.205Z" fill="#620F0E"/>
<path d="M292.537 473.027C292.432 489.966 308.313 504.39 317.942 496.033C326.265 488.804 323.071 467.847 309.308 460.08C297.881 455.067 292.594 464.647 292.537 473.027Z" fill="#620F0E"/>
<path d="M256.689 453.904C256.678 469.39 270.28 482.613 278.485 474.938C285.593 468.27 282.688 449.105 270.951 441.94C261.164 437.426 256.75 446.175 256.745 453.919L256.689 453.904Z" fill="#620F0E"/>
<path d="M223.088 434.788C223.14 448.932 234.618 460.817 241.468 453.784C247.417 447.692 244.885 430.224 234.964 423.782C226.762 419.751 223.081 427.751 223.102 434.733L223.088 434.788Z" fill="#620F0E"/>
<path d="M191.879 415.786C192 428.352 201.463 438.928 207.055 432.622C211.884 427.177 209.776 411.654 201.587 406.031C194.805 402.44 191.831 409.565 191.879 415.786Z" fill="#620F0E"/>
<path d="M162.956 396.861C163.083 407.419 170.131 416.638 174.804 412.215C179.308 407.983 177.726 393.37 170.776 388.197C165.287 385.071 162.951 391.362 163.011 396.876L162.956 396.861Z" fill="#620F0E"/>
<path d="M136.411 378.102C136.562 387.247 142.122 395.181 145.746 391.363C149.286 387.641 147.962 374.93 142.468 370.502C138.149 367.867 136.325 373.349 136.411 378.102Z" fill="#620F0E"/>
<path d="M112.398 359.609C112.511 366.911 116.336 373.375 119.065 370.914C122.018 368.276 121.223 357.126 116.938 353.258C113.733 351.099 112.326 355.688 112.398 359.609Z" fill="#620F0E"/>
<path d="M90.75 341.334C90.8716 347.278 93.6096 352.505 95.5837 350.433C97.7126 348.225 97.0761 339.127 93.9971 336.055C91.6854 334.313 90.7355 338.078 90.75 341.334Z" fill="#620F0E"/>
<path d="M71.617 323.377C71.6668 327.825 73.5272 331.693 74.7724 330.135C76.1575 328.496 75.7464 321.646 73.6928 319.381C72.1897 318.151 71.5611 320.938 71.617 323.377Z" fill="#620F0E"/>
<path d="M55.0005 305.741C55.0633 308.596 55.9762 311.146 56.7642 310.411C57.6518 309.526 57.4996 304.578 56.2251 302.936C55.2845 302.033 54.9987 304.203 55.0005 305.741Z" fill="#620F0E"/>
<path d="M40.8842 288.48C40.886 290.017 41.3479 291.383 41.6867 291.001C42.1103 290.523 42.0179 287.779 41.423 286.91C41.0557 286.516 40.9443 287.373 40.8773 288.064C40.8477 288.174 40.8586 288.355 40.8842 288.48Z" fill="#620F0E"/>
<path d="M29.4461 271.816L29.4756 271.706L29.4096 271.511L29.4352 271.636L29.4461 271.816Z" fill="#620F0E"/>
<path d="M960.865 747.171C960.296 749.738 963.634 751.401 966.056 749.862C968.044 748.621 968.346 745.51 965.131 744.708C962.52 744.303 961.12 745.998 960.865 747.171Z" fill="#620F0E"/>
<path d="M909.989 736.259C909.216 740.249 914.337 742.981 918.158 740.635C921.489 738.571 921.238 733.774 916.549 732.518C912.654 731.829 910.396 734.298 909.989 736.259Z" fill="#620F0E"/>
<path d="M859.02 724.373C858.053 729.967 865.608 733.765 870.449 730.037C874.253 727.095 873.59 721.183 867.663 719.476C862.444 718.433 859.494 721.722 859.02 724.373Z" fill="#620F0E"/>
<path d="M807.719 711.515C806.655 718.797 816.173 723.653 822.333 718.978C827.09 715.345 825.889 707.692 818.516 705.421C811.918 704.008 808.26 708.172 807.775 711.53L807.719 711.515Z" fill="#620F0E"/>
<path d="M756.655 697.774C755.556 706.289 767.103 712.398 774.051 706.988C779.132 703.029 778.956 693.758 769.175 690.546C761.378 688.753 757.153 693.71 756.6 697.76L756.655 697.774Z" fill="#620F0E"/>
<path d="M705.648 683.16C704.566 693.157 718.072 700.56 725.962 694.279C732.336 689.247 730.521 678.592 720.026 674.952C710.991 672.708 706.158 678.39 705.648 683.16Z" fill="#620F0E"/>
<path d="M654.782 667.58C653.756 679.129 669.262 687.895 678.136 680.814C685.213 675.143 682.682 662.522 670.938 658.252C660.568 655.473 655.263 662.033 654.797 667.525L654.782 667.58Z" fill="#620F0E"/>
<path d="M604.468 651.26C603.606 664.627 620.67 674.638 630.571 666.59C637.608 660.849 636.12 646.321 622.123 640.974C610.583 637.705 604.836 645.033 604.413 651.246L604.468 651.26Z" fill="#620F0E"/>
<path d="M554.571 634.048C553.895 648.706 573.105 660.416 583.529 651.74C591.144 645.385 589.273 628.98 573.864 622.723C561.832 619.085 554.945 625.812 554.571 634.048Z" fill="#620F0E"/>
<path d="M505.587 616.075C505.134 632.33 525.953 645.535 536.975 635.955C545.042 629.012 543.239 611.029 526.033 603.758C511.497 599.095 505.765 608.792 505.587 616.075Z" fill="#620F0E"/>
<path d="M457.406 597.313C457.222 615.65 479.265 630.247 491.163 619.601C500.557 611.24 496.148 591.731 478.949 583.99C464.226 578.921 457.508 588.768 457.406 597.313Z" fill="#620F0E"/>
<path d="M410.455 577.932C410.552 597.645 433.803 613.689 446.044 602.425C455.627 593.583 450.337 572.064 432.705 563.733C416.445 557.781 410.406 569.287 410.469 577.876L410.455 577.932Z" fill="#620F0E"/>
<path d="M366.91 558.637C367.254 578.535 389.614 594.813 401.094 583.523C410.165 574.602 404.853 552.723 387.847 544.264C373.121 538.545 366.708 549.242 366.91 558.637Z" fill="#620F0E"/>
<path d="M326.902 539.817C327.417 558.637 347.354 574.03 357.329 563.282C364.482 555.562 361.299 534.786 345.193 526.273C331.45 520.639 326.68 531.599 326.888 539.872L326.902 539.817Z" fill="#620F0E"/>
<path d="M289.444 520.973C290.093 538.41 307.31 552.483 315.775 542.513C321.824 535.384 318.849 516.26 305.03 508.478C293.754 503.564 289.138 512.851 289.444 520.973Z" fill="#620F0E"/>
<path d="M254.16 502.177C254.848 517.26 268.539 530.151 276.019 522.755C282.541 516.285 278.922 497.579 267.251 490.609C257.107 485.881 253.848 495.177 254.16 502.177Z" fill="#620F0E"/>
<path d="M221.175 483.408C221.927 497.148 233.464 508.812 239.659 502.017C245.037 496.068 241.791 479.059 232.006 472.771C223.969 468.785 220.819 476.573 221.175 483.408Z" fill="#620F0E"/>
<path d="M190.474 464.717C191.209 476.975 200.787 487.345 205.738 481.223C210.052 475.935 207.26 460.761 199.236 455.182C192.619 451.635 190.146 458.658 190.474 464.717Z" fill="#620F0E"/>
<path d="M162.003 446.091C162.674 456.38 169.837 465.394 174.05 461.143C178.124 456.973 175.871 442.653 168.962 437.55C163.584 434.454 161.678 440.683 162.017 446.036L162.003 446.091Z" fill="#620F0E"/>
<path d="M135.952 427.699C136.577 436.616 142.252 444.345 145.486 440.659C148.65 437.014 146.767 424.626 141.273 420.198C137.064 417.592 135.615 422.997 135.952 427.699Z" fill="#620F0E"/>
<path d="M112.28 409.472C112.819 416.948 117.13 423.364 119.455 420.204C121.75 417.153 120.207 406.807 116.209 403.194C113.059 401.049 112.012 405.617 112.28 409.472Z" fill="#620F0E"/>
<path d="M91.0133 391.539C91.4147 397.322 94.3073 402.413 96.0164 400.447C97.8951 398.29 96.7838 389.42 93.69 386.404C91.4335 384.676 90.7338 388.39 90.9985 391.594L91.0133 391.539Z" fill="#620F0E"/>
<path d="M72.2228 373.851C72.5524 378.137 74.4423 381.895 75.5329 380.472C76.7229 378.899 75.9769 372.196 73.9233 369.931C72.4202 368.701 72.027 371.493 72.2228 373.851Z" fill="#620F0E"/>
<path d="M55.8225 356.509C56.0252 359.282 57.0632 361.807 57.7262 361.098C58.5035 360.183 58.0163 355.382 56.7969 353.754C55.9519 352.937 55.799 354.61 55.794 355.732C55.79 355.968 55.8265 356.273 55.8373 356.453L55.8225 356.509Z" fill="#620F0E"/>
<path d="M41.9789 339.555C42.095 340.887 42.4721 342.348 42.7815 342.076C43.1755 341.709 42.9728 338.935 42.3227 338.051C41.9957 337.727 41.9435 338.363 41.9248 338.654C41.906 338.945 41.9424 339.25 41.9237 339.54L41.9789 339.555Z" fill="#620F0E"/>
<path d="M30.7018 323.173L30.7313 323.063L30.6653 322.868L30.691 322.993L30.7018 323.173Z" fill="#620F0E"/>
<path d="M946.197 789.117C945.672 791.519 948.83 793.192 951.292 791.724C953.21 790.523 953.538 787.537 950.434 786.764C948.003 786.349 946.467 787.889 946.197 789.117Z" fill="#620F0E"/>
<path d="M896.509 778.405C895.695 782.325 901.055 784.826 904.645 782.24C907.491 780.224 906.951 776.059 902.759 774.936C899.085 774.306 896.886 776.555 896.509 778.405Z" fill="#620F0E"/>
<path d="M846.602 766.747C845.683 771.94 852.951 775.484 857.579 772.113C860.904 769.634 860.833 763.939 854.906 762.233C849.908 761.248 847.086 764.276 846.657 766.762L846.602 766.747Z" fill="#620F0E"/>
<path d="M796.349 754.169C795.363 760.94 804.594 765.542 810.415 761.248C814.608 758.175 814.316 750.883 806.667 748.538C800.29 747.184 796.831 751.046 796.349 754.169Z" fill="#620F0E"/>
<path d="M746.39 740.722C745.409 748.795 756.353 754.507 763.102 749.398C768.433 745.387 766.968 736.954 758.261 734.148C750.795 732.443 746.813 736.934 746.39 740.722Z" fill="#620F0E"/>
<path d="M696.375 726.375C695.51 735.78 708.579 742.829 716.116 736.986C722.15 732.336 720.051 722.078 710.149 718.656C701.389 716.486 696.825 721.826 696.389 726.32L696.375 726.375Z" fill="#620F0E"/>
<path d="M646.692 711.231C645.929 722.023 660.846 730.336 669.156 723.813C675.839 718.509 673.212 706.69 661.95 702.608C652.021 699.948 647.014 706.056 646.677 711.286L646.692 711.231Z" fill="#620F0E"/>
<path d="M597.426 695.193C596.873 708.288 614.887 717.844 623.527 708.985C629.081 703.261 627.051 690.538 614.072 685.582C603.029 682.446 597.65 689.282 597.426 695.193Z" fill="#620F0E"/>
<path d="M548.728 678.361C548.453 693.067 568.355 703.957 577.482 694.165C583.379 687.823 580.876 673.554 566.677 667.858C554.494 664.12 548.839 671.769 548.673 678.346L548.728 678.361Z" fill="#620F0E"/>
<path d="M500.818 660.793C500.85 677 522.377 689.331 531.88 678.575C538.035 671.711 535.005 655.882 519.71 649.419C506.608 645.14 500.761 653.506 500.763 660.778L500.818 660.793Z" fill="#620F0E"/>
<path d="M453.861 642.536C454.3 660.094 477.079 673.706 486.885 662.263C493.188 654.847 489.71 637.598 473.445 630.343C459.645 625.581 453.69 634.568 453.861 642.536Z" fill="#620F0E"/>
<path d="M408.314 623.652C409.123 642.255 432.618 656.946 442.296 644.877C448.592 637.046 444.619 618.777 427.976 610.948C413.011 605.46 407.988 615.82 408.314 623.652Z" fill="#620F0E"/>
<path d="M365.647 604.828C366.674 622.84 387.411 637.678 397.348 627.511C404.522 620.152 400.717 600.154 384.026 591.839C369.782 586.308 365.186 596.842 365.647 604.828Z" fill="#620F0E"/>
<path d="M326.107 586.252C327.381 603.561 346.202 617.827 354.858 608.027C361.79 600.248 356.431 581.194 342.289 573.739C330.101 568.699 325.469 578.041 326.052 586.238L326.107 586.252Z" fill="#620F0E"/>
<path d="M289.101 567.704C290.491 583.921 307.028 597.22 314.455 588.036C320.313 580.738 315.39 562.924 303.013 555.942C292.329 551.247 288.456 559.964 289.116 567.649L289.101 567.704Z" fill="#620F0E"/>
<path d="M254.324 549.223C255.72 563.431 269.047 575.693 275.618 568.822C281.441 562.755 277.21 545.009 265.991 538.337C256.796 534.041 253.626 542.119 254.309 549.278L254.324 549.223Z" fill="#620F0E"/>
<path d="M221.958 530.794C223.333 543.755 234.616 554.819 240.042 548.469C244.79 542.883 240.947 526.778 231.519 520.704C223.854 516.877 221.333 524.301 221.972 530.739L221.958 530.794Z" fill="#620F0E"/>
<path d="M191.859 512.501C193.173 524.145 202.578 534.055 206.845 528.281C210.629 523.206 207.229 508.756 199.452 503.361C193.096 499.944 191.182 506.644 191.859 512.501Z" fill="#620F0E"/>
<path d="M163.936 494.259C165.086 504.086 172.186 512.669 175.815 508.616C179.288 504.699 176.443 491.048 169.89 486.159C164.773 483.192 163.372 489.083 163.95 494.204L163.936 494.259Z" fill="#620F0E"/>
<path d="M138.376 476.237C139.426 484.677 145.078 492.044 147.782 488.571C150.416 485.138 148.025 473.324 142.817 469.15C138.814 466.658 137.786 471.822 138.376 476.237Z" fill="#620F0E"/>
<path d="M115.142 458.366C116.039 465.169 119.967 471.246 122.111 468.983C124.424 466.529 122.524 455.969 118.361 452.311C115.321 450.196 114.679 454.576 115.142 458.366Z" fill="#620F0E"/>
<path d="M94.2988 440.836C95.0391 446.237 97.8953 451.023 99.3247 449.219C100.839 447.319 99.3482 438.76 96.4308 435.969C94.325 434.34 93.9198 437.838 94.2988 440.836Z" fill="#620F0E"/>
<path d="M75.7798 423.459C76.2828 427.319 78.2348 431.507 79.2446 429.945C80.2543 428.383 79.133 421.756 77.1198 419.562C75.7122 418.416 75.5583 420.976 75.7473 422.918C75.7729 423.044 75.769 423.279 75.835 423.474L75.7798 423.459Z" fill="#620F0E"/>
<path d="M59.8017 406.528C60.1591 409.166 61.2414 411.525 61.7242 410.827C62.3616 409.992 61.6498 405.367 60.4561 403.865C59.7469 403.202 59.6827 404.545 59.6856 405.196C59.6777 405.667 59.7397 406.097 59.8017 406.528Z" fill="#620F0E"/>
<path d="M46.1741 389.87C46.3198 391.091 46.7964 392.401 47.0358 392.17C47.3599 391.843 46.973 389.315 46.4185 388.516C46.3633 388.502 46.2018 388.222 46.1092 388.788C46.0757 389.134 46.1524 389.509 46.1741 389.87Z" fill="#620F0E"/>
<path d="M35.0732 373.711L35.1284 373.726L35.0624 373.531L35.0328 373.641L35.0732 373.711Z" fill="#620F0E"/>
<path d="M931.788 828.771C931.212 830.922 934.123 832.412 936.376 831.064C938.404 829.893 938.098 827.505 935.907 826.859C935.796 826.829 935.686 826.8 935.631 826.785C933.586 826.474 932.113 827.557 931.788 828.771Z" fill="#620F0E"/>
<path d="M883.384 818.341C882.633 821.805 887.567 824.132 890.847 821.819C893.399 820.019 892.977 816.3 889.17 815.28C886.118 814.758 883.832 816.451 883.439 818.356L883.384 818.341Z" fill="#620F0E"/>
<path d="M834.815 806.984C833.989 811.61 840.64 814.811 844.819 811.792C847.874 809.655 847.972 804.656 842.32 803.023C837.778 802.102 835.226 804.788 834.815 806.984Z" fill="#620F0E"/>
<path d="M785.777 794.73C784.887 800.699 793.541 805.028 798.813 801.238C802.627 798.477 802.322 791.892 795.281 789.709C789.415 788.433 786.185 791.884 785.777 794.73Z" fill="#620F0E"/>
<path d="M736.919 781.58C736.086 789.102 746.413 794.47 752.768 789.729C757.775 786.045 756.328 778.208 748.047 775.575C740.982 773.919 737.269 778.068 736.864 781.565L736.919 781.58Z" fill="#620F0E"/>
<path d="M688.339 767.618C687.655 776.125 699.805 782.633 706.694 777.443C712.265 773.201 710.396 764.069 700.975 760.835C692.837 758.773 688.656 763.564 688.339 767.618Z" fill="#620F0E"/>
<path d="M639.855 752.852C639.317 763.467 654.496 771.023 661.792 763.873C666.455 759.27 664.826 749.019 653.935 745.096C644.613 742.598 640.115 748.133 639.841 752.907L639.855 752.852Z" fill="#620F0E"/>
<path d="M591.954 737.238C591.697 749.23 608.615 758.02 616.382 749.992C621.373 744.826 619.227 733.195 607.156 728.601C596.831 725.657 592.085 731.894 591.954 737.238Z" fill="#620F0E"/>
<path d="M544.55 720.872C544.629 734.255 563.201 744.374 571.385 735.453C576.649 729.71 573.986 716.699 560.846 711.464C550.193 708.195 544.528 713.89 544.55 720.872Z" fill="#620F0E"/>
<path d="M498.1 703.813C498.56 718.421 518.389 729.587 526.751 720.004C532.132 713.819 528.964 699.609 514.948 693.666C502.99 689.752 497.905 697.258 498.1 703.813Z" fill="#620F0E"/>
<path d="M452.437 686.022C453.378 701.704 474.199 714.023 482.598 703.858C488.028 697.273 484.353 681.863 469.614 675.312C457.068 670.945 452.03 678.936 452.437 686.022Z" fill="#620F0E"/>
<path d="M408.265 667.741C409.636 684.248 430.885 697.391 439.002 686.737C444.27 679.871 440.151 663.692 425.185 656.666C413.235 652.282 407.51 659.084 408.21 667.726L408.265 667.741Z" fill="#620F0E"/>
<path d="M366.642 649.434C368.231 665.349 386.932 678.519 395.186 669.557C401.775 662.395 396.495 645.254 382.194 638.171C369.505 633.234 365.915 642.44 366.587 649.419L366.642 649.434Z" fill="#620F0E"/>
<path d="M327.665 631.187C329.467 646.745 346.759 659.656 354.082 650.858C359.383 644.534 355.255 627.287 341.524 620.061C330.505 615.512 326.805 623.803 327.665 631.187Z" fill="#620F0E"/>
<path d="M291.261 613.038C293.215 627.81 308.621 640.038 314.829 631.651C319.733 625.042 314.562 608.818 303.144 602.447C293.423 598.128 290.298 606.041 291.206 613.024L291.261 613.038Z" fill="#620F0E"/>
<path d="M257.212 594.928C259.222 608.828 272.731 620.193 277.92 612.301C282.014 606.067 277.103 590.858 267.215 584.957C258.763 580.978 256.297 588.416 257.212 594.928Z" fill="#620F0E"/>
<path d="M225.393 576.883C227.269 588.856 238.039 599.19 242.625 593.325C246.604 588.183 242.326 573.262 233.541 567.656C226.398 564.087 224.51 570.912 225.448 576.898L225.393 576.883Z" fill="#620F0E"/>
<path d="M195.897 558.989C197.694 569.935 206.75 579.161 210.332 573.735C213.432 569.008 209.585 555.562 202.356 550.551C196.411 547.362 195.047 553.559 195.967 558.949L195.897 558.989Z" fill="#620F0E"/>
<path d="M168.617 541.213C170.195 550.327 177.043 558.31 180.041 554.621C182.97 550.971 179.678 538.324 173.493 533.829C168.732 531.075 167.81 536.504 168.602 541.269L168.617 541.213Z" fill="#620F0E"/>
<path d="M143.606 523.576C145.078 531.538 150.544 538.5 152.733 535.185C154.892 531.98 152.073 520.878 147.152 516.958C143.41 514.596 142.831 519.407 143.55 523.561L143.606 523.576Z" fill="#620F0E"/>
<path d="M120.905 506.141C122.1 512.491 125.981 518.084 127.665 515.993C129.518 513.711 127.231 503.934 123.354 500.53C120.561 498.599 120.243 502.653 120.905 506.141Z" fill="#620F0E"/>
<path d="M100.498 488.967C101.493 494.081 104.312 498.562 105.422 496.849C106.63 494.985 104.837 487.115 102.015 484.408C100.156 482.963 100.038 485.829 100.242 487.716C100.264 488.077 100.366 488.577 100.428 489.007L100.498 488.967Z" fill="#620F0E"/>
<path d="M82.4967 472.085C83.1692 475.753 84.9715 478.955 85.6788 478.081C86.5556 477.015 85.2204 470.745 83.3028 468.635C81.9504 467.504 82.1935 470.348 82.2151 470.708C82.2624 471.194 82.3243 471.625 82.4415 472.07L82.4967 472.085Z" fill="#620F0E"/>
<path d="M66.7762 455.516C67.2478 457.948 68.2642 460.112 68.677 459.454C69.1193 458.686 68.2193 454.543 67.1615 453.195C66.6986 452.716 66.606 453.283 66.5685 453.864C66.5754 454.279 66.663 454.835 66.7762 455.516Z" fill="#620F0E"/>
<path d="M53.4611 439.236C53.6659 440.237 54.0618 441.408 54.246 441.161C54.445 440.86 53.9951 438.788 53.5765 438.144C53.5213 438.129 53.4002 437.92 53.3667 438.265C53.3331 438.611 53.4247 438.931 53.4611 439.236Z" fill="#620F0E"/>
<path d="M964.886 876.245L966.1 875.684L965.561 874.83L964.346 875.391L964.886 876.245Z" fill="#620F0E"/>
<path d="M917.791 866.227C917.362 867.826 919.601 868.958 921.39 868.019C922.984 867.145 922.82 865.328 921.07 864.8L920.849 864.74C919.15 864.462 917.998 865.454 917.846 866.241L917.791 866.227Z" fill="#620F0E"/>
<path d="M870.655 856.138C870.012 858.981 874.288 860.895 877.075 859.1C879.147 857.763 879.228 854.593 875.643 853.632C872.715 853.084 870.955 854.8 870.641 856.193L870.655 856.138Z" fill="#620F0E"/>
<path d="M823.314 845.051C822.566 849.167 828.6 852.025 832.439 849.388C835.186 847.523 835.261 843.05 830.201 841.635C826.045 840.817 823.707 843.146 823.355 845.121L823.314 845.051Z" fill="#620F0E"/>
<path d="M775.836 833.155C775.038 838.557 782.829 842.359 787.707 838.937C791.492 836.285 790.424 830.56 784.471 828.729C779.157 827.6 776.225 830.598 775.906 833.114L775.836 833.155Z" fill="#620F0E"/>
<path d="M728.508 820.474C727.797 827.319 738.121 832.036 743.409 827.304C746.826 824.259 745.996 817.651 738.472 815.281C732.07 813.802 728.795 817.418 728.453 820.459L728.508 820.474Z" fill="#620F0E"/>
<path d="M681.237 806.922C680.671 814.988 692.778 820.774 698.689 815.264C702.489 811.671 701.332 803.852 692.669 800.881C685.193 798.996 681.506 803.269 681.237 806.922Z" fill="#620F0E"/>
<path d="M634.312 792.515C634.029 801.958 647.863 808.798 654.301 802.423C658.47 798.338 656.781 789.195 646.908 785.663C638.469 783.401 634.439 788.292 634.312 792.515Z" fill="#620F0E"/>
<path d="M587.704 777.368C587.747 788.021 603.279 796.026 610.199 788.953C615.105 783.882 611.744 773.7 601.339 769.729C591.896 767.022 587.688 772.575 587.704 777.368Z" fill="#620F0E"/>
<path d="M541.926 761.552C542.365 773.375 559.224 782.386 566.321 774.651C571.415 769.099 567.423 757.742 556.264 753.274C546.053 750.124 541.752 756.243 541.926 761.552Z" fill="#620F0E"/>
<path d="M496.866 745.045C497.744 757.873 515.694 767.885 522.83 759.569C527.987 753.561 523.389 741.155 511.546 736.149C500.787 732.616 496.464 739.262 496.866 745.045Z" fill="#620F0E"/>
<path d="M452.814 727.86C454.107 741.568 472.832 752.439 479.81 743.607C484.367 737.852 480.646 724.381 467.488 718.549C456.346 714.677 452.17 721.658 452.814 727.86Z" fill="#620F0E"/>
<path d="M409.907 710.156C411.633 724.453 430.637 736.048 437.343 726.907C441.709 720.983 437.599 706.757 424.239 700.576C412.399 696.221 409.149 704.159 409.892 710.211L409.907 710.156Z" fill="#620F0E"/>
<path d="M369.398 692.326C371.481 706.836 389.694 718.516 395.668 709.238C399.593 703.195 395.222 688.84 382.487 682.531C371.258 678.103 368.449 686.16 369.343 692.311L369.398 692.326Z" fill="#620F0E"/>
<path d="M331.298 674.551C333.548 688.219 349.16 699.674 355.176 692.005C359.494 686.481 355.194 671.199 342.904 664.772C333.124 660.674 330.217 667.994 331.298 674.551Z" fill="#620F0E"/>
<path d="M295.663 656.843C298.086 670.085 312.239 681.031 317.255 673.566C320.877 668.211 316.65 653.54 305.643 647.398C296.816 643.495 294.508 650.563 295.663 656.843Z" fill="#620F0E"/>
<path d="M262.478 639.26C264.958 651.63 277.309 661.797 281.375 654.787C284.571 649.259 279.632 635.697 270.703 630.408C263.089 626.831 261.316 633.45 262.478 639.26Z" fill="#620F0E"/>
<path d="M231.427 621.657C233.739 632.445 243.722 641.742 247.37 636.512C250.606 631.939 246.053 618.482 238.021 613.374C231.566 610.107 230.271 616.263 231.427 621.657Z" fill="#620F0E"/>
<path d="M202.575 604.232C204.818 614.174 213.21 622.571 216.008 617.645C218.448 613.392 214.331 601.174 207.69 596.616C202.323 593.7 201.466 599.323 202.52 604.217L202.575 604.232Z" fill="#620F0E"/>
<path d="M175.938 586.925C177.888 595.31 184.427 602.679 186.826 599.242C189.011 596.162 185.869 584.501 179.794 580.036C175.199 577.327 175.023 582.837 175.938 586.925Z" fill="#620F0E"/>
<path d="M151.57 569.754C153.33 577.083 158.557 583.391 160.257 580.358C161.941 577.381 158.746 567.242 154.262 563.676C150.877 561.528 150.636 565.956 151.57 569.754Z" fill="#620F0E"/>
<path d="M129.442 552.828C130.895 558.656 134.564 563.719 135.912 561.774C137.361 559.679 134.726 550.756 131.232 547.691C128.835 546.044 128.835 549.354 129.19 551.341C129.252 551.772 129.394 552.342 129.456 552.772L129.442 552.828Z" fill="#620F0E"/>
<path d="M109.609 536.162C110.711 540.655 113.373 544.62 114.188 543.123C115.087 541.532 112.977 534.404 110.537 532.036C108.773 530.676 109.163 533.855 109.221 534.521C109.309 535.076 109.451 535.647 109.554 536.147L109.609 536.162Z" fill="#620F0E"/>
<path d="M91.9745 519.673C92.8204 522.915 94.4759 525.782 95.0434 524.988C95.7103 524.044 94.1978 518.436 92.4565 516.55C91.5966 515.788 91.5768 516.965 91.62 517.686C91.7037 518.477 91.883 519.353 91.9893 519.618L91.9745 519.673Z" fill="#620F0E"/>
<path d="M76.7318 503.53C77.2517 505.561 78.1913 507.35 78.4494 506.828C78.7371 506.196 77.7996 502.634 76.8629 501.496C76.7674 501.411 76.4955 501.102 76.4433 501.738C76.4206 502.264 76.6293 503.03 76.6913 503.46L76.7318 503.53Z" fill="#620F0E"/>
<path d="M64.2313 489.064L64.2432 488.358L63.741 486.922L63.7291 487.629L64.2313 489.064Z" fill="#620F0E"/>
<path d="M949.072 910.552L949.532 910.38L949.345 909.975L948.815 910.188L949.072 910.552Z" fill="#620F0E"/>
<path d="M903.763 901.37C903.438 902.583 905.294 903.376 906.623 902.609C907.687 901.948 907.486 900.712 906.232 900.317L906.067 900.273C904.713 900.028 903.925 900.763 903.763 901.37Z" fill="#620F0E"/>
<path d="M858.146 891.57C857.581 893.901 861.169 895.513 863.521 894.015C865.229 892.935 865.313 890.416 862.335 889.618C859.848 889.188 858.372 890.507 858.131 891.625L858.146 891.57Z" fill="#620F0E"/>
<path d="M812.405 880.911C811.765 884.405 816.919 886.791 820.335 884.632C822.997 882.863 822.45 879.169 818.382 878.02C814.793 877.295 812.723 879.282 812.39 880.967L812.405 880.911Z" fill="#620F0E"/>
<path d="M766.54 869.389C765.85 874.171 773.373 877.428 777.405 874.074C780.284 871.712 779.182 867.219 774.042 865.665C769.349 864.644 766.826 867.219 766.485 869.375L766.54 869.389Z" fill="#620F0E"/>
<path d="M720.882 857.097C720.312 862.974 729.371 867.116 734.011 863.039C736.95 860.456 736.158 854.805 729.613 852.756C723.997 851.428 721.161 854.511 720.868 857.152L720.882 857.097Z" fill="#620F0E"/>
<path d="M675.141 844.011C674.802 851.014 685.563 856.085 690.741 851.324C694.048 848.249 692.915 841.442 685.16 838.832C678.512 837.169 675.277 840.855 675.141 844.011Z" fill="#620F0E"/>
<path d="M629.842 830.159C629.733 838.288 642.126 844.329 647.717 838.91C651.307 835.438 649.654 827.486 640.855 824.36C633.353 822.35 629.916 826.573 629.827 830.214L629.842 830.159Z" fill="#620F0E"/>
<path d="M585.04 815.555C585.316 824.674 598.995 831.65 604.873 825.599C608.638 821.7 606.559 812.689 596.771 809.061C588.486 806.664 584.956 811.453 585.095 815.569L585.04 815.555Z" fill="#620F0E"/>
<path d="M540.706 800.305C541.393 810.539 556.399 818.522 562.4 811.793C566.282 807.454 563.668 797.353 553.031 793.143C544.018 790.373 540.41 795.673 540.706 800.305Z" fill="#620F0E"/>
<path d="M497.16 784.321C498.317 795.45 514.279 804.28 520.232 797.066C524.148 792.38 520.953 781.356 509.673 776.678C500.168 773.54 496.622 779.27 497.105 784.307L497.16 784.321Z" fill="#620F0E"/>
<path d="M454.76 767.816C456.35 779.534 472.785 789.022 478.536 781.459C482.276 776.548 478.578 764.975 467.111 759.892C457.429 756.53 454.06 762.485 454.815 767.831L454.76 767.816Z" fill="#620F0E"/>
<path d="M413.187 750.646C415.21 762.953 432.024 773.015 437.418 765.238C440.967 760.159 436.865 747.886 425.141 742.438C414.816 738.608 412.332 745.451 413.187 750.646Z" fill="#620F0E"/>
<path d="M373.928 733.444C376.338 745.855 392.415 756.016 397.174 748.186C400.281 742.988 395.974 730.601 384.79 725.122C375.488 721.447 372.832 727.83 373.969 733.514L373.928 733.444Z" fill="#620F0E"/>
<path d="M336.984 716.215C339.541 728.074 353.379 737.99 358.102 731.392C361.562 726.644 357.171 713.466 346.392 707.799C337.837 704.206 335.721 710.556 336.928 716.2L336.984 716.215Z" fill="#620F0E"/>
<path d="M302.378 699.08C305.093 710.568 317.677 720.088 321.581 713.685C324.43 709.009 320.045 696.247 310.425 690.89C302.767 687.478 301.111 693.656 302.378 699.08Z" fill="#620F0E"/>
<path d="M270.016 681.954C272.769 692.861 283.908 701.817 287.046 695.622C289.295 691.2 285.024 679.118 276.618 674.087C269.897 670.926 268.746 676.766 270.086 681.914L270.016 681.954Z" fill="#620F0E"/>
<path d="M239.814 664.935C242.396 674.495 251.483 682.723 254.318 678.103C256.824 674.045 252.218 662.11 244.98 657.569C239.253 654.675 238.496 660.147 239.814 664.935Z" fill="#620F0E"/>
<path d="M211.785 647.964C214.243 656.663 221.945 664.107 224.039 659.82C225.876 656.055 221.68 645.236 215.722 641.215C210.973 638.642 210.529 643.607 211.785 647.964Z" fill="#620F0E"/>
<path d="M185.941 631.228C188.103 638.606 194.047 645.106 195.871 642.047C197.611 639.085 193.809 628.784 188.759 625.125C185.083 622.958 184.931 627.055 185.762 630.352C185.813 630.603 185.89 630.978 185.997 631.243L185.941 631.228Z" fill="#620F0E"/>
<path d="M162.257 614.593C164.214 620.97 168.927 626.548 170.177 623.868C171.283 621.504 168.358 612.562 164.066 609.165C161.298 607.359 161.338 610.74 161.854 613.007C161.971 613.452 162.099 614.077 162.272 614.537L162.257 614.593Z" fill="#620F0E"/>
<path d="M140.813 598.205C142.378 603.177 145.698 607.554 146.612 605.908C147.611 604.165 144.847 596.389 141.885 593.763C139.584 592.2 140.297 595.939 140.359 596.369C140.487 596.995 140.63 597.565 140.828 598.15L140.813 598.205Z" fill="#620F0E"/>
<path d="M121.457 581.964C122.747 585.975 125.182 589.465 125.732 588.076C126.366 586.59 124.13 580.374 121.977 578.26C120.8 577.354 120.847 578.726 120.956 579.642C120.992 579.948 121.131 580.753 121.472 581.909L121.457 581.964Z" fill="#620F0E"/>
<path d="M104.382 566.038C105.144 568.489 106.679 571.146 107.051 570.418C107.453 569.58 105.91 564.969 104.481 563.463C104.044 563.109 103.819 563.285 103.877 563.951C103.924 564.437 104.078 565.188 104.327 566.023L104.382 566.038Z" fill="#620F0E"/>
<path d="M89.5322 550.413C90.0196 551.903 90.7721 553.287 90.9563 553.041C91.2253 552.699 90.2355 549.774 89.4752 548.861C89.3796 548.776 89.1886 548.606 89.2102 548.967C89.1767 549.313 89.3598 549.953 89.5174 550.468L89.5322 550.413Z" fill="#620F0E"/>
<path d="M77.201 535.758L77.2346 535.412L76.8859 534.727L76.9627 535.102L77.201 535.758Z" fill="#620F0E"/>
<path d="M889.929 934.022C889.722 934.794 890.737 935.421 891.756 934.925C892.636 934.511 892.442 933.69 891.699 933.373C891.644 933.358 891.534 933.329 891.478 933.314C890.566 933.188 890.032 933.636 889.929 934.022Z" fill="#620F0E"/>
<path d="M846.163 924.599C845.69 926.365 848.44 927.574 850.328 926.484C851.672 925.662 851.718 923.723 849.402 923.102C847.537 922.78 846.384 923.772 846.163 924.599Z" fill="#620F0E"/>
<path d="M802.146 914.342C801.588 917.089 805.793 919.044 808.565 917.304C810.693 915.982 810.244 913.024 806.949 912.082C804.037 911.479 802.376 913.044 802.091 914.327L802.146 914.342Z" fill="#620F0E"/>
<path d="M758.047 903.294C757.483 907.163 763.741 909.845 767.014 907.115C769.345 905.257 768.478 901.655 764.205 900.391C760.575 899.596 758.288 901.289 758.047 903.294Z" fill="#620F0E"/>
<path d="M713.919 891.471C713.475 896.436 721.339 899.962 725.275 896.524C727.75 894.349 727.013 889.599 721.405 887.801C716.562 886.681 714.109 889.216 713.933 891.416L713.919 891.471Z" fill="#620F0E"/>
<path d="M669.997 878.875C669.743 884.897 679.159 889.252 683.548 885.226C686.671 882.397 684.813 876.756 678.573 874.67C673.152 873.277 670.103 875.83 669.982 878.93L669.997 878.875Z" fill="#620F0E"/>
<path d="M626.503 865.565C626.594 872.507 637.326 877.688 642.044 873.099C645.086 870.13 643.508 863.441 635.853 860.68C629.344 858.936 626.445 862.475 626.503 865.565Z" fill="#620F0E"/>
<path d="M583.422 851.598C583.873 859.404 595.755 865.367 600.62 860.226C603.751 856.926 601.718 849.287 593.28 846.14C586.153 844.053 583.246 848.062 583.422 851.598Z" fill="#620F0E"/>
<path d="M540.784 836.861C541.689 845.617 554.747 852.486 559.65 846.764C562.815 843.119 560.257 834.571 551.12 830.94C543.748 828.669 540.293 832.295 540.729 836.846L540.784 836.861Z" fill="#620F0E"/>
<path d="M498.944 821.572C500.323 830.987 514.201 838.548 519.012 832.507C522.14 828.556 519.068 819.279 509.399 815.21C501.203 812.481 498.364 817.337 498.944 821.572Z" fill="#620F0E"/>
<path d="M458.044 805.646C459.871 815.594 474.182 823.745 478.832 817.423C481.838 813.263 478.278 803.382 468.282 798.989C459.909 796.036 457.247 801.116 458.114 805.605L458.044 805.646Z" fill="#620F0E"/>
<path d="M418.217 789.24C420.467 799.598 434.895 808.193 439.078 801.629C441.824 797.339 437.896 787.064 427.848 782.421C419.52 779.302 417.174 784.527 418.162 789.225L418.217 789.24Z" fill="#620F0E"/>
<path d="M380.278 772.631C382.829 783.187 396.716 791.815 400.278 785.143C402.623 780.805 398.464 770.291 388.901 765.6C380.989 762.475 379.085 767.818 380.223 772.616L380.278 772.631Z" fill="#620F0E"/>
<path d="M344.583 756.031C347.323 766.106 359.356 774.592 362.982 769.001C365.883 764.575 360.75 753.504 352.085 748.995C344.753 745.907 343.32 751.258 344.583 756.031Z" fill="#620F0E"/>
<path d="M311.077 739.427C313.986 749.311 325.026 757.531 327.877 751.969C329.952 747.972 325.606 737.053 317.317 732.467C310.717 729.516 309.674 734.735 311.022 739.412L311.077 739.427Z" fill="#620F0E"/>
<path d="M279.73 722.927C282.504 731.77 291.779 739.517 294.51 735.283C296.729 731.857 292.673 720.956 284.814 716.308C278.987 713.564 278.363 718.541 279.785 722.942L279.73 722.927Z" fill="#620F0E"/>
<path d="M250.502 706.464C253.258 714.711 261.324 721.897 263.345 717.886C265.177 714.357 260.543 704.07 254.305 700.211C249.361 697.704 249.116 702.368 250.487 706.519L250.502 706.464Z" fill="#620F0E"/>
<path d="M223.473 690.175C226.091 697.616 232.826 704.032 234.287 700.344C235.56 697.138 231.422 687.87 226.258 684.417C222.346 682.246 222.294 686.193 223.239 689.284C223.345 689.549 223.437 689.869 223.543 690.134L223.473 690.175Z" fill="#620F0E"/>
<path d="M198.423 674.005C200.685 680.346 205.939 685.892 207.174 683.267C208.38 680.752 204.58 671.989 200.228 668.813C197.17 666.988 197.35 670.288 197.936 672.514C198.053 672.96 198.251 673.545 198.423 674.005Z" fill="#620F0E"/>
<path d="M175.477 657.923C177.439 663.179 181.391 667.844 182.39 666.102C183.544 664.223 180.147 656.16 176.539 653.301C173.977 651.609 174.704 655.292 174.873 655.988C175.056 656.628 175.239 657.268 175.437 657.854L175.477 657.923Z" fill="#620F0E"/>
<path d="M154.716 642.075C156.322 646.23 159.319 650.048 159.869 648.658C160.518 647.118 157.775 640.589 155.235 638.371C153.839 637.406 153.885 638.778 154.049 639.709C154.177 640.334 154.412 641.225 154.716 642.075Z" fill="#620F0E"/>
<path d="M136.03 626.427C137.266 629.537 139.227 632.368 139.669 631.6C140.211 630.681 138.043 625.311 136.107 623.492C135.916 623.322 135.232 622.784 135.363 624.061C135.399 624.366 135.498 625.102 136.03 626.427Z" fill="#620F0E"/>
<path d="M119.499 611.116C120.35 613.236 121.51 615.084 121.768 614.562C121.986 613.97 120.633 610.415 119.395 609.078C119.244 608.979 118.972 608.669 119.03 609.335C119.077 609.821 119.356 610.546 119.569 611.076L119.499 611.116Z" fill="#620F0E"/>
<path d="M105.167 595.986C105.567 596.921 106.102 598.01 106.217 597.804C106.29 597.528 105.561 595.618 105.072 595.015C105.072 595.015 104.936 594.86 104.907 594.97C104.907 594.97 104.888 595.261 105.181 595.931L105.167 595.986Z" fill="#620F0E"/>
<path d="M876.643 964.631L877.243 964.378L876.986 964.014L876.401 964.212L876.643 964.631Z" fill="#620F0E"/>
<path d="M834.468 955.226C834.173 956.329 835.974 957.107 837.163 956.421C838.002 955.936 838.092 954.719 836.603 954.32C835.36 954.105 834.601 954.729 834.468 955.226Z" fill="#620F0E"/>
<path d="M792.328 945.469C791.891 947.54 795.359 948.942 797.336 947.52C798.584 946.613 798.465 944.63 795.942 943.895C793.636 943.455 792.494 944.627 792.328 945.469Z" fill="#620F0E"/>
<path d="M750.063 934.856C749.596 937.923 754.699 940.059 757.38 937.999C759.092 936.684 758.768 933.7 755.047 932.585C751.748 931.878 750.223 933.598 750.048 934.911L750.063 934.856Z" fill="#620F0E"/>
<path d="M707.92 923.563C707.662 927.396 714.056 930.232 717.23 927.654C719.49 925.836 718.292 922.145 713.993 920.756C710.047 919.817 708.088 921.834 707.976 923.578L707.92 923.563Z" fill="#620F0E"/>
<path d="M665.915 911.539C665.821 916.302 673.56 919.854 677.132 916.673C679.622 914.443 678.008 909.872 672.857 908.137C668.168 906.881 665.966 909.365 665.93 911.484L665.915 911.539Z" fill="#620F0E"/>
<path d="M624.227 898.773C624.437 904.387 633.452 908.694 637.282 904.991C640 902.349 637.902 896.939 631.912 894.802C626.451 893.339 624.145 896.209 624.227 898.773Z" fill="#620F0E"/>
<path d="M582.992 885.417C583.536 891.771 593.62 896.72 597.554 892.63C600.106 889.944 598.161 883.747 591.072 881.079C585.42 879.446 582.702 882.088 582.992 885.417Z" fill="#620F0E"/>
<path d="M542.184 871.351C543.173 878.474 554.242 884.159 558.128 879.584C560.7 876.608 558.324 869.586 550.562 866.561C544.388 864.67 541.597 867.587 542.129 871.336L542.184 871.351Z" fill="#620F0E"/>
<path d="M502.191 856.672C503.653 864.454 515.336 870.718 519.145 865.767C521.61 862.526 518.746 854.901 510.547 851.521C503.701 849.273 501.529 853.184 502.191 856.672Z" fill="#620F0E"/>
<path d="M462.926 841.482C464.836 849.797 476.967 856.595 480.505 851.335C482.779 847.924 479.481 839.71 471.066 836.036C463.987 833.548 462.048 837.699 462.871 841.467L462.926 841.482Z" fill="#620F0E"/>
<path d="M424.751 825.753C427.084 834.477 439.347 841.665 442.528 836.192C444.541 832.652 440.821 824.028 432.45 820.189C425.416 817.536 423.722 821.871 424.791 825.823L424.751 825.753Z" fill="#620F0E"/>
<path d="M388.338 809.848C391.002 818.661 402.819 825.966 405.434 820.4C407.116 816.771 403.19 808.034 395.084 804.088C388.41 801.413 387.103 805.851 388.323 809.903L388.338 809.848Z" fill="#620F0E"/>
<path d="M354.003 793.91C356.77 802.337 367.039 809.463 369.708 804.799C371.606 801.464 367.498 792.087 359.696 788.104C353.534 785.507 352.643 789.939 353.947 793.895L354.003 793.91Z" fill="#620F0E"/>
<path d="M321.842 778.02C324.794 786.201 334.125 793.076 336.183 788.484C337.651 785.212 333.524 776.125 326.51 772.294C320.969 769.805 320.453 774.159 321.842 778.02Z" fill="#620F0E"/>
<path d="M291.565 762.161C294.403 769.661 302.411 776.182 304.368 772.627C305.898 769.786 301.844 760.423 295.246 756.585C290.367 754.273 290.131 758.466 291.55 762.216L291.565 762.161Z" fill="#620F0E"/>
<path d="M263.461 746.355C266.227 753.244 273.19 759.248 274.548 755.947C275.747 753.016 271.376 744.396 266.112 741.094C262.116 739.018 262.152 742.634 263.142 745.56C263.248 745.825 263.355 746.09 263.461 746.355Z" fill="#620F0E"/>
<path d="M237.392 730.678C239.883 736.607 245.376 741.922 246.607 739.533C247.824 737.198 243.725 728.887 239.219 725.847C236.021 724.103 236.26 727.182 236.945 729.258C237.062 729.703 237.275 730.233 237.462 730.638L237.392 730.678Z" fill="#620F0E"/>
<path d="M213.302 715.117C215.554 720.391 220.158 725.054 220.914 722.892C221.711 720.8 218.012 713.424 214.344 710.785C211.903 709.304 212.316 711.956 212.51 712.777C212.678 713.472 212.942 714.252 213.302 715.117Z" fill="#620F0E"/>
<path d="M191.245 699.692C193.112 703.976 196.525 707.787 197.185 706.427C197.889 704.901 194.69 698.309 191.709 695.973C190.092 694.949 190.178 696.391 190.398 697.336C190.526 697.962 190.816 698.867 191.23 699.747L191.245 699.692Z" fill="#620F0E"/>
<path d="M171.248 684.518C172.73 687.812 175.283 690.861 175.579 689.758C175.874 688.655 173.512 683.351 171.245 681.443C170.3 680.776 170.273 681.538 170.442 682.233C170.504 682.663 170.727 683.374 171.208 684.448L171.248 684.518Z" fill="#620F0E"/>
<path d="M153.271 669.532C154.353 671.891 155.966 674.037 156.184 673.445C156.486 672.758 154.519 668.624 153.101 667.298C152.91 667.129 152.513 666.845 152.571 667.511C152.633 667.942 152.857 668.652 153.271 669.532Z" fill="#620F0E"/>
<path d="M137.368 654.748C138.036 656.227 138.943 657.475 139.032 657.144C139.15 656.703 137.891 654.119 137.102 653.316C136.991 653.287 136.855 653.132 136.851 653.368C136.837 653.423 136.899 653.853 137.354 654.803L137.368 654.748Z" fill="#620F0E"/>
<path d="M123.954 641.044L123.877 640.669L123.448 639.844L123.51 640.275L123.954 641.044Z" fill="#620F0E"/>
<path d="M782.899 974.041C782.599 975.38 785.062 976.336 786.366 975.443C787.235 974.848 787.118 973.517 785.423 973.003C783.849 972.7 783.006 973.42 782.899 974.041Z" fill="#620F0E"/>
<path d="M742.675 963.972C742.389 966.142 746.228 967.702 748.15 966.266C749.412 965.304 749.143 963.222 746.414 962.372C744.068 961.862 742.816 963.004 742.675 963.972Z" fill="#620F0E"/>
<path d="M702.684 953.257C702.511 956.108 707.379 958.24 709.78 956.341C711.297 955.092 710.789 952.355 707.247 951.229C704.239 950.541 702.788 951.985 702.739 953.272L702.684 953.257Z" fill="#620F0E"/>
<path d="M662.664 941.764C662.686 945.435 668.803 948.197 671.573 945.806C673.344 944.27 672.476 940.668 668.082 939.195C664.386 938.205 662.692 940.116 662.664 941.764Z" fill="#620F0E"/>
<path d="M622.932 929.642C623.228 934.273 631.122 937.689 633.741 934.312C635.37 932.206 633.634 928.312 628.939 926.64C624.581 925.472 622.743 927.699 622.877 929.627L622.932 929.642Z" fill="#620F0E"/>
<path d="M583.654 916.928C584.283 922.3 593.206 926.287 595.849 922.383C597.312 920.233 595.713 915.607 590.014 913.489C585.41 912.137 583.311 914.235 583.654 916.928Z" fill="#620F0E"/>
<path d="M544.842 903.574C545.905 909.534 555.663 914.159 558.228 909.88C559.839 907.179 557.182 902.092 551.402 899.833C545.779 898.09 544.356 901.197 544.827 903.629L544.842 903.574Z" fill="#620F0E"/>
<path d="M506.776 889.647C508.21 895.766 517.835 900.887 520.657 896.973C522.514 894.456 519.902 888.317 513.244 885.586C507.706 883.748 506.102 886.865 506.776 889.647Z" fill="#620F0E"/>
<path d="M469.327 875.18C471.21 881.833 481.256 887.363 483.847 883.209C485.528 880.467 482.508 873.864 475.563 870.88C469.835 868.872 468.477 872.173 469.312 875.235L469.327 875.18Z" fill="#620F0E"/>
<path d="M432.802 860.133C435.067 867.125 445.316 873.004 447.55 868.637C449.025 865.781 445.623 858.839 438.682 855.619C432.887 853.416 431.761 856.957 432.802 860.133Z" fill="#620F0E"/>
<path d="M398.08 844.975C400.661 852.11 410.48 858.052 412.328 853.581C413.472 850.636 409.879 843.525 403.173 840.309C397.408 837.996 396.995 841.964 398.135 844.989L398.08 844.975Z" fill="#620F0E"/>
<path d="M365.312 829.811C367.981 836.616 376.542 842.398 378.363 838.688C379.684 835.968 375.848 828.437 369.463 825.129C364.47 823.023 364.035 826.631 365.297 829.866L365.312 829.811Z" fill="#620F0E"/>
<path d="M334.442 814.621C337.266 821.29 345.15 826.949 346.446 823.217C347.405 820.518 343.541 813.098 337.721 809.883C333.335 807.939 333.169 811.206 334.108 813.881C334.159 814.131 334.321 814.411 334.387 814.606L334.442 814.621Z" fill="#620F0E"/>
<path d="M305.455 799.464C308.192 805.577 314.932 810.871 316.226 808.025C317.263 805.702 313.387 798.101 307.969 794.935C304.204 793.098 304.293 796.078 304.938 798.083C305.055 798.529 305.268 799.059 305.455 799.464Z" fill="#620F0E"/>
<path d="M278.571 784.397C281.261 790.025 287.038 794.942 287.887 792.214C288.533 790.022 284.871 782.952 280.195 780.102C276.706 778.34 277.603 781.832 277.827 782.542C277.984 783.057 278.248 783.838 278.571 784.397Z" fill="#620F0E"/>
<path d="M253.557 769.417C255.928 774.25 260.58 778.512 261.373 776.655C262.125 774.728 258.304 768.029 254.551 765.486C252.026 764.1 252.512 766.477 252.721 767.242C252.93 768.008 253.289 768.873 253.557 769.417Z" fill="#620F0E"/>
<path d="M230.522 754.555C232.639 758.788 236.442 762.468 236.845 760.743C237.233 759.073 233.896 753.213 230.927 751.058C229.295 750.088 229.411 751.42 229.59 752.296C229.733 752.866 230.092 753.731 230.466 754.541L230.522 754.555Z" fill="#620F0E"/>
<path d="M209.395 739.848C210.991 742.936 213.871 746.309 214.307 745.125C214.687 743.927 211.769 738.711 209.376 736.828C208.266 736.117 208.376 737.033 208.518 737.603C208.661 738.174 208.98 738.969 209.41 739.793L209.395 739.848Z" fill="#620F0E"/>
<path d="M190.288 725.329C191.55 727.677 193.383 729.883 193.656 729.306C193.959 728.618 191.701 724.466 190.062 723.081C189.856 722.967 189.364 722.598 189.462 723.334C189.524 723.764 189.858 724.504 190.273 725.384L190.288 725.329Z" fill="#620F0E"/>
<path d="M173.019 711.006C173.797 712.515 175.071 714.157 175.19 713.716C175.323 713.219 173.682 710.297 172.686 709.379C172.521 709.335 172.344 709.11 172.366 709.471C172.402 709.776 172.67 710.321 173.019 711.006Z" fill="#620F0E"/>
<path d="M158.607 698.157L158.479 697.531L157.561 696.103L157.73 696.798L158.607 698.157Z" fill="#620F0E"/>
<path d="M698.016 980.384C697.885 982.418 701.488 983.975 703.215 982.605C704.268 981.764 703.969 979.792 701.296 978.957C699.13 978.436 698.087 979.457 698.031 980.329L698.016 980.384Z" fill="#620F0E"/>
<path d="M660.119 969.578C660.196 972.378 665.314 974.459 667.093 972.452C668.055 971.291 667.458 968.884 664.193 967.832C661.49 967.108 660.128 968.221 660.104 969.633L660.119 969.578Z" fill="#620F0E"/>
<path d="M622.578 958.102C622.893 961.557 629 964.139 630.913 961.636C632.103 960.063 630.682 957.2 627.061 955.934C623.53 954.988 622.461 956.771 622.578 958.102Z" fill="#620F0E"/>
<path d="M585.366 946.061C586.005 950.075 592.975 953.185 594.881 950.266C596.075 948.458 594.262 945.075 590.173 943.565C586.176 942.376 585.143 944.464 585.421 946.076L585.366 946.061Z" fill="#620F0E"/>
<path d="M548.552 933.417C549.609 938.075 557.389 941.697 559.177 938.333C560.32 936.274 558.058 932.358 553.573 930.565C549.37 929.261 548.087 931.4 548.567 933.362L548.552 933.417Z" fill="#620F0E"/>
<path d="M512.481 920.207C513.961 925.274 522.218 929.319 523.83 925.731C524.851 923.463 522.072 919.053 517.381 917.145C512.931 915.657 511.865 918.091 512.466 920.262L512.481 920.207Z" fill="#620F0E"/>
<path d="M477.165 906.605C478.976 911.761 486.854 916.119 488.612 912.865C489.755 910.807 487.113 905.665 481.708 903.33C477.233 901.717 476.358 904.32 477.165 906.605Z" fill="#620F0E"/>
<path d="M442.497 892.35C444.635 897.83 452.799 902.441 454.242 899.044C455.193 896.816 452.194 891.46 446.724 888.93C442.429 887.306 441.312 889.49 442.442 892.335L442.497 892.35Z" fill="#620F0E"/>
<path d="M409.452 877.997C411.851 883.606 419.655 888.239 420.711 884.738C421.372 882.492 418.182 876.966 413.002 874.455C408.737 872.721 408.344 875.512 409.452 877.997Z" fill="#620F0E"/>
<path d="M378.264 863.55C380.833 868.968 387.75 873.6 388.854 870.585C389.651 868.493 386.384 862.592 381.138 859.886C377.314 858.27 377.16 860.83 378.011 862.95C378.077 863.145 378.198 863.355 378.264 863.55Z" fill="#620F0E"/>
<path d="M348.89 849.177C351.503 854.43 357.883 858.859 358.542 855.961C359.103 853.865 355.571 848.071 350.987 845.542C347.675 844.004 347.745 846.388 348.369 848.033C348.516 848.368 348.688 848.828 348.835 849.163L348.89 849.177Z" fill="#620F0E"/>
<path d="M321.414 834.778C323.924 839.53 329.312 843.693 330.028 841.461C330.671 839.505 326.863 833.637 322.926 831.34C319.683 829.762 320.614 832.909 320.761 833.243C320.918 833.759 321.186 834.303 321.414 834.778Z" fill="#620F0E"/>
<path d="M295.806 820.468C298.078 824.565 302.407 828.267 303.086 826.617C303.735 825.076 300.133 819.322 296.678 817.214C294.343 815.997 294.808 818.014 295.047 818.669C295.204 819.184 295.512 819.799 295.861 820.483L295.806 820.468Z" fill="#620F0E"/>
<path d="M272.012 806.229C274.152 809.936 277.823 813.225 278.167 811.721C278.466 810.383 275.408 805.247 272.379 803.313C270.788 802.413 270.893 803.565 271.117 804.275C271.274 804.79 271.608 805.53 272.012 806.229Z" fill="#620F0E"/>
<path d="M250.072 792.132C251.823 795.084 254.575 797.832 254.951 796.868C255.287 795.835 252.387 791.215 250.06 789.528C249.814 789.343 248.935 788.872 249.125 789.928C249.228 790.428 249.602 791.238 250.087 792.077L250.072 792.132Z" fill="#620F0E"/>
<path d="M229.93 778.163C231.358 780.555 233.401 782.64 233.483 781.893C233.62 781.161 231.41 777.495 229.591 776.121C229.385 776.006 228.892 775.638 229.005 776.319C229.067 776.749 229.376 777.364 229.86 778.203L229.93 778.163Z" fill="#620F0E"/>
<path d="M211.642 764.334C212.626 765.958 213.945 767.434 214.049 767.048C214.167 766.607 212.401 763.71 211.24 762.748C211.089 762.649 210.843 762.465 210.919 762.84C210.956 763.145 211.224 763.69 211.642 764.334Z" fill="#620F0E"/>
<path d="M195.234 750.775C195.653 751.419 196.343 752.373 196.468 752.347C196.527 752.127 195.503 750.433 194.93 749.925C194.875 749.91 194.779 749.825 194.82 749.895C194.856 750.201 195.073 750.495 195.234 750.775Z" fill="#620F0E"/>
<path d="M180.87 737.528L180.83 737.458L180.694 737.303L180.734 737.373L180.87 737.528Z" fill="#620F0E"/>
<path d="M588.144 972.76C588.748 975.582 593.876 977.843 595.129 975.814C595.94 974.554 594.512 972.161 591.512 971.002C588.769 970.208 587.888 971.509 588.144 972.76Z" fill="#620F0E"/>
<path d="M553.547 960.889C554.518 964.105 560.305 966.779 561.451 964.485C562.097 963.18 560.691 960.261 557.044 958.87C553.944 957.862 553.1 959.468 553.547 960.889Z" fill="#620F0E"/>
<path d="M519.554 948.527C520.918 952.263 527.142 955.29 528.142 952.661C528.766 950.995 526.603 947.815 522.985 946.313C519.679 945.191 518.971 946.952 519.554 948.527Z" fill="#620F0E"/>
<path d="M486.234 935.639C487.819 939.434 493.859 942.707 495.02 940.358C495.824 938.682 493.228 934.912 489.419 933.241C486.073 932.049 485.571 933.924 486.234 935.639Z" fill="#620F0E"/>
<path d="M453.574 922.277C455.5 926.34 461.772 929.853 462.687 927.32C463.241 925.695 460.719 921.649 456.498 919.75C453.071 918.417 452.704 920.448 453.574 922.277Z" fill="#620F0E"/>
<path d="M422.385 908.718C424.437 912.755 430.127 916.231 431.064 914.058C431.713 912.518 428.893 908.038 424.757 906.042C421.606 904.784 421.519 906.653 422.213 908.258C422.293 908.397 422.359 908.592 422.385 908.718Z" fill="#620F0E"/>
<path d="M393.025 895.172C395.216 899.129 400.506 902.557 401.082 900.406C401.54 898.696 398.345 894.292 394.761 892.445C392.011 891.235 392.119 893.038 392.61 894.293C392.717 894.558 392.864 894.893 393.04 895.117L393.025 895.172Z" fill="#620F0E"/>
<path d="M365.272 881.589C367.467 885.311 372.08 888.616 372.663 886.88C373.187 885.365 369.871 880.752 366.467 878.894C363.677 877.614 364.549 880.095 364.656 880.36C364.787 880.75 365.03 881.169 365.272 881.589Z" fill="#620F0E"/>
<path d="M339.277 868.061C341.366 871.518 345.457 874.565 345.775 872.936C346.034 871.527 342.935 867.209 339.917 865.454C337.884 864.436 338.327 866.092 338.484 866.607C338.591 866.872 338.803 867.402 339.222 868.046L339.277 868.061Z" fill="#620F0E"/>
<path d="M314.945 854.507C316.917 857.518 320.305 860.318 320.616 859.159C320.926 858.001 317.882 853.697 315.18 852.086C313.724 851.342 313.833 852.258 314.072 852.913C314.255 853.553 314.754 854.337 314.93 854.562L314.945 854.507Z" fill="#620F0E"/>
<path d="M292.523 841.107C294.237 843.754 297.038 846.101 297.138 845.064C297.239 844.026 294.558 840.352 292.448 838.959C292.187 838.83 291.364 838.373 291.598 839.263C291.715 839.709 292.023 840.323 292.523 841.107Z" fill="#620F0E"/>
<path d="M271.733 827.791C273.139 829.824 275.116 831.713 275.183 831.022C275.305 830.345 273.128 827.219 271.429 826.055C271.224 825.941 270.716 825.627 270.859 826.198C270.951 826.518 271.259 827.132 271.733 827.791Z" fill="#620F0E"/>
<path d="M252.686 814.589C253.659 816.032 255.023 817.343 255.111 817.012C255.215 816.626 253.415 814.075 252.335 813.253C252.224 813.224 251.938 812.969 252.029 813.29C252.081 813.54 252.308 814.015 252.741 814.604L252.686 814.589Z" fill="#620F0E"/>
<path d="M235.424 801.568C236.033 802.381 236.768 803.169 236.757 802.989C236.816 802.769 235.788 801.311 235.105 800.773C235.049 800.758 234.899 800.658 234.939 800.728C234.91 800.839 235.126 801.133 235.383 801.498L235.424 801.568Z" fill="#620F0E"/>
<path d="M220.202 789.094L220.122 788.954L219.769 788.505L219.89 788.715L220.202 789.094Z" fill="#620F0E"/>
<path d="M527.833 974.335C528.926 976.875 533.338 978.943 533.866 977.193C534.132 976.2 532.715 973.988 530.045 972.918C527.718 972.117 527.337 973.315 527.818 974.39L527.833 974.335Z" fill="#620F0E"/>
<path d="M496.646 962.312C497.96 964.911 502.313 967.2 502.922 965.59C503.342 964.461 501.322 961.851 498.613 960.711C496.245 959.84 496.015 961.138 496.646 962.312Z" fill="#620F0E"/>
<path d="M466.229 949.846C467.789 952.629 472.167 955.044 472.625 953.334C472.935 952.175 470.684 949.326 467.989 948.13C465.691 947.219 465.586 948.492 466.122 949.581C466.163 949.651 466.188 949.776 466.284 949.861L466.229 949.846Z" fill="#620F0E"/>
<path d="M436.937 937.151C438.622 939.908 442.64 942.344 443.094 940.87C443.375 939.822 441.182 936.751 438.311 935.332C436.178 934.465 436.269 935.671 436.669 936.606C436.735 936.801 436.856 937.011 436.992 937.166L436.937 937.151Z" fill="#620F0E"/>
<path d="M409.238 924.466C411.089 927.268 414.981 929.73 415.2 928.251C415.345 927.048 412.822 923.889 410.171 922.529C407.943 921.577 408.647 923.362 408.768 923.572C408.915 923.907 409.077 924.186 409.253 924.411L409.238 924.466Z" fill="#620F0E"/>
<path d="M383.312 911.786C385.071 914.268 388.357 916.567 388.597 915.449C388.863 914.456 386.229 911.267 383.855 909.981C382.163 909.232 382.559 910.402 382.706 910.737C382.838 911.127 383.095 911.492 383.312 911.786Z" fill="#620F0E"/>
<path d="M358.939 899.046C360.577 901.318 363.381 903.429 363.617 902.546C363.854 901.664 361.275 898.49 359.121 897.262C358.077 896.746 358.014 897.202 358.186 897.662C358.252 897.857 358.425 898.317 358.994 899.061L358.939 899.046Z" fill="#620F0E"/>
<path d="M336.183 886.447C337.579 888.299 339.942 890.292 339.998 889.42C340.01 888.714 337.964 885.978 336.071 884.88C335.509 884.552 335.244 884.658 335.361 885.103C335.453 885.423 335.735 885.913 336.128 886.432L336.183 886.447Z" fill="#620F0E"/>
<path d="M315.077 873.873C316.256 875.431 317.99 876.9 318.068 876.389C318.146 875.878 316.151 873.393 314.836 872.567C314.67 872.523 314.218 872.224 314.335 872.669C314.412 873.045 314.9 873.649 315.117 873.943L315.077 873.873Z" fill="#620F0E"/>
<path d="M295.532 861.426C296.374 862.479 297.656 863.65 297.634 863.29C297.613 862.929 296.107 861.048 295.162 860.381C295.052 860.351 294.806 860.167 294.857 860.417C294.923 860.612 295.18 860.977 295.532 861.426Z" fill="#620F0E"/>
<path d="M278.643 850.101L278.486 849.586L277.424 848.473L277.637 849.003L278.643 850.101Z" fill="#620F0E"/>
<path d="M261.591 836.959L261.455 836.804L261.495 836.874L261.591 836.959Z" fill="#620F0E"/>
<path d="M480.088 974.904C481.223 976.627 484.064 978.157 484.22 977.135C484.302 976.388 482.752 974.672 481.005 973.909C479.615 973.359 479.659 974.08 479.871 974.61C479.912 974.68 479.978 974.875 480.073 974.96L480.088 974.904Z" fill="#620F0E"/>
<path d="M452.915 963.128C454.174 964.825 456.821 966.421 456.892 965.495C457.014 964.818 455.398 962.907 453.556 962.058C452.277 961.538 452.445 962.234 452.496 962.484C452.602 962.749 452.724 962.959 452.845 963.168L452.915 963.128Z" fill="#620F0E"/>
<path d="M427.278 951.353C428.512 952.925 430.883 954.447 431.005 953.771C431.153 953.219 429.456 951.168 427.629 950.265C426.681 949.833 426.673 950.304 426.779 950.569C426.885 950.834 427.047 951.114 427.278 951.353Z" fill="#620F0E"/>
<path d="M403.11 939.614C404.304 941.116 406.303 942.48 406.451 941.928C406.599 941.377 404.777 939.351 403.281 938.537C402.538 938.219 402.479 938.44 402.57 938.76C402.636 938.955 402.838 939.305 403.11 939.614Z" fill="#620F0E"/>
<path d="M380.438 927.805C381.511 929.098 383.194 930.318 383.257 929.861C383.265 929.391 381.634 927.535 380.344 926.834C380.178 926.79 379.726 926.491 379.843 926.937C379.869 927.062 379.975 927.327 380.438 927.805Z" fill="#620F0E"/>
<path d="M359.22 916.089C360.131 917.101 361.347 918.078 361.421 917.802C361.495 917.526 360.096 915.91 358.971 915.254C358.86 915.224 358.559 915.025 358.665 915.29C358.731 915.485 358.948 915.779 359.22 916.089Z" fill="#620F0E"/>
<path d="M339.58 904.441C340.179 905.074 341.038 905.837 341.083 905.671C341.142 905.45 340.04 904.268 339.382 903.856C339.327 903.841 339.121 903.727 339.161 903.796C339.212 904.047 339.403 904.216 339.594 904.386L339.58 904.441Z" fill="#620F0E"/>
<path d="M321.98 893.341L321.859 893.131L321.301 892.568L321.407 892.833L321.98 893.341Z" fill="#620F0E"/>
<path d="M446.785 975.854C447.465 976.627 448.645 977.298 448.609 976.993C448.572 976.687 447.646 975.73 446.808 975.328C446.437 975.169 446.407 975.279 446.433 975.404C446.499 975.6 446.594 975.684 446.73 975.839L446.785 975.854Z" fill="#620F0E"/>
<path d="M424.57 964.992C425.128 965.556 426.073 966.223 426.077 965.987C426.121 965.822 425.235 964.934 424.508 964.562C424.287 964.503 424.177 964.473 424.257 964.613C424.323 964.808 424.419 964.893 424.555 965.048L424.57 964.992Z" fill="#620F0E"/>
<path d="M404.625 954.921L404.519 954.656L403.563 953.809L403.6 954.114L404.625 954.921Z" fill="#620F0E"/>
<path d="M384.617 943.764L384.591 943.639L384.099 943.27L384.18 943.41L384.617 943.764Z" fill="#620F0E"/>
</g>
</g>
</svg>
