<svg width="521" height="767" viewBox="0 0 521 767" fill="none" xmlns="http://www.w3.org/2000/svg">
<g clip-path="url(#clip0_301_630)">
<g opacity="0.5">
<mask id="mask0_301_630" style="mask-type:luminance" maskUnits="userSpaceOnUse" x="-142" y="-36" width="804" height="804">
<path d="M255.165 767.71L661.731 370.979L265 -35.5874L-141.566 361.144L255.165 767.71Z" fill="white"/>
</mask>
<g mask="url(#mask0_301_630)">
<path d="M504.885 715.991C504.117 715.436 504.215 714.491 505.106 714.358C506.026 714.197 507.02 715.099 506.493 715.896C506.056 716.436 505.283 716.283 504.914 715.962L504.885 715.991Z" fill="#620F0E"/>
<path d="M487.905 738.91L489.14 738.839L489.558 739.848L488.351 740.005L487.905 738.91Z" fill="#620F0E"/>
<path d="M472.697 762.425L473.616 762.322L474.008 763.13L473.06 763.204L472.697 762.425Z" fill="#620F0E"/>
<path d="M510.434 644.871C508.843 643.531 509.561 641.13 511.543 640.953C513.583 640.777 515.336 642.865 514.051 644.685C512.858 646.077 511.172 645.511 510.405 644.842L510.434 644.871Z" fill="#620F0E"/>
<path d="M490.458 671.053C488.838 669.741 489.412 667.424 491.365 667.276C493.174 667.155 495.245 669.045 494.017 670.924C492.969 672.174 491.31 671.752 490.458 671.053Z" fill="#620F0E"/>
<path d="M471.897 696.592C470.22 695.281 470.677 693.077 472.659 692.9C474.44 692.75 476.57 694.584 475.399 696.463C474.437 697.685 472.749 697.291 471.897 696.592Z" fill="#620F0E"/>
<path d="M454.837 721.231C453.33 720.151 453.497 718.23 455.135 717.992C456.889 717.698 458.932 719.559 458.023 721.126C457.12 722.292 455.576 721.814 454.808 721.259L454.837 721.231Z" fill="#620F0E"/>
<path d="M439.311 744.944C438.059 744.067 438.134 742.634 439.429 742.391C440.838 742.15 442.513 743.577 441.837 744.86C441.196 745.713 439.937 745.41 439.311 744.944Z" fill="#620F0E"/>
<path d="M425.143 767.897C424.147 767.225 424.189 766.106 425.167 765.946C426.231 765.758 427.594 766.865 427.123 767.835C426.657 768.461 425.683 768.277 425.171 767.926L425.143 767.897Z" fill="#620F0E"/>
<path d="M522.873 568.611C520.689 566.49 521.879 563.061 524.894 562.897C527.736 562.731 530.078 566.002 528.124 568.589C526.379 570.462 524.007 569.715 522.873 568.611Z" fill="#620F0E"/>
<path d="M500.331 595.824C498.005 593.615 499.14 590.013 502.27 589.793C505.285 589.572 507.854 593.018 505.87 595.748C504.095 597.706 501.551 596.958 500.36 595.796L500.331 595.824Z" fill="#620F0E"/>
<path d="M478.62 623.132C476.151 620.893 477.258 617.205 480.446 616.928C483.519 616.707 486.232 620.126 484.304 622.915C482.5 624.959 479.897 624.267 478.62 623.075L478.62 623.132Z" fill="#620F0E"/>
<path d="M458.235 649.941C455.737 647.787 456.642 644.183 459.773 643.905C462.817 643.656 465.617 646.99 463.775 649.808C462.115 651.767 459.513 651.076 458.235 649.941Z" fill="#620F0E"/>
<path d="M439.294 675.963C436.794 673.924 437.553 670.519 440.54 670.268C443.413 670.017 446.243 673.208 444.604 675.827C443.118 677.674 440.601 677.012 439.323 675.935L439.294 675.963Z" fill="#620F0E"/>
<path d="M421.885 701.173C419.526 699.279 420.08 696.187 422.809 695.962C425.48 695.737 428.199 698.64 426.821 701.062C425.48 702.767 423.135 702.164 421.913 701.202L421.885 701.173Z" fill="#620F0E"/>
<path d="M406.007 725.454C403.988 723.909 404.134 721.386 406.319 721.011C408.648 720.609 411.457 723.197 410.254 725.391C409.145 726.927 407.059 726.242 406.007 725.454Z" fill="#620F0E"/>
<path d="M391.572 748.949C389.809 747.665 389.836 745.484 391.675 745.22C393.601 744.928 396.071 747.11 395.189 748.878C394.341 750.102 392.597 749.65 391.601 748.92L391.572 748.949Z" fill="#620F0E"/>
<path d="M378.644 771.43C377.222 770.437 377.185 768.772 378.564 768.56C380.06 768.291 382.133 770.009 381.485 771.436C380.812 772.432 379.383 772.013 378.615 771.458L378.644 771.43Z" fill="#620F0E"/>
<path d="M516.187 517.082C513.439 514.15 515.389 509.583 519.288 509.86C522.384 510.07 525.265 513.836 522.67 517.161C520.549 519.344 517.744 518.736 516.187 517.082Z" fill="#620F0E"/>
<path d="M492.377 544.738C489.43 541.718 491.413 536.778 495.542 537.001C499.213 537.161 501.858 541.382 499.321 544.766C496.966 547.233 493.851 546.248 492.377 544.738Z" fill="#620F0E"/>
<path d="M469.369 572.576C466.08 569.323 468.037 564.182 472.54 564.323C476.44 564.485 479.342 568.854 476.715 572.494C474.185 575.304 470.872 574.001 469.398 572.548L469.369 572.576Z" fill="#620F0E"/>
<path d="M447.22 600.425C444.015 597.373 445.541 592.255 449.733 592.02C453.868 591.783 457.341 596.388 454.683 600.229C452.268 602.983 448.865 601.994 447.22 600.425Z" fill="#620F0E"/>
<path d="M426.427 627.802C423.135 624.777 424.401 619.858 428.594 619.565C432.672 619.27 436.26 623.819 433.746 627.633C431.503 630.332 428.101 629.343 426.427 627.802Z" fill="#620F0E"/>
<path d="M407.222 654.31C403.958 651.429 404.962 646.764 408.954 646.498C412.859 646.258 416.478 650.607 414.196 654.194C412.069 656.837 408.784 655.677 407.222 654.31Z" fill="#620F0E"/>
<path d="M389.578 679.917C386.453 677.297 387.223 673.031 390.87 672.817C394.373 672.631 397.91 676.662 396.034 679.853C394.256 682.155 391.196 681.286 389.578 679.917Z" fill="#620F0E"/>
<path d="M373.349 704.768C370.536 702.467 370.811 698.797 373.858 698.318C377.107 697.813 380.905 701.647 379.203 704.725C377.569 706.943 374.741 705.904 373.349 704.768Z" fill="#620F0E"/>
<path d="M358.682 728.605C356.096 726.536 356.193 723.324 358.865 722.984C361.74 722.56 365.256 725.931 363.875 728.64C362.619 730.432 360.074 729.684 358.682 728.605Z" fill="#620F0E"/>
<path d="M345.575 751.485C343.386 749.823 343.36 747.24 345.488 746.922C347.816 746.577 350.852 749.341 349.821 751.537C348.857 752.989 346.741 752.389 345.547 751.456L345.575 751.485Z" fill="#620F0E"/>
<path d="M511.27 463.996C508.156 460.515 510.545 455.293 515.102 455.664C518.972 455.97 521.64 460.737 518.756 464.288C516.084 466.895 512.799 465.679 511.27 463.996Z" fill="#620F0E"/>
<path d="M486.309 491.982C482.826 488.181 485.365 482.358 490.382 482.735C494.625 483.017 497.66 488.219 494.541 492.169C491.636 495.118 487.979 493.868 486.309 491.982Z" fill="#620F0E"/>
<path d="M462.062 520.178C458.351 516.259 460.982 509.893 466.2 510.244C470.817 510.501 474.136 515.936 470.84 520.286C467.817 523.462 463.874 522.152 462.033 520.207L462.062 520.178Z" fill="#620F0E"/>
<path d="M438.674 548.5C434.679 544.405 437.285 537.722 442.763 537.99C447.638 538.222 451.212 543.919 447.827 548.526C444.773 551.903 440.601 550.532 438.645 548.528L438.674 548.5Z" fill="#620F0E"/>
<path d="M416.146 576.888C411.951 572.705 414.446 565.791 420.096 566.004C425.057 566.208 428.917 572.023 425.617 576.774C422.532 580.294 418.244 578.979 416.146 576.888Z" fill="#620F0E"/>
<path d="M395.061 604.663C390.949 600.682 392.691 594.333 397.945 594.025C402.999 593.742 407.487 599.794 404.301 604.604C401.418 608.041 397.159 606.698 395.061 604.663Z" fill="#620F0E"/>
<path d="M375.565 631.57C371.48 627.732 372.875 621.666 377.899 621.412C382.722 621.184 387.299 627.036 384.402 631.621C381.78 634.859 377.635 633.575 375.536 631.598L375.565 631.57Z" fill="#620F0E"/>
<path d="M357.686 657.576C353.741 653.999 354.843 648.388 359.494 648.158C363.944 647.955 368.411 653.404 365.892 657.619C363.442 660.803 359.559 659.264 357.657 657.547L357.686 657.576Z" fill="#620F0E"/>
<path d="M341.338 682.712C337.619 679.424 338.37 674.326 342.618 674.206C346.666 674.054 350.966 679.042 348.853 682.861C346.869 685.592 343.239 684.428 341.366 682.741L341.338 682.712Z" fill="#620F0E"/>
<path d="M326.495 706.891C323.229 704.125 323.453 699.881 326.844 699.464C330.522 698.992 334.942 703.58 333.148 707.145C331.513 709.478 328.283 708.434 326.523 706.92L326.495 706.891Z" fill="#620F0E"/>
<path d="M313.241 730.085C310.457 727.756 310.472 724.169 313.259 723.888C316.276 723.552 320.16 727.416 318.804 730.326C317.518 732.261 314.774 731.367 313.241 730.085Z" fill="#620F0E"/>
<path d="M301.434 752.38C299.047 750.457 298.911 747.528 301.209 747.27C303.652 746.984 307.083 750.268 306.079 752.666C305.054 754.347 302.684 753.371 301.434 752.38Z" fill="#620F0E"/>
<path d="M507.974 409.841C504.693 405.956 507.46 400.308 512.389 400.77C516.602 401.195 519.407 406.452 516.175 410.286C513.185 413.147 509.587 411.726 507.974 409.841Z" fill="#620F0E"/>
<path d="M481.919 438.043C478.213 433.779 481.307 427.132 486.781 427.629C491.195 428.027 495.087 433.584 491.154 438.385C487.815 441.644 483.759 440.16 481.919 438.043Z" fill="#620F0E"/>
<path d="M456.58 466.397C452.362 461.668 455.578 454.448 461.684 454.896C466.931 455.276 470.581 461.805 466.733 466.693C463.159 470.351 458.675 468.718 456.58 466.397Z" fill="#620F0E"/>
<path d="M432.07 494.962C427.569 490.001 430.818 482.351 437.241 482.716C442.775 483.042 446.737 489.891 442.713 495.179C439.049 499.094 434.278 497.4 432.07 494.962Z" fill="#620F0E"/>
<path d="M408.363 523.653C403.605 518.487 406.803 510.435 413.484 510.775C419.305 511.104 423.495 518.071 419.38 523.731C415.628 527.845 410.713 526.178 408.363 523.653Z" fill="#620F0E"/>
<path d="M385.631 552.356C380.702 547.131 383.759 538.876 390.526 539.188C396.32 539.431 400.793 546.688 396.821 552.378C393.125 556.608 388.038 554.939 385.631 552.356Z" fill="#620F0E"/>
<path d="M364.34 580.501C359.295 575.332 362.034 567.274 368.687 567.585C374.365 567.884 378.954 575.028 375.271 580.549C371.806 584.667 366.806 582.971 364.34 580.444L364.34 580.501Z" fill="#620F0E"/>
<path d="M344.696 607.663C339.99 602.957 341.802 595.633 347.687 595.39C353.313 595.172 358.534 602.323 355.052 607.818C351.905 611.739 347.105 610.074 344.696 607.663Z" fill="#620F0E"/>
<path d="M326.555 634.039C321.933 629.535 323.367 622.58 328.935 622.419C334.274 622.255 339.498 629.119 336.423 634.275C333.565 637.97 328.937 636.364 326.555 634.039Z" fill="#620F0E"/>
<path d="M310.119 659.376C305.808 655.249 306.803 649.006 311.825 648.924C316.675 648.84 321.649 655.098 319.066 659.772C316.645 663.042 312.388 661.527 310.147 659.405L310.119 659.376Z" fill="#620F0E"/>
<path d="M295.215 683.783C291.186 680.061 291.856 674.532 296.303 674.557C300.292 674.577 305.364 679.776 303.043 684.195C301.028 687.068 297.257 685.702 295.215 683.783Z" fill="#620F0E"/>
<path d="M281.785 707.262C278.351 704.15 278.436 699.589 281.941 699.23C285.675 698.874 290.405 703.953 288.637 707.719C287 710.224 283.63 708.92 281.785 707.262Z" fill="#620F0E"/>
<path d="M269.976 729.729C267.024 727.11 266.898 723.378 269.77 723.184C272.842 722.963 276.951 727.232 275.651 730.257C274.393 732.279 271.565 731.183 269.976 729.729Z" fill="#620F0E"/>
<path d="M259.643 751.151C257.315 749.114 257.063 746.242 259.246 746.096C261.6 745.953 264.916 749.293 264.027 751.635C263.147 753.174 260.949 752.257 259.643 751.151Z" fill="#620F0E"/>
<path d="M250.756 771.615C248.967 770.073 248.649 767.888 250.228 767.821C251.979 767.757 254.588 770.314 254.05 772.029C253.433 773.255 251.693 772.401 250.756 771.615Z" fill="#620F0E"/>
<path d="M506.178 354.956C502.898 350.956 505.839 345.139 510.911 345.689C515.21 346.143 517.955 351.571 514.55 355.46C511.416 358.349 507.79 356.898 506.178 354.956Z" fill="#620F0E"/>
<path d="M479.293 383.062C475.504 378.482 478.772 371.722 484.561 372.252C489.519 372.743 492.743 378.952 488.871 383.524C485.329 386.924 481.131 385.294 479.265 383.033L479.293 383.062Z" fill="#620F0E"/>
<path d="M452.976 411.519C448.592 406.33 452.215 398.655 458.722 399.223C464.397 399.751 468.071 406.654 463.702 411.938C459.782 415.763 455.069 414.013 452.976 411.519Z" fill="#620F0E"/>
<path d="M427.317 440.301C422.565 434.734 426.429 426.087 433.395 426.66C439.586 427.195 443.712 434.735 439.077 440.617C434.864 444.956 429.636 443.027 427.317 440.301Z" fill="#620F0E"/>
<path d="M402.516 469.149C397.394 463.261 401.353 453.956 408.72 454.534C415.257 455.015 419.72 463.076 414.908 469.415C410.547 474.068 405.034 472.078 402.487 469.177L402.516 469.149Z" fill="#620F0E"/>
<path d="M378.663 498.097C373.172 491.889 376.99 482.381 384.731 482.878C391.469 483.333 396.216 491.684 391.372 498.281C386.98 503.134 381.295 501.085 378.634 498.068L378.663 498.097Z" fill="#620F0E"/>
<path d="M355.783 527.055C350.122 520.73 353.77 510.99 361.626 511.488C368.45 511.916 373.396 520.412 368.665 527.184C364.096 532.436 358.36 529.869 355.812 527.026L355.783 527.055Z" fill="#620F0E"/>
<path d="M334.317 555.37C328.597 549.16 331.842 539.587 339.496 540.168C346.004 540.621 351.179 549.178 346.882 555.639C342.806 560.467 337.092 558.388 334.317 555.37Z" fill="#620F0E"/>
<path d="M314.499 582.875C308.806 576.808 311.616 567.604 318.983 568.182C325.29 568.66 330.553 577.017 326.574 583.281C322.816 587.912 317.275 585.836 314.499 582.875Z" fill="#620F0E"/>
<path d="M296.385 609.281C291.172 603.823 292.908 595.666 299.25 595.6C305.448 595.561 311.203 603.609 307.57 609.762C304.275 614.054 299.048 612.068 296.385 609.281Z" fill="#620F0E"/>
<path d="M279.86 634.816C274.93 629.763 276.198 622.289 281.994 622.303C287.675 622.315 293.178 629.814 290.068 635.457C287.237 639.296 282.383 637.4 279.86 634.816Z" fill="#620F0E"/>
<path d="M264.839 659.452C260.276 654.834 261.104 648.13 266.267 648.251C271.316 648.37 276.541 655.177 273.954 660.195C271.56 663.609 267.163 661.834 264.839 659.452Z" fill="#620F0E"/>
<path d="M251.38 683.074C247.183 678.948 247.714 673.101 252.217 673.3C256.49 673.496 261.379 679.61 259.376 683.832C257.417 686.821 253.535 685.166 251.38 683.074Z" fill="#620F0E"/>
<path d="M239.511 705.654C236.109 702.342 236.022 697.721 239.41 697.533C243.028 697.347 247.725 702.742 246.159 706.424C244.666 708.845 241.355 707.427 239.54 705.626L239.511 705.654Z" fill="#620F0E"/>
<path d="M229.119 727.249C226.311 724.546 226.07 720.813 228.711 720.73C231.61 720.622 235.573 725.032 234.417 728.031C233.303 729.968 230.621 728.73 229.09 727.277L229.119 727.249Z" fill="#620F0E"/>
<path d="M220.259 747.799C217.99 745.648 217.624 742.717 219.66 742.771C221.669 742.795 225.129 746.109 224.353 748.509C223.559 750.078 221.421 748.932 220.258 747.857L220.259 747.799Z" fill="#620F0E"/>
<path d="M212.875 767.306C211.314 765.881 210.907 763.954 212.085 763.824C213.522 763.67 216.159 766.256 215.737 767.915C215.266 768.885 213.782 768.178 212.875 767.306Z" fill="#620F0E"/>
<path d="M505.505 299.77C502.368 295.858 505.392 290.185 510.321 290.762C514.59 291.244 517.193 296.584 513.761 300.387C510.628 303.161 507.059 301.711 505.533 299.799L505.505 299.77Z" fill="#620F0E"/>
<path d="M477.905 327.609C474.202 323.059 477.7 316.244 483.374 316.887C488.417 317.465 491.497 323.643 487.539 328.186C483.94 331.528 479.743 329.841 477.905 327.609Z" fill="#620F0E"/>
<path d="M450.846 355.886C446.549 350.611 450.375 342.796 456.994 343.479C462.783 344.067 466.341 351.14 461.77 356.507C457.734 360.389 452.937 358.494 450.845 355.943L450.846 355.886Z" fill="#620F0E"/>
<path d="M424.239 384.626C419.433 378.771 423.704 369.785 430.926 370.447C437.404 371.043 441.495 379.07 436.513 385.178C432.011 389.628 426.642 387.553 424.239 384.626Z" fill="#620F0E"/>
<path d="M398.521 413.522C393.12 407 397.515 397.269 405.54 397.999C412.505 398.629 417.075 407.322 411.771 414.028C406.744 419.218 400.981 416.45 398.549 413.551L398.521 413.522Z" fill="#620F0E"/>
<path d="M373.573 442.626C367.776 435.64 372.266 425.193 380.75 425.929C388.116 426.564 393.082 435.835 387.57 443.085C382.598 448.389 376.372 446.018 373.573 442.626Z" fill="#620F0E"/>
<path d="M349.544 471.8C343.492 464.61 347.93 453.646 356.645 454.269C364.127 454.849 369.458 464.727 364.001 472.207C358.969 477.74 352.543 475.28 349.573 471.772L349.544 471.8Z" fill="#620F0E"/>
<path d="M326.463 500.959C320.156 493.507 324.455 482.226 333.313 482.879C341.053 483.491 346.554 493.486 341.093 501.31C336.087 507.045 329.518 504.554 326.463 500.959Z" fill="#620F0E"/>
<path d="M304.967 529.417C298.601 522.022 302.438 510.965 311.094 511.702C318.661 512.368 324.307 522.279 319.221 529.964C314.532 535.559 308.079 533.013 304.967 529.417Z" fill="#620F0E"/>
<path d="M285.175 556.95C278.921 549.786 282.236 539.181 290.433 539.97C297.483 540.688 303.246 550.428 298.71 557.632C294.427 562.945 288.203 560.401 285.176 556.892L285.175 556.95Z" fill="#620F0E"/>
<path d="M267.004 583.47C261.258 577.001 263.355 567.472 270.499 567.53C277.384 567.615 283.75 577.334 279.619 584.313C275.828 589.259 269.947 586.777 266.975 583.441L267.004 583.47Z" fill="#620F0E"/>
<path d="M250.478 609.063C245.043 603.028 246.642 594.325 253.124 594.519C259.348 594.682 265.493 603.709 261.943 610.064C258.675 614.5 253.281 612.168 250.478 609.063Z" fill="#620F0E"/>
<path d="M235.514 633.699C230.502 628.214 231.573 620.423 237.308 620.722C242.843 620.991 248.596 629.21 245.686 634.827C242.941 638.754 238.091 636.513 235.486 633.67L235.514 633.699Z" fill="#620F0E"/>
<path d="M222.083 657.35C217.523 652.445 218.209 645.653 223.197 646.001C227.985 646.318 233.261 653.642 230.964 658.492C228.595 662.107 224.263 659.701 222.083 657.35Z" fill="#620F0E"/>
<path d="M210.185 680.016C206.389 675.953 206.399 670.501 210.216 670.404C214.321 670.311 219.548 676.888 217.716 681.227C215.96 684.075 212.281 682.222 210.185 680.016Z" fill="#620F0E"/>
<path d="M199.791 701.668C196.647 698.33 196.445 693.765 199.429 693.801C202.728 693.813 207.194 699.32 205.889 702.804C204.599 705.084 201.548 703.526 199.791 701.668Z" fill="#620F0E"/>
<path d="M190.93 722.276C188.351 719.633 188.022 716.042 190.346 716.099C192.812 716.187 196.574 720.68 195.71 723.281C194.77 725.049 192.347 723.728 190.931 722.218L190.93 722.276Z" fill="#620F0E"/>
<path d="M183.575 741.812C181.619 739.808 181.249 737.278 182.911 737.413C184.574 737.548 187.549 740.655 186.979 742.685C186.389 743.998 184.567 742.828 183.575 741.812Z" fill="#620F0E"/>
<path d="M177.727 760.22C176.48 758.942 176.096 757.445 176.986 757.427C178.048 757.412 180.115 759.646 179.842 760.877C179.517 761.647 178.378 760.887 177.727 760.22Z" fill="#620F0E"/>
<path d="M505.75 244.653C502.867 241.06 505.742 235.93 510.327 236.445C514.281 236.896 516.688 241.803 513.432 245.264C510.503 247.781 507.192 246.421 505.75 244.653Z" fill="#620F0E"/>
<path d="M477.552 272.169C474.076 267.794 477.541 261.294 483.043 261.936C487.483 262.478 491.115 268.175 486.869 272.829C483.329 275.999 479.275 274.343 477.552 272.169Z" fill="#620F0E"/>
<path d="M449.865 300.094C445.712 294.85 449.649 287.265 456.125 287.976C461.713 288.59 465.184 295.691 460.732 300.772C456.611 304.567 451.9 302.644 449.865 300.094Z" fill="#620F0E"/>
<path d="M422.688 328.541C417.884 322.513 422.267 313.701 429.689 314.509C436.137 315.191 440.113 323.216 434.989 329.236C430.401 333.656 425.034 331.467 422.688 328.541Z" fill="#620F0E"/>
<path d="M396.14 357.282C390.827 350.618 395.596 340.748 403.707 341.508C410.7 342.167 415.179 351.289 409.703 357.994C404.678 362.953 398.768 360.557 396.169 357.254L396.14 357.282Z" fill="#620F0E"/>
<path d="M370.247 386.348C364.567 379.191 369.609 368.148 378.207 368.942C385.745 369.637 390.73 379.626 384.901 387.015C379.525 392.544 373.1 389.969 370.247 386.348Z" fill="#620F0E"/>
<path d="M345.212 415.537C338.995 407.714 344.074 395.954 353.361 396.756C361.358 397.457 366.793 408.197 360.669 416.214C355.087 422.171 348.235 419.39 345.154 415.536L345.212 415.537Z" fill="#620F0E"/>
<path d="M321.096 444.796C314.512 436.538 319.627 424.177 329.229 425.011C337.484 425.744 343.228 437.033 337.042 445.451C331.399 451.694 324.289 448.824 321.068 444.767L321.096 444.796Z" fill="#620F0E"/>
<path d="M298.042 474.041C291.259 465.579 296.178 452.842 305.895 453.678C314.264 454.412 320.263 466.02 314.188 474.726C308.28 481.512 301.15 477.924 298.042 474.041Z" fill="#620F0E"/>
<path d="M276.574 502.47C269.762 494.037 274.19 481.552 283.619 482.499C291.758 483.345 297.929 494.898 292.258 503.379C287.017 509.628 279.938 506.614 276.574 502.47Z" fill="#620F0E"/>
<path d="M256.783 530.003C250.055 521.772 253.903 509.739 262.9 510.824C270.664 511.752 276.839 523.018 271.718 531.133C266.94 537.1 260.091 534.032 256.783 530.003Z" fill="#620F0E"/>
<path d="M238.698 556.553C232.252 548.67 235.403 537.432 243.737 538.653C250.927 539.688 256.994 550.321 252.541 557.842C248.284 563.414 241.864 560.437 238.698 556.553Z" fill="#620F0E"/>
<path d="M222.2 582.117C216.404 575.131 218.304 565.226 225.387 565.571C232.24 565.913 238.827 576.381 234.807 583.591C231.131 588.596 225.226 585.741 222.172 582.088L222.2 582.117Z" fill="#620F0E"/>
<path d="M207.352 606.641C202.093 600.321 203.434 591.586 209.597 592.035C215.589 592.481 221.671 601.91 218.38 608.239C215.342 612.621 210.096 609.917 207.352 606.641Z" fill="#620F0E"/>
<path d="M193.952 630.264C189.2 624.64 190.068 616.989 195.399 617.513C200.586 618.007 206.136 626.425 203.515 631.873C201.03 635.659 196.44 633.221 193.952 630.264Z" fill="#620F0E"/>
<path d="M182.11 652.873C177.924 647.943 178.377 641.436 182.846 642.007C187.2 642.577 192.19 649.897 190.211 654.492C188.279 657.625 184.317 655.425 182.139 652.844L182.11 652.873Z" fill="#620F0E"/>
<path d="M171.774 674.525C168.351 670.552 168.242 665.386 171.54 665.512C175.155 665.614 179.953 672.1 178.412 676.098C176.858 678.805 173.529 676.555 171.774 674.525Z" fill="#620F0E"/>
<path d="M162.943 695.105C160.17 691.915 159.876 687.779 162.428 687.954C165.18 688.16 169.189 693.488 168.177 696.517C167.119 698.513 164.5 696.874 162.943 695.105Z" fill="#620F0E"/>
<path d="M155.588 714.641C153.381 712.089 152.959 709.042 154.907 709.296C156.97 709.55 160.134 713.606 159.504 715.865C158.826 717.32 156.805 716.004 155.617 714.613L155.588 714.641Z" fill="#620F0E"/>
<path d="M149.737 733.105C148.379 731.539 147.688 729.378 148.893 729.393C150.184 729.437 152.701 732.424 152.365 734.055C151.951 735.025 150.586 734.091 149.737 733.105Z" fill="#620F0E"/>
<path d="M145.423 750.355C144.546 749.397 144.357 748.39 144.874 748.397C145.533 748.434 146.947 750.115 146.823 750.917C146.672 751.46 145.876 750.877 145.395 750.326L145.423 750.355Z" fill="#620F0E"/>
<path d="M142.333 766.069L142.646 766.217L142.927 766.737L142.585 766.56L142.333 766.069Z" fill="#620F0E"/>
<path d="M507.043 190.668C504.612 187.654 507.191 183.21 511.087 183.717C514.21 184.128 516.717 187.975 513.636 191.151C510.94 193.442 508.144 192.088 507.042 190.726L507.043 190.668Z" fill="#620F0E"/>
<path d="M478.593 217.52C475.542 213.638 478.681 208.024 483.638 208.572C487.879 209.026 490.397 214.279 486.879 218.052C483.66 220.854 480.119 219.433 478.593 217.52Z" fill="#620F0E"/>
<path d="M450.367 245.008C446.637 240.256 450.453 233.245 456.501 233.806C461.688 234.3 464.765 240.823 460.46 245.591C456.572 249.101 452.203 247.355 450.367 245.008Z" fill="#620F0E"/>
<path d="M422.679 272.989C418.273 267.311 422.65 259.015 429.671 259.704C435.632 260.293 439.297 267.942 434.38 273.534C429.881 277.697 424.827 275.713 422.708 272.961L422.679 272.989Z" fill="#620F0E"/>
<path d="M395.591 301.352C390.648 294.95 395.47 285.426 403.323 286.153C410.058 286.781 414.169 295.525 408.667 301.971C403.673 306.788 398.02 304.481 395.591 301.352Z" fill="#620F0E"/>
<path d="M369.011 330.121C363.504 322.966 368.743 312.184 377.399 312.979C384.994 313.674 389.554 323.285 383.408 330.756C377.976 336.17 371.723 333.655 369.04 330.15L369.011 330.121Z" fill="#620F0E"/>
<path d="M343.177 359.13C337.191 351.252 342.701 339.412 352.046 340.215C360.042 340.915 365.133 351.709 358.75 359.751C352.91 365.734 346.143 362.983 343.235 359.131L343.177 359.13Z" fill="#620F0E"/>
<path d="M318.055 388.463C311.561 379.89 317.315 366.905 327.319 367.745C335.918 368.481 341.426 380.227 334.69 389.068C328.526 395.649 321.246 392.662 318.055 388.463Z" fill="#620F0E"/>
<path d="M293.966 417.75C287.106 408.627 292.897 394.925 303.216 395.855C312.101 396.653 317.974 409.12 311.145 418.448C304.863 425.372 297.298 422.209 293.966 417.75Z" fill="#620F0E"/>
<path d="M270.943 446.908C263.884 437.525 269.508 423.419 279.912 424.379C288.826 425.205 294.953 438.049 288.236 447.608C282.037 454.734 274.387 451.484 270.943 446.908Z" fill="#620F0E"/>
<path d="M249.562 475.311C242.475 465.899 247.581 451.959 257.725 453.059C266.465 453.998 272.763 466.901 266.45 476.35C260.626 483.338 253.063 479.945 249.619 475.312L249.562 475.311Z" fill="#620F0E"/>
<path d="M229.945 502.674C223.028 493.494 227.409 480.148 237.006 481.384C245.257 482.461 251.531 494.991 245.826 503.959C240.523 510.551 233.362 507.164 229.945 502.674Z" fill="#620F0E"/>
<path d="M212.004 529.025C205.369 520.249 209.021 507.841 217.813 509.24C225.374 510.423 231.512 522.291 226.591 530.552C221.925 536.635 215.251 533.34 212.004 529.025Z" fill="#620F0E"/>
<path d="M195.655 554.391C189.471 546.252 192.392 535.011 200.266 536.399C207.109 537.602 212.971 548.606 208.747 556.129C204.749 561.618 198.676 558.416 195.598 554.39L195.655 554.391Z" fill="#620F0E"/>
<path d="M180.864 578.856C175.527 571.819 177.166 562.169 183.644 562.707C189.922 563.215 196.048 573.734 192.433 580.72C189.103 585.557 183.66 582.535 180.864 578.856Z" fill="#620F0E"/>
<path d="M167.608 602.339C162.723 595.938 163.83 587.487 169.417 588.215C174.802 588.912 180.398 598.249 177.542 604.211C174.822 608.395 170.064 605.611 167.551 602.338L167.608 602.339Z" fill="#620F0E"/>
<path d="M155.884 624.834C151.562 619.243 152.195 612.049 156.92 612.824C161.445 613.568 166.452 621.721 164.267 626.744C162.159 630.219 158.115 627.702 155.884 624.834Z" fill="#620F0E"/>
<path d="M145.605 646.371C142.103 641.852 142.116 636.114 145.585 636.357C149.369 636.575 154.187 643.837 152.497 648.263C150.885 651.084 147.497 648.891 145.576 646.4L145.605 646.371Z" fill="#620F0E"/>
<path d="M136.804 666.866C133.923 663.158 133.694 658.449 136.387 658.769C139.338 659.121 143.426 665.111 142.293 668.54C141.147 670.793 138.387 668.894 136.804 666.866Z" fill="#620F0E"/>
<path d="M129.507 686.287C127.191 683.332 126.832 679.827 128.865 680.168C131.07 680.51 134.284 685.198 133.564 687.772C132.797 689.484 130.637 687.793 129.479 686.258L129.507 686.287Z" fill="#620F0E"/>
<path d="M123.717 704.639C122.135 702.611 121.676 700.281 122.88 700.353C124.314 700.428 126.91 703.96 126.543 705.85C126.099 706.963 124.649 705.826 123.745 704.668L123.717 704.639Z" fill="#620F0E"/>
<path d="M119.402 721.887C118.385 720.612 118 719.173 118.746 719.239C119.606 719.307 121.328 721.595 121.171 722.712C120.963 723.312 120.109 722.728 119.431 721.859L119.402 721.887Z" fill="#620F0E"/>
<path d="M116.118 737.055L116.745 737.349L117.249 738.389L116.651 738.066L116.118 737.055Z" fill="#620F0E"/>
<path d="M509.26 138.387C507.309 136.038 509.359 132.62 512.54 132.975C515.262 133.266 516.859 136.471 514.506 138.766C512.449 140.434 510.192 139.574 509.26 138.387Z" fill="#620F0E"/>
<path d="M480.736 164.407C478.192 161.277 480.918 156.634 485.073 157.058C488.655 157.417 490.669 161.688 487.676 164.779C484.95 167.099 481.98 165.915 480.736 164.407Z" fill="#620F0E"/>
<path d="M452.403 191.204C449.239 187.206 452.611 181.25 457.856 181.745C462.327 182.144 464.9 187.627 461.121 191.655C457.698 194.655 453.957 193.203 452.432 191.233L452.403 191.204Z" fill="#620F0E"/>
<path d="M424.379 218.549C420.565 213.653 424.643 206.329 430.892 206.865C436.28 207.332 439.383 214.056 434.817 219.021C430.726 222.73 426.242 220.982 424.379 218.549Z" fill="#620F0E"/>
<path d="M396.75 246.417C392.288 240.566 396.986 231.843 404.237 232.477C410.486 233.013 414.119 240.977 408.91 246.91C404.15 251.328 398.924 249.284 396.75 246.417Z" fill="#620F0E"/>
<path d="M369.719 274.723C364.496 267.801 370.651 257.203 378.924 258.768C384.907 259.902 389.281 268.277 383.314 275.234C378.029 280.334 372.146 278.024 369.719 274.723Z" fill="#620F0E"/>
<path d="M343.256 303.379C337.499 295.561 344.159 283.563 353.32 285.282C359.933 286.539 364.78 296.039 358.256 303.936C352.447 309.718 345.966 307.085 343.228 303.35L343.256 303.379Z" fill="#620F0E"/>
<path d="M317.423 332.389C311.045 323.645 318.21 310.247 328.201 312.177C336.101 313.708 340.328 324.721 333.8 332.962C327.494 339.456 320.442 336.529 317.423 332.389Z" fill="#620F0E"/>
<path d="M292.533 361.493C285.705 351.998 293.172 337.399 303.762 339.537C311.405 341.036 317.204 352.556 309.856 362.107C303.256 369.171 295.748 366.009 292.533 361.493Z" fill="#620F0E"/>
<path d="M268.444 390.781C261.252 380.622 268.875 364.963 279.952 367.193C287.995 368.812 294.156 381.168 286.57 391.462C279.763 399.012 271.857 395.615 268.444 390.781Z" fill="#620F0E"/>
<path d="M245.478 419.884C238.033 409.233 245.55 392.941 256.826 395.317C264.982 397.053 271.395 409.957 263.833 420.625C256.644 428.944 248.749 424.572 245.45 419.854L245.478 419.884Z" fill="#620F0E"/>
<path d="M224.331 448.002C216.914 437.38 223.767 421.396 234.639 423.939C242.565 425.786 249.063 438.721 242.02 449.165C235.322 457.232 227.602 452.69 224.302 447.972L224.331 448.002Z" fill="#620F0E"/>
<path d="M204.945 475.137C197.981 465.095 202.979 450.638 212.89 452.022C221.483 453.217 227.743 466.894 221.541 476.632C215.8 483.821 208.386 480.057 204.945 475.137Z" fill="#620F0E"/>
<path d="M187.267 501.176C180.726 491.742 184.849 478.421 193.84 479.908C201.629 481.209 207.612 494.022 202.281 502.909C197.266 509.447 190.51 505.835 187.267 501.176Z" fill="#620F0E"/>
<path d="M171.121 526.286C165.06 517.518 168.364 505.449 176.378 507.04C183.334 508.416 189.014 520.279 184.525 528.287C180.294 534.117 174.139 530.598 171.15 526.258L171.121 526.286Z" fill="#620F0E"/>
<path d="M156.478 550.554C150.924 542.481 153.437 531.752 160.504 533.416C166.598 534.84 171.918 545.636 168.216 552.707C164.681 557.857 159.241 554.548 156.478 550.554Z" fill="#620F0E"/>
<path d="M143.368 573.779C138.631 566.892 139.976 557.87 145.618 558.714C151.089 559.498 156.503 569.636 153.469 575.998C150.632 580.41 145.849 577.368 143.368 573.779Z" fill="#620F0E"/>
<path d="M131.759 596.103C127.587 590.084 128.427 582.404 133.15 583.294C137.702 584.125 142.558 592.936 140.197 598.301C137.971 602.004 133.902 599.228 131.759 596.103Z" fill="#620F0E"/>
<path d="M121.57 617.441C118.046 612.319 118.439 605.982 122.245 606.861C125.936 607.681 130.12 615.164 128.402 619.562C126.759 622.526 123.402 620.132 121.57 617.441Z" fill="#620F0E"/>
<path d="M112.857 637.794C110.01 633.656 109.898 628.719 112.648 629.097C115.599 629.506 119.621 636.069 118.371 639.784C117.165 642.15 114.436 640.051 112.857 637.794Z" fill="#620F0E"/>
<path d="M105.62 657.102C103.307 653.803 103.067 649.955 105.128 650.382C107.361 650.811 110.626 656.016 109.816 658.846C109.02 660.644 106.86 658.896 105.62 657.102Z" fill="#620F0E"/>
<path d="M99.8871 675.338C98.2803 672.994 97.8245 670.377 99.1145 670.479C100.605 670.612 103.309 674.72 102.853 676.809C102.35 678.037 100.817 676.698 99.8871 675.338Z" fill="#620F0E"/>
<path d="M95.6319 692.416C94.5883 690.939 94.2354 689.3 95.0083 689.452C95.9242 689.636 97.6147 692.182 97.4278 693.384C97.2175 694.157 96.225 693.198 95.661 692.387L95.6319 692.416Z" fill="#620F0E"/>
<path d="M92.8239 708.42C92.345 707.697 92.1247 706.948 92.4392 707.038C92.8394 707.158 93.6853 708.373 93.6493 708.975C93.5593 709.29 93.1343 708.854 92.8523 708.449L92.8239 708.42Z" fill="#620F0E"/>
<path d="M512.054 88.3225C510.754 86.7571 512.216 84.4795 514.395 84.6784C516.114 84.8716 517.466 86.8967 515.782 88.5403C514.333 89.6703 512.734 89.0768 512.083 88.2941L512.054 88.3225Z" fill="#620F0E"/>
<path d="M483.569 113.453C481.618 111.105 483.814 107.546 487.082 107.815C489.919 108.051 491.515 111.313 489.047 113.721C486.873 115.502 484.531 114.613 483.569 113.453Z" fill="#620F0E"/>
<path d="M455.248 139.333C452.704 136.203 455.691 131.304 459.876 131.642C463.602 131.917 465.7 136.333 462.504 139.623C459.605 142.055 456.52 140.927 455.219 139.361L455.248 139.333Z" fill="#620F0E"/>
<path d="M427.177 165.818C423.872 161.617 428.111 155.155 433.523 156.054C437.475 156.733 440.195 161.845 436.155 166.129C432.559 169.241 428.759 167.846 427.177 165.818Z" fill="#620F0E"/>
<path d="M399.442 192.937C395.517 187.81 400.521 179.866 406.992 180.978C412.174 181.874 414.707 188.246 410.084 193.268C405.847 197.119 401.306 195.37 399.442 192.937Z" fill="#620F0E"/>
<path d="M372.075 220.55C367.559 214.469 373.27 205.041 380.742 206.367C386.096 207.322 389.851 214.713 384.381 220.901C379.476 225.461 374.249 223.475 372.075 220.55Z" fill="#620F0E"/>
<path d="M345.277 248.571C340.169 241.536 346.558 230.653 354.889 232.161C360.93 233.239 365.187 241.785 359.045 248.969C353.586 254.239 347.675 251.9 345.248 248.542L345.277 248.571Z" fill="#620F0E"/>
<path d="M318.989 277.057C313.319 269.097 320.358 256.673 329.577 258.335C336.276 259.565 341.006 269.293 334.22 277.502C328.178 283.511 321.669 280.849 318.961 277.028L318.989 277.057Z" fill="#620F0E"/>
<path d="M293.357 305.868C287.155 296.897 294.757 282.959 304.805 284.832C312.85 286.336 316.9 297.691 310.023 306.33C303.484 313.107 296.318 310.122 293.386 305.839L293.357 305.868Z" fill="#620F0E"/>
<path d="M268.527 334.859C261.79 324.935 269.784 309.538 280.603 311.737C288.417 313.296 294.151 325.388 286.366 335.479C279.417 342.941 271.74 339.604 268.527 334.859Z" fill="#620F0E"/>
<path d="M244.584 363.948C237.428 353.186 245.723 336.531 257.057 338.85C265.329 340.53 271.423 353.689 263.312 364.665C256.068 372.754 247.993 369.068 244.556 363.919L244.584 363.948Z" fill="#620F0E"/>
<path d="M221.792 392.937C214.357 381.483 222.605 363.966 234.281 366.519C242.751 368.402 249.18 382.311 241.005 393.861C233.699 402.35 225.397 398.433 221.82 392.966L221.792 392.937Z" fill="#620F0E"/>
<path d="M200.877 420.771C193.302 409 200.77 392.018 212.299 394.828C221.339 397.005 226.498 411.529 219.338 422.144C212.495 430.353 204.453 426.295 200.906 420.742L200.877 420.771Z" fill="#620F0E"/>
<path d="M181.842 447.452C174.578 436.058 181.058 420.098 191.753 423.041C200.132 425.353 205.212 439.274 198.864 449.21C192.774 456.854 185.248 452.802 181.842 447.452Z" fill="#620F0E"/>
<path d="M164.484 473.064C158.123 463 162.656 448.939 171.731 450.628C179.604 452.073 185.291 465.686 179.667 475.086C174.418 481.965 167.637 478.037 164.484 473.064Z" fill="#620F0E"/>
<path d="M148.6 497.862C142.803 488.609 146.429 476 154.413 477.733C161.339 479.252 166.666 491.742 161.944 500.091C157.537 506.206 151.499 502.46 148.6 497.862Z" fill="#620F0E"/>
<path d="M134.22 521.703C129.015 513.289 131.762 502.218 138.655 503.996C144.633 505.532 149.574 516.812 145.697 524.11C142.103 529.374 136.809 525.866 134.22 521.703Z" fill="#620F0E"/>
<path d="M121.256 544.728C116.782 537.529 118.36 528.165 123.887 529.065C129.242 529.963 134.362 540.613 131.154 547.202C128.229 551.758 123.592 548.458 121.257 544.671L121.256 544.728Z" fill="#620F0E"/>
<path d="M109.766 566.825C105.827 560.464 106.843 552.442 111.451 553.446C115.915 554.418 120.421 563.742 118 569.279C115.715 573.095 111.792 570.121 109.766 566.825Z" fill="#620F0E"/>
<path d="M99.695 587.935C96.3473 582.471 96.8879 575.821 100.635 576.813C104.296 577.776 108.243 585.773 106.437 590.37C104.706 593.477 101.439 590.826 99.6659 587.963L99.695 587.935Z" fill="#620F0E"/>
<path d="M91.1273 608.03C88.4832 603.693 88.4883 598.586 91.1511 599.049C94.0144 599.543 97.7178 606.417 96.4375 610.218C95.1435 612.785 92.506 610.256 91.1273 608.03Z" fill="#620F0E"/>
<path d="M83.9499 627.167C81.8116 623.698 81.6596 619.708 83.6339 620.162C85.8087 620.648 88.8113 626.165 87.9715 629.139C87.1457 630.965 85.1026 629.104 83.9208 627.196L83.9499 627.167Z" fill="#620F0E"/>
<path d="M78.2771 645.174C76.6738 642.544 76.3936 639.642 77.7658 640.061C79.3094 640.539 81.6113 644.699 81.1554 646.788C80.6518 648.073 79.1492 646.591 78.2771 645.174Z" fill="#620F0E"/>
<path d="M74.0521 662.109C73.0396 660.432 72.6605 658.591 73.4333 658.744C74.3493 658.928 76.0915 661.933 75.9025 663.308C75.6341 664.137 74.6436 663.006 74.0521 662.109Z" fill="#620F0E"/>
<path d="M71.2759 677.972C70.7693 677.162 70.4661 676.154 70.8663 676.274C71.2949 676.422 72.223 677.954 72.1863 678.614C72.0949 679.043 71.5863 678.406 71.305 677.943L71.2759 677.972Z" fill="#620F0E"/>
<path d="M515.046 40.8423C514.252 40.0292 515.184 38.8929 516.274 38.9636C517.306 39.0336 517.895 40.1025 516.996 40.9236C516.185 41.5449 515.357 41.2191 515.017 40.8706L515.046 40.8423Z" fill="#620F0E"/>
<path d="M486.948 64.8018C485.647 63.2938 487.109 61.0163 489.23 61.2144C490.95 61.3502 492.247 63.2599 490.533 64.9318C489.085 66.0618 487.57 65.5555 486.948 64.8018Z" fill="#620F0E"/>
<path d="M458.782 89.6782C456.831 87.3301 459.026 83.7703 462.352 83.9832C465.248 84.1621 466.816 87.3376 464.318 89.832C462.115 91.6415 459.772 90.8094 458.81 89.7072L458.782 89.6782Z" fill="#620F0E"/>
<path d="M430.838 115.189C428.237 112.001 431.223 107.159 435.552 107.471C439.308 107.717 441.321 111.989 438.067 115.335C435.138 117.795 432.081 116.754 430.838 115.189Z" fill="#620F0E"/>
<path d="M403.029 141.42C399.752 137.248 404.079 130.644 409.55 131.486C413.903 132.17 415.932 137.503 412.066 141.559C408.411 144.785 404.583 143.419 403.029 141.42Z" fill="#620F0E"/>
<path d="M375.7 168.141C371.86 163.044 376.922 155.043 383.337 156.098C388.462 156.935 390.822 163.42 386.285 168.357C382.02 172.236 377.536 170.545 375.7 168.141Z" fill="#620F0E"/>
<path d="M348.74 195.416C344.337 189.394 350.192 179.939 357.522 181.177C362.849 182.045 366.46 189.406 360.874 195.65C355.969 200.267 350.799 198.282 348.711 195.444L348.74 195.416Z" fill="#620F0E"/>
<path d="M322.173 223.209C317.238 216.176 323.8 205.124 332.104 206.545C338.718 207.688 341.823 216.621 335.914 223.464C330.367 228.876 324.514 226.538 322.173 223.209Z" fill="#620F0E"/>
<path d="M296.234 251.298C290.795 243.284 298.036 230.719 307.112 232.35C313.754 233.522 318.254 243.304 311.323 251.655C305.222 257.778 298.798 255.146 296.205 251.327L296.234 251.298Z" fill="#620F0E"/>
<path d="M270.952 279.711C265.008 270.657 272.756 256.577 282.689 258.449C290.562 259.952 294.353 271.389 287.389 280.056C280.763 286.918 273.769 283.992 270.952 279.711Z" fill="#620F0E"/>
<path d="M246.355 308.42C239.851 298.269 248.193 282.532 258.897 284.729C266.682 286.316 272.303 298.293 264.11 308.953C256.608 317.01 249.256 312.903 246.384 308.392L246.355 308.42Z" fill="#620F0E"/>
<path d="M222.615 337.31C215.665 326.12 224.398 308.867 235.789 311.302C244.059 313.097 250.124 326.284 241.43 337.999C233.953 346.372 225.936 342.63 222.615 337.31Z" fill="#620F0E"/>
<path d="M199.94 366.07C192.459 353.697 201.232 335.498 213.308 338.229C221.92 340.199 228.082 354.88 219.468 367.084C211.376 376.511 203.173 371.475 199.94 366.07Z" fill="#620F0E"/>
<path d="M179.258 393.62C171.837 381.077 179.92 363.041 191.647 366.054C200.829 368.433 205.747 383.873 198.149 395.143C190.926 403.892 182.744 399.517 179.287 393.592L179.258 393.62Z" fill="#620F0E"/>
<path d="M160.777 419.649C153.864 407.743 160.753 391.156 171.302 394.298C179.65 396.811 184.44 411.015 177.683 421.578C171.388 429.478 164.008 425.227 160.777 419.649Z" fill="#620F0E"/>
<path d="M143.741 444.834C137.786 434.374 142.611 419.914 151.484 421.745C159.154 423.331 164.462 437.427 158.635 447.025C153.297 454.104 146.69 450.007 143.741 444.834Z" fill="#620F0E"/>
<path d="M128.178 469.148C122.786 459.556 126.617 446.633 134.37 448.536C141.092 450.196 145.956 463.082 141.175 471.603C136.68 477.803 130.903 473.916 128.207 469.12L128.178 469.148Z" fill="#620F0E"/>
<path d="M114.003 492.676C109.118 483.893 112.098 472.538 118.788 474.514C124.591 476.221 129.096 487.925 125.189 495.367C121.508 500.716 116.446 497.039 114.031 492.705L114.003 492.676Z" fill="#620F0E"/>
<path d="M101.272 515.302C96.9779 507.474 99.1644 497.63 104.822 499.593C109.707 501.288 113.799 511.639 110.68 517.971C107.725 522.554 103.405 519.173 101.272 515.302Z" fill="#620F0E"/>
<path d="M89.9304 537.086C86.3383 530.499 87.4999 522.336 91.9337 523.452C96.1961 524.508 100.296 534.114 97.7887 539.735C95.4748 543.581 91.8398 540.495 89.9595 537.057L89.9304 537.086Z" fill="#620F0E"/>
<path d="M80.005 557.939C76.9187 552.22 77.6052 545.371 81.1783 546.476C84.6658 547.552 88.2652 555.888 86.4005 560.542C84.6405 563.677 81.6041 560.914 80.005 557.939Z" fill="#620F0E"/>
<path d="M71.5557 577.748C69.0866 573.184 69.2093 567.848 71.756 568.425C74.5031 569.032 77.887 576.218 76.5769 580.105C75.3418 582.557 72.8743 580.203 71.5557 577.748Z" fill="#620F0E"/>
<path d="M64.4958 596.599C62.5042 592.873 62.3834 588.682 64.3272 589.28C66.4142 589.908 69.1831 595.767 68.3433 598.741C67.5168 600.624 65.6188 598.621 64.4958 596.599Z" fill="#620F0E"/>
<path d="M58.8839 614.379C57.3685 611.605 57.1762 608.562 58.4895 609.094C59.9177 609.628 62.0447 614.016 61.5597 616.133C61.0561 617.418 59.6973 615.909 58.8839 614.379Z" fill="#620F0E"/>
<path d="M54.7199 631.084C53.7662 629.294 53.4451 627.396 54.1889 627.577C55.0468 627.817 56.6728 630.936 56.4541 632.397C56.185 633.283 55.2534 632.038 54.7199 631.084Z" fill="#620F0E"/>
<path d="M51.9746 646.688C51.4411 645.735 51.2525 644.728 51.5954 644.847C52.024 644.996 52.9209 646.729 52.8544 647.474C52.7638 647.846 52.3968 647.353 52.1148 646.948C52.0582 646.89 52.0022 646.775 51.9746 646.688Z" fill="#620F0E"/>
<path d="M50.6814 660.991L50.7379 661.049L50.7647 661.192L50.7372 661.106L50.6814 660.991Z" fill="#620F0E"/>
<path d="M490.177 19.0178C489.469 18.2918 490.258 17.125 491.405 17.1964C492.408 17.2374 492.969 18.2772 492.099 19.07C491.288 19.6913 490.488 19.3946 490.148 19.0461L490.177 19.0178Z" fill="#620F0E"/>
<path d="M462.544 42.5811C461.298 41.1885 462.788 38.9974 464.824 39.1084C466.488 39.1861 467.757 41.0093 466.044 42.6239C464.566 43.7823 463.11 43.2192 462.544 42.5811Z" fill="#620F0E"/>
<path d="M434.813 67.0325C432.947 64.8289 435.17 61.3556 438.353 61.4806C441.135 61.6008 442.647 64.6608 440.179 67.0695C438.005 68.8506 435.747 68.1056 434.813 67.0325Z" fill="#620F0E"/>
<path d="M407.363 92.1198C404.819 88.9897 408.18 84.0095 412.476 84.636C415.856 85.1365 417.501 89.0302 414.421 92.1488C411.55 94.61 408.579 93.598 407.363 92.1198Z" fill="#620F0E"/>
<path d="M380.046 117.925C376.854 113.782 381.064 107.464 386.506 108.219C390.717 108.816 392.633 113.976 388.855 117.947C385.258 121.116 381.544 119.808 380.075 117.896L380.046 117.925Z" fill="#620F0E"/>
<path d="M353.182 144.194C349.541 139.3 354.571 131.5 360.758 132.436C365.283 133.123 368.397 138.929 363.453 144.32C359.246 148.142 354.904 146.539 353.153 144.222L353.182 144.194Z" fill="#620F0E"/>
<path d="M326.658 170.985C322.511 165.167 328.306 155.884 335.379 157.032C341.078 157.934 343.658 165.168 338.421 171.072C333.602 175.604 328.632 173.764 326.658 170.985Z" fill="#620F0E"/>
<path d="M300.556 198.326C295.905 191.526 302.465 180.703 310.426 182.006C316.783 183.059 319.603 191.759 313.811 198.488C308.351 203.816 302.783 201.596 300.584 198.355L300.556 198.326Z" fill="#620F0E"/>
<path d="M275.054 225.933C269.872 217.95 276.965 205.813 285.898 207.357C292.254 208.468 296.384 217.988 289.57 226.168C283.557 232.206 277.447 229.664 275.025 225.961L275.054 225.933Z" fill="#620F0E"/>
<path d="M250.12 253.948C244.605 245.1 252.436 231.165 261.913 232.916C268.841 234.206 273.385 245.022 266.013 254.257C259.822 260.695 253.216 258.921 250.12 253.948Z" fill="#620F0E"/>
<path d="M226.017 282.116C220.084 272.202 228.393 256.78 238.554 258.885C245.967 260.381 251.103 272.151 242.969 282.64C235.583 290.583 228.66 286.568 226.017 282.116Z" fill="#620F0E"/>
<path d="M202.686 310.495C196.196 299.196 204.779 282.487 215.853 284.947C224.582 286.861 228.633 300.483 220.667 311.26C213.307 319.52 205.721 315.754 202.686 310.495Z" fill="#620F0E"/>
<path d="M180.332 338.83C173.538 326.581 182.367 308.554 193.868 311.278C202.88 313.425 207.085 328.598 199.056 339.891C191.051 349.233 183.307 344.203 180.36 338.859L180.332 338.83Z" fill="#620F0E"/>
<path d="M160.058 365.927C153.353 353.478 161.549 335.616 172.587 338.62C181.31 340.994 185.626 356.398 178.029 367.553C170.893 376.217 163.2 371.819 160.058 365.927Z" fill="#620F0E"/>
<path d="M141.812 391.499C135.587 379.658 142.589 363.188 152.507 366.38C159.623 368.676 164.875 382.657 157.855 393.532C151.298 401.801 144.532 396.668 141.784 391.47L141.812 391.499Z" fill="#620F0E"/>
<path d="M125.154 416.2C119.493 405.17 125.268 390.463 133.98 393.698C140.207 396.012 145.013 408.897 139.156 418.523C133.877 425.489 127.788 421.34 125.154 416.2Z" fill="#620F0E"/>
<path d="M109.825 440.115C105.007 430.53 109.008 417.782 116.215 419.764C122.506 421.505 126.767 434.354 121.959 442.731C117.318 449.188 112.066 444.561 109.825 440.115Z" fill="#620F0E"/>
<path d="M95.9125 463.215C91.6012 454.439 94.6942 443.2 100.896 445.256C106.296 447.073 110.199 458.741 106.322 466.039C102.729 471.304 98.0686 467.574 95.9125 463.215Z" fill="#620F0E"/>
<path d="M83.3876 485.471C79.5814 477.62 81.9103 467.864 87.1071 469.936C91.6189 471.713 95.1647 482.086 92.1328 488.332C89.2657 492.831 85.2914 489.339 83.3876 485.471Z" fill="#620F0E"/>
<path d="M72.2224 506.912C69.061 500.303 70.365 492.227 74.4539 493.396C78.428 494.564 82.0112 504.22 79.5041 509.785C77.2483 513.573 73.9016 510.376 72.2508 506.942L72.2224 506.912Z" fill="#620F0E"/>
<path d="M62.4752 527.367C59.7622 521.624 60.591 514.862 63.8766 516.021C67.1047 517.18 70.2451 525.511 68.3804 530.165C66.6785 533.243 63.9014 530.397 62.4752 527.367Z" fill="#620F0E"/>
<path d="M54.1448 546.891C51.8796 542.072 52.3196 536.597 54.8593 537.747C57.3422 538.839 59.983 545.787 58.7622 549.416C57.5561 551.84 55.3195 549.373 54.1448 546.891Z" fill="#620F0E"/>
<path d="M47.2023 565.398C45.4402 561.675 45.4625 557.515 47.2051 558.139C49.1192 558.822 51.5149 564.705 50.6467 567.65C49.8493 569.505 48.1241 567.447 47.174 565.369L47.2023 565.398Z" fill="#620F0E"/>
<path d="M41.7092 582.892C40.4232 580.122 40.2876 577.136 41.4579 577.638C42.7423 578.199 44.6107 582.612 44.1257 584.729C43.6222 586.014 42.4078 584.421 41.7092 582.892Z" fill="#620F0E"/>
<path d="M37.577 599.34C36.7381 597.551 36.5034 595.626 37.1608 595.835C37.9606 596.131 39.3281 599.276 39.1384 600.708C38.8991 601.509 38.2225 600.525 37.8292 599.831C37.7449 599.687 37.6613 599.485 37.6054 599.369L37.577 599.34Z" fill="#620F0E"/>
<path d="M34.8936 614.659C34.5025 613.793 34.2282 612.757 34.5144 612.818C34.8863 612.909 35.7252 614.698 35.6296 615.472C35.5397 615.786 35.2861 615.41 35.1734 615.236C35.0608 615.063 34.9771 614.861 34.8645 614.687L34.8936 614.659Z" fill="#620F0E"/>
<path d="M33.6024 628.732L33.6589 628.79L33.6857 628.933L33.6582 628.847L33.6024 628.732Z" fill="#620F0E"/>
<path d="M438.87 21.6897C437.709 20.3843 439.084 18.2491 441.121 18.3028C442.727 18.3798 443.968 20.1166 442.313 21.6745C440.951 22.7769 439.464 22.357 438.87 21.6897Z" fill="#620F0E"/>
<path d="M411.806 45.6045C409.938 43.4583 412.39 40.0451 415.514 40.399C417.978 40.6587 419.092 43.4269 416.885 45.5806C414.827 47.2483 412.683 46.6195 411.806 45.6045Z" fill="#620F0E"/>
<path d="M384.935 70.181C382.56 67.2826 385.831 62.5595 389.871 63.0394C392.793 63.4195 394.73 66.9725 391.65 70.091C388.895 72.4389 386.094 71.5438 384.964 70.1526L384.935 70.181Z" fill="#620F0E"/>
<path d="M358.17 95.4478C355.204 91.5953 359.324 85.534 364.424 86.1703C368.091 86.6169 370.445 91.2367 366.521 95.3492C363.04 98.4055 359.554 97.2151 358.17 95.4478Z" fill="#620F0E"/>
<path d="M331.888 121.152C328.473 116.49 333.269 109.146 339.227 109.965C343.925 110.596 345.95 116.331 341.53 121.098C337.497 124.75 333.468 123.352 331.888 121.152Z" fill="#620F0E"/>
<path d="M305.885 147.432C302.079 141.905 307.726 132.993 314.428 133.993C319.784 134.776 322.05 141.862 317.104 147.426C312.431 151.816 307.746 150.094 305.913 147.461L305.885 147.432Z" fill="#620F0E"/>
<path d="M280.365 174.091C276.14 167.669 282.493 157.331 289.91 158.484C295.896 159.446 298.377 167.683 292.818 174.129C287.591 179.229 282.365 177.186 280.337 174.062L280.365 174.091Z" fill="#620F0E"/>
<path d="M255.415 201.159C250.519 193.237 258.358 181.052 266.792 183.537C272.224 185.153 275.39 193.742 269.071 201.326C263.319 207.109 257.609 204.744 255.415 201.159Z" fill="#620F0E"/>
<path d="M231.092 228.521C225.808 219.504 234.354 205.836 243.414 208.73C249.273 210.61 252.684 220.321 245.866 228.788C239.616 235.34 233.453 232.567 231.063 228.55L231.092 228.521Z" fill="#620F0E"/>
<path d="M207.514 256.066C201.898 246.012 210.949 230.886 220.578 234.247C226.779 236.36 230.404 247.222 223.174 256.545C216.544 263.752 210.012 260.601 207.484 256.094L207.514 256.066Z" fill="#620F0E"/>
<path d="M184.765 283.706C178.932 272.673 188.314 256.318 198.369 259.999C204.853 262.403 208.696 274.3 201.14 284.451C194.244 292.2 187.429 288.702 184.765 283.706Z" fill="#620F0E"/>
<path d="M163.108 311.244C157.141 299.436 166.592 282.163 176.785 286.276C183.409 288.94 187.299 301.641 179.709 312.28C172.344 320.884 165.63 316.21 163.108 311.244Z" fill="#620F0E"/>
<path d="M143.215 337.743C137.589 326.226 145.279 309.821 154.971 312.666C161.976 314.731 166.571 328.446 159.12 339.402C152.217 347.782 145.707 342.853 143.215 337.743Z" fill="#620F0E"/>
<path d="M125.173 363.002C119.944 351.834 126.646 336.45 135.417 339.513C142.418 341.923 145.722 355.593 139.551 365.13C133.751 372.49 127.633 368.312 125.144 363.031L125.173 363.002Z" fill="#620F0E"/>
<path d="M108.692 387.363C103.915 376.831 109.538 362.84 117.333 365.948C123.5 368.434 126.644 381.184 121.402 389.814C116.415 396.438 110.984 392.383 108.721 387.392L108.692 387.363Z" fill="#620F0E"/>
<path d="M93.5691 410.907C89.4936 401.617 93.4883 389.385 99.9489 391.358C105.666 393.093 109.215 405.56 104.583 413.595C100.38 419.455 95.6069 415.551 93.5408 410.878L93.5691 410.907Z" fill="#620F0E"/>
<path d="M79.9213 433.58C76.2666 425.071 79.4114 414.292 84.9815 416.34C89.866 418.15 93.0846 429.466 89.3543 436.508C85.9355 441.545 81.7918 437.821 79.9496 433.609L79.9213 433.58Z" fill="#620F0E"/>
<path d="M67.6316 455.381C64.3971 447.709 66.7791 438.298 71.4305 440.392C75.54 442.221 78.4574 452.357 75.514 458.404C72.7638 462.732 69.2485 459.245 67.6316 455.381Z" fill="#620F0E"/>
<path d="M56.6717 476.393C53.9679 469.904 55.3831 462.117 59.0406 463.367C62.5549 464.586 65.5382 474.034 63.1777 479.342C61.0388 482.96 58.1221 479.797 56.7001 476.422L56.6717 476.393Z" fill="#620F0E"/>
<path d="M47.1004 496.447C44.8161 490.853 45.7568 484.322 48.64 485.534C51.4659 486.745 54.0919 494.898 52.3165 499.295C50.7024 502.23 48.2696 499.388 47.1004 496.447Z" fill="#620F0E"/>
<path d="M38.9174 515.6C37.1077 511.073 37.4288 505.941 39.5441 506.598C41.8308 507.314 44.325 514.518 43.017 518.233C41.869 520.6 39.9483 518.109 38.9174 515.6Z" fill="#620F0E"/>
<path d="M32.0971 533.709C30.6779 530.105 30.7837 526.146 32.2969 526.767C33.8958 527.418 35.9478 533.24 35.1108 535.984C34.3721 537.725 32.9049 535.699 32.0971 533.709Z" fill="#620F0E"/>
<path d="M26.6641 550.916C25.6338 548.35 25.387 545.075 26.5559 545.692C27.7248 546.309 29.3339 550.805 28.8496 552.865C28.3758 554.064 27.3903 552.532 26.832 551.262C26.8044 551.176 26.7201 551.031 26.6931 550.887L26.6641 550.916Z" fill="#620F0E"/>
<path d="M22.6505 566.963C21.9547 565.204 21.8051 563.366 22.347 563.631C23.0321 563.926 24.1991 567.039 23.9817 568.385C23.7728 569.042 23.2662 568.233 23.0416 567.828C22.873 567.539 22.7618 567.251 22.6505 566.963Z" fill="#620F0E"/>
<path d="M19.9984 582.023C19.6639 581.216 19.5037 580.238 19.7325 580.298C20.0471 580.388 20.6862 582.089 20.6204 582.777C20.5913 582.805 20.5885 583.035 20.3342 582.716C20.1932 582.513 20.1103 582.254 19.9984 582.023Z" fill="#620F0E"/>
<path d="M18.7387 595.896L18.7677 595.868L18.7945 596.011L18.738 595.953L18.7387 595.896Z" fill="#620F0E"/>
<path d="M416.154 2.12851C415.048 0.995928 416.335 -0.939506 418.199 -0.887985C419.863 -0.867612 420.504 0.718381 419.37 1.88094C419.312 1.93762 419.254 1.99429 419.225 2.02263C418.066 2.92663 416.777 2.7674 416.154 2.12851Z" fill="#620F0E"/>
<path d="M389.787 25.4217C388.117 23.5362 390.365 20.3788 393.202 20.6718C395.409 20.8996 396.44 23.3512 394.437 25.3065C392.727 26.6916 390.721 26.4375 389.816 25.3934L389.787 25.4217Z" fill="#620F0E"/>
<path d="M363.641 49.347C361.52 46.7673 364.528 42.4714 368.167 42.889C370.804 43.1508 372.603 46.2144 369.668 49.1912C367.174 51.3414 364.659 50.5646 363.641 49.347Z" fill="#620F0E"/>
<path d="M337.515 73.9907C334.888 70.6014 338.745 64.9099 343.33 65.4251C346.653 65.8101 348.754 69.9964 345.15 73.7972C341.959 76.6275 338.758 75.6127 337.515 73.9907Z" fill="#620F0E"/>
<path d="M311.813 99.1271C308.682 94.756 313.214 87.839 318.8 88.5673C323.184 89.1088 325.012 94.4682 320.796 98.9788C316.995 102.462 313.251 101.182 311.784 99.1554L311.813 99.1271Z" fill="#620F0E"/>
<path d="M286.565 124.67C283.184 119.636 288.45 111.38 294.523 112.2C299.45 112.892 301.467 119.2 296.754 124.479C292.428 128.587 288.172 127.072 286.565 124.67Z" fill="#620F0E"/>
<path d="M261.658 150.678C257.633 144.288 264.411 134.328 271.418 136.221C275.908 137.453 278.463 144.37 273.079 150.588C268.171 155.378 263.459 153.512 261.629 150.649L261.658 150.678Z" fill="#620F0E"/>
<path d="M237.404 177.008C233.075 169.667 240.502 158.338 248.107 160.612C252.995 162.078 255.71 170.03 249.828 177.074C244.453 182.489 239.344 180.274 237.404 177.008Z" fill="#620F0E"/>
<path d="M213.722 203.633C209.118 195.312 217.107 182.584 225.28 185.267C230.539 186.995 233.413 195.983 227.091 203.796C221.626 209.525 216.136 207.966 213.722 203.633Z" fill="#620F0E"/>
<path d="M190.87 230.354C186.077 221.142 194.481 207.328 202.994 210.359C208.479 212.32 211.457 222.227 204.839 230.783C198.79 237.366 193.029 234.483 190.87 230.354Z" fill="#620F0E"/>
<path d="M168.762 257.255C163.893 247.21 172.511 232.338 181.249 235.716C186.904 237.909 189.985 248.735 183.13 257.919C176.874 264.987 170.974 261.787 168.762 257.255Z" fill="#620F0E"/>
<path d="M147.748 283.942C142.858 273.237 151.455 257.704 160.189 261.484C165.84 263.906 168.914 275.363 162.083 284.921C156.202 291.793 150.29 289.568 147.719 283.97L147.748 283.942Z" fill="#620F0E"/>
<path d="M128.322 309.758C123.773 299.344 130.781 284.681 139.012 287.364C145.585 289.511 148.273 301.968 141.875 311.33C135.729 318.801 130.303 314.344 128.293 309.786L128.322 309.758Z" fill="#620F0E"/>
<path d="M110.515 334.617C106.222 324.35 112.447 310.338 120.044 313.243C125.528 315.318 128.966 327.44 122.971 336.692C117.725 343.342 112.55 339.491 110.515 334.617Z" fill="#620F0E"/>
<path d="M94.2678 358.521C90.3424 348.688 95.6368 335.755 102.4 338.793C107.736 341.183 110.174 353.034 105.314 360.951C100.792 367.008 96.1043 363.192 94.2387 358.549L94.2678 358.521Z" fill="#620F0E"/>
<path d="M79.4665 381.581C75.879 372.269 80.298 360.53 86.2572 363.616C90.9618 366.055 93.207 377.187 89.1318 384.282C85.278 389.687 81.1635 385.935 79.4665 381.581Z" fill="#620F0E"/>
<path d="M66.0242 403.827C63.0242 395.756 66.1038 385.607 70.9854 387.647C75.2387 389.449 77.7758 400.183 74.2813 406.711C71.0962 411.406 67.5533 407.834 66.0533 403.798L66.0242 403.827Z" fill="#620F0E"/>
<path d="M53.9694 425.17C51.2768 417.763 53.6808 408.897 57.7867 411.014C61.3508 412.865 63.6426 422.534 60.9053 428.153C58.3308 432.196 55.3305 428.831 54.0267 425.171L53.9694 425.17Z" fill="#620F0E"/>
<path d="M43.2463 445.67C41.0554 439.475 42.5224 432.147 45.6634 433.391C48.7471 434.633 51.1048 443.615 48.8349 448.551C46.8426 451.912 44.3836 448.869 43.218 445.641L43.2463 445.67Z" fill="#620F0E"/>
<path d="M33.8809 465.296C32.0251 459.85 32.9907 453.636 35.4999 454.929C37.9524 456.164 40.0656 464.023 38.3794 468.163C36.8821 470.928 34.8502 468.149 33.8519 465.325L33.8809 465.296Z" fill="#620F0E"/>
<path d="M25.8766 483.993C24.4091 479.642 24.8698 474.827 26.6401 475.538C28.5818 476.307 30.5639 483.161 29.3451 486.618C28.2856 488.785 26.6795 486.384 25.8766 483.993Z" fill="#620F0E"/>
<path d="M19.2033 501.73C18.0412 498.215 18.2306 494.458 19.5136 495.134C20.9106 495.868 22.5361 501.369 21.7288 504.027C21.0787 505.569 20.0096 503.834 19.4796 502.594C19.3676 502.363 19.2571 502.017 19.1458 501.729L19.2033 501.73Z" fill="#620F0E"/>
<path d="M13.9189 518.45C13.0601 515.943 13.0634 513.332 13.8058 513.628C14.7196 513.984 16.0723 518.333 15.6178 520.307C15.173 521.478 14.3349 519.632 14.2229 519.401C14.0833 519.083 13.972 518.795 13.8898 518.478L13.9189 518.45Z" fill="#620F0E"/>
<path d="M9.93892 534.183C9.38551 532.512 9.26278 530.818 9.74734 531.082C10.2886 531.404 11.1715 534.284 10.9846 535.487C10.8642 535.945 10.6099 535.626 10.3846 535.279C10.2443 535.019 10.1054 534.644 9.93892 534.183Z" fill="#620F0E"/>
<path d="M7.34873 548.9C7.12765 548.209 6.96605 547.346 7.16583 547.434C7.39393 547.552 7.83541 548.992 7.80004 549.537C7.771 549.565 7.76888 549.737 7.62789 549.535C7.48691 549.332 7.43234 549.102 7.34873 548.9Z" fill="#620F0E"/>
<path d="M368.757 6.42678C367.37 4.88904 369.354 2.21617 371.705 2.35973C373.454 2.46722 374.607 4.4038 372.719 6.24576C371.096 7.60318 369.409 7.1521 368.729 6.39775L368.757 6.42678Z" fill="#620F0E"/>
<path d="M343.278 29.7575C341.384 27.4676 344.128 23.5989 347.424 23.8975C349.775 24.0984 351.377 26.8439 348.733 29.48C346.443 31.4319 344.184 30.8016 343.279 29.7002L343.278 29.7575Z" fill="#620F0E"/>
<path d="M317.995 53.6376C315.622 50.5671 319.127 45.5026 323.34 45.9272C326.607 46.2541 327.936 50.1727 324.884 53.3777C321.984 55.9246 319.125 55.0862 318.052 53.6384L317.995 53.6376Z" fill="#620F0E"/>
<path d="M293.078 77.9515C290.257 73.9573 295.014 67.4448 299.936 68.538C303.112 69.2368 304.895 73.62 301.057 77.7049C297.604 80.8476 294.318 79.7457 293.049 77.9799L293.078 77.9515Z" fill="#620F0E"/>
<path d="M268.498 102.785C265.344 97.9837 270.833 90.1889 276.412 91.5484C280.016 92.4534 282.018 97.7001 277.683 102.554C273.706 106.321 269.935 104.955 268.498 102.785Z" fill="#620F0E"/>
<path d="M244.431 128.028C240.972 122.276 247.166 113.227 253.372 114.939C257.376 116.021 259.508 122.273 254.619 127.895C250.176 132.23 245.978 130.601 244.431 128.028Z" fill="#620F0E"/>
<path d="M220.818 153.62C217.14 147.004 223.981 136.643 230.729 138.62C235.532 140.056 236.99 147.534 231.922 153.612C227.012 158.574 222.474 156.596 220.818 153.62Z" fill="#620F0E"/>
<path d="M197.951 179.338C194.112 171.859 201.425 160.414 208.513 162.739C213.6 164.408 215.075 172.833 209.714 179.482C204.482 184.984 199.689 182.687 197.951 179.338Z" fill="#620F0E"/>
<path d="M175.77 205.234C171.853 196.98 179.495 184.534 186.808 187.206C192.092 189.136 193.557 198.422 187.959 205.641C182.521 211.572 177.532 208.957 175.77 205.234Z" fill="#620F0E"/>
<path d="M154.448 231.199C150.483 222.256 158.307 209.009 165.701 212.055C170.526 214.037 172.904 223.678 166.778 231.867C161.221 238.14 156.206 235.267 154.448 231.199Z" fill="#620F0E"/>
<path d="M134.017 257.089C130.116 247.63 137.86 233.837 145.193 237.169C149.959 239.322 152.358 249.566 146.229 258.042C140.407 264.857 135.633 261.068 133.989 257.06L134.017 257.089Z" fill="#620F0E"/>
<path d="M115.116 282.222C111.361 272.506 118.586 258.937 125.513 262.608C130.047 264.988 132.329 275.403 126.632 283.74C121.214 290.388 116.672 286.373 115.087 282.25L115.116 282.222Z" fill="#620F0E"/>
<path d="M97.688 306.484C94.3293 297.232 100.021 284.705 106.415 287.366C111.011 289.288 113.66 300.252 108.28 308.507C103.645 314.448 99.2979 310.922 97.688 306.484Z" fill="#620F0E"/>
<path d="M81.7642 329.847C78.6613 320.799 83.6251 309.095 89.3286 311.977C93.4352 314.036 95.917 324.597 91.2326 332.229C87.1196 337.717 83.2324 334.14 81.7642 329.847Z" fill="#620F0E"/>
<path d="M67.3154 352.281C64.5505 343.754 68.6686 333.159 73.6254 336.089C77.5281 338.403 79.1831 348.524 75.4896 354.906C72.0155 359.77 68.615 356.285 67.3154 352.281Z" fill="#620F0E"/>
<path d="M54.1952 373.985C51.8766 366.496 54.8303 357.264 58.9094 359.237C62.5038 360.945 64.3622 370.867 61.1616 376.825C58.2974 381.094 55.3545 377.729 54.1952 373.985Z" fill="#620F0E"/>
<path d="M42.3761 394.814C40.3091 387.874 42.5892 379.753 46.0357 381.832C49.0266 383.619 50.7241 392.621 48.1936 397.755C45.8819 401.428 43.3958 398.241 42.3471 394.843L42.3761 394.814Z" fill="#620F0E"/>
<path d="M31.8885 414.8C30.1814 408.926 31.6711 402.086 34.3525 403.382C36.7773 404.53 38.8849 412.849 36.6731 417.728C34.7679 421.005 32.7431 417.651 31.8885 414.8Z" fill="#620F0E"/>
<path d="M22.7594 433.913C21.3017 428.759 22.3474 423.033 24.455 424.322C26.5342 425.581 28.0792 432.974 26.541 436.743C25.1903 439.251 23.5013 436.591 22.7594 433.913Z" fill="#620F0E"/>
<path d="M14.9331 452.095C13.8071 447.978 14.3202 443.566 15.832 444.301C17.4578 445.096 18.9283 451.541 17.8285 454.656C16.9163 456.509 15.765 454.458 15.2938 453.104C15.1825 452.815 15.0727 452.412 14.9615 452.124L14.9331 452.095Z" fill="#620F0E"/>
<path d="M8.43871 469.318C7.5593 466.151 7.83024 462.769 8.85533 463.412C9.96613 464.086 11.1369 469.236 10.4486 471.552C9.82823 473.008 8.96447 470.903 8.76892 470.47C8.63004 470.095 8.52023 469.692 8.40969 469.346L8.43871 469.318Z" fill="#620F0E"/>
<path d="M3.245 485.667C2.64194 483.364 2.6707 481.011 3.29835 481.306C4.04005 481.659 5.05274 485.66 4.62932 487.434C4.36163 488.205 3.94005 487.483 3.71616 487.021C3.49297 486.502 3.29955 485.897 3.27332 485.696L3.245 485.667Z" fill="#620F0E"/>
<path d="M-0.587009 500.969C-0.971095 499.53 -1.01089 498.095 -0.66943 498.329C-0.271294 498.62 0.386312 501.154 0.201532 502.184C0.171789 502.27 0.110868 502.556 -0.142768 502.18C-0.339728 501.862 -0.476511 501.315 -0.587755 501.027L-0.587009 500.969Z" fill="#620F0E"/>
<path d="M324.049 11.3305C322.438 9.38834 324.802 6.11757 327.669 6.26745C329.934 6.43864 330.879 8.91785 328.759 11.0439C326.787 12.7414 324.813 12.2294 324.021 11.3015L324.049 11.3305Z" fill="#620F0E"/>
<path d="M299.636 34.4174C297.546 31.6947 301.075 27.0608 304.739 27.7369C307.345 28.1992 308.224 31.3663 305.579 34.1172C303.026 36.3814 300.568 35.6627 299.607 34.4458L299.636 34.4174Z" fill="#620F0E"/>
<path d="M275.618 57.9097C273.222 54.4659 277.395 48.7495 281.688 49.6629C284.407 50.2414 285.881 54.0183 282.538 57.5641C279.52 60.3391 276.69 59.4149 275.59 57.8807L275.618 57.9097Z" fill="#620F0E"/>
<path d="M251.825 81.9228C249.18 77.7012 254.085 70.8174 258.949 71.9673C262.067 72.7228 263.732 77.3342 259.834 81.6479C256.293 84.9903 253.007 83.8311 251.825 81.9228Z" fill="#620F0E"/>
<path d="M228.572 106.257C225.678 101.258 231.257 93.2056 236.606 94.6197C240.038 95.5225 241.778 101.024 237.413 106.021C233.464 109.875 229.866 108.454 228.544 106.228L228.572 106.257Z" fill="#620F0E"/>
<path d="M205.889 130.884C202.889 125.138 208.94 116.058 214.686 117.764C218.374 118.871 220.22 125.178 215.416 130.829C211.116 135.195 207.264 133.455 205.918 130.856L205.889 130.884Z" fill="#620F0E"/>
<path d="M183.721 155.749C180.588 149.168 187.111 139.004 193.168 141.087C197.083 142.426 198.975 149.594 193.848 155.901C189.226 160.751 185.148 158.721 183.721 155.749Z" fill="#620F0E"/>
<path d="M162.295 180.794C159.142 173.496 165.963 162.475 172.16 164.875C176.216 166.417 178.07 174.359 172.707 181.18C167.908 186.429 163.718 184.111 162.266 180.823L162.295 180.794Z" fill="#620F0E"/>
<path d="M141.761 205.764C138.672 197.951 145.557 186.357 151.751 189.044C155.775 190.786 157.508 199.243 152.17 206.38C147.34 211.83 143.181 209.311 141.79 205.736L141.761 205.764Z" fill="#620F0E"/>
<path d="M121.971 230.859C118.946 222.529 125.865 210.448 131.912 213.392C135.877 215.305 137.603 224.336 132.232 231.788C127.166 237.752 123.248 234.375 121.971 230.859Z" fill="#620F0E"/>
<path d="M103.626 255.168C100.804 246.64 107.233 234.754 112.904 237.951C116.637 240.091 118.274 249.264 113.25 256.548C108.764 262.06 104.899 259.029 103.627 255.111L103.626 255.168Z" fill="#620F0E"/>
<path d="M86.7242 278.69C84.1853 270.453 89.3121 259.497 94.5331 261.943C98.3281 263.682 100.189 273.375 95.4807 280.634C91.4286 285.835 87.9098 282.636 86.6952 278.718L86.7242 278.69Z" fill="#620F0E"/>
<path d="M71.2389 301.34C68.9273 293.278 73.4146 283.003 78.0596 285.614C81.4508 287.52 83.1717 296.953 79.073 303.617C75.5139 308.394 72.3401 305.141 71.2389 301.34Z" fill="#620F0E"/>
<path d="M57.141 323.204C55.0548 315.489 58.8429 306.066 62.9411 308.814C65.8726 310.772 67.427 319.744 63.9672 325.784C60.9018 330.079 58.1579 326.861 57.1984 323.205L57.141 323.204Z" fill="#620F0E"/>
<path d="M44.3443 344.252C42.6202 337.43 45.3898 329.172 48.7526 331.05C51.7167 332.693 53.0125 341.69 50.1065 347.02C47.5639 350.805 45.1919 347.677 44.3443 344.252Z" fill="#620F0E"/>
<path d="M32.8774 364.513C31.3757 358.268 33.5596 350.978 36.3479 352.906C38.7948 354.6 39.9574 362.763 37.6634 367.326C35.6151 370.572 33.6137 367.65 32.8774 364.513Z" fill="#620F0E"/>
<path d="M22.6825 383.87C21.4565 378.547 22.8797 372.452 25.0736 373.713C27.1819 374.944 28.4074 382.649 26.5505 386.672C25.0263 389.293 23.5074 386.807 22.876 384.475C22.8207 384.302 22.7378 384.043 22.7115 383.842L22.6825 383.87Z" fill="#620F0E"/>
<path d="M13.7908 402.413C12.7859 397.781 13.7664 392.686 15.473 393.912C16.9806 394.992 18.2776 401.55 16.7988 405.147C15.7117 407.228 14.5611 405.12 14.0927 403.536C14.0105 403.219 13.8723 402.787 13.8192 402.442L13.7908 402.413Z" fill="#620F0E"/>
<path d="M6.20122 420.024C5.44218 416.399 5.97734 412.532 7.11648 413.235C8.34134 413.967 9.33225 419.746 8.41022 422.404C7.52776 424.172 6.66963 421.608 6.55839 421.319C6.42021 420.887 6.31034 420.484 6.22954 420.053L6.20122 420.024Z" fill="#620F0E"/>
<path d="M-0.145429 436.817C-0.740763 433.883 -0.445668 430.874 0.37824 431.544C1.28786 432.244 2.06331 436.873 1.46423 438.932C1.05064 439.902 0.602155 439.036 0.351328 438.43C0.267719 438.228 0.0735745 437.681 -0.117064 436.846L-0.145429 436.817Z" fill="#620F0E"/>
<path d="M282.584 16.3618C280.89 14.1603 283.835 10.3228 286.812 10.8757C288.902 11.217 289.617 13.7507 287.409 16.0192C285.436 17.774 283.431 17.5199 282.584 16.3618Z" fill="#620F0E"/>
<path d="M259.351 39.0317C257.35 36.1092 260.997 31.1899 264.632 31.9517C266.921 32.4388 268.116 35.6385 265.266 38.7025C262.655 41.0807 260.253 40.3627 259.38 39.0608L259.351 39.0317Z" fill="#620F0E"/>
<path d="M236.515 62.1082C234.264 58.4653 238.584 52.4926 242.704 53.4612C245.623 54.1282 246.433 58.27 243.292 61.7321C240.417 64.4802 237.64 63.9584 236.487 62.0792L236.515 62.1082Z" fill="#620F0E"/>
<path d="M214.193 85.4786C211.836 81.1457 216.684 74.2039 221.203 75.407C224.12 76.1887 225.468 80.8822 221.685 85.2547C218.258 88.5986 215.231 87.4138 214.193 85.4786Z" fill="#620F0E"/>
<path d="M192.354 109.113C189.919 104.119 195.209 96.2932 200.011 97.7866C203.098 98.7426 204.495 104.183 200.36 109.067C196.67 112.839 193.475 111.365 192.354 109.113Z" fill="#620F0E"/>
<path d="M171.058 133.07C168.575 127.33 174.278 118.533 179.305 120.374C182.533 121.532 183.921 127.718 179.522 133.145C175.743 137.116 172.341 136.07 171.029 133.098L171.058 133.07Z" fill="#620F0E"/>
<path d="M150.448 157.092C148.029 150.778 153.999 141.268 159.081 143.338C162.393 144.699 163.716 151.515 159.139 157.399C155.009 161.939 151.561 159.917 150.448 157.092Z" fill="#620F0E"/>
<path d="M130.643 181.182C128.316 174.382 134.349 164.355 139.428 166.656C142.738 168.188 143.968 175.549 139.301 181.747C135.14 186.488 131.724 184.265 130.7 181.182L130.643 181.182Z" fill="#620F0E"/>
<path d="M111.669 205.195C109.461 197.995 115.413 187.652 120.287 190.265C123.48 191.969 124.619 199.701 120.008 206.072C115.932 210.9 112.661 208.478 111.64 205.223L111.669 205.195Z" fill="#620F0E"/>
<path d="M93.935 228.679C91.8453 221.25 97.4503 211.075 101.977 213.971C104.938 215.844 106.017 223.805 101.723 230.037C97.9068 234.724 94.869 232.076 93.906 228.707L93.935 228.679Z" fill="#620F0E"/>
<path d="M77.589 251.376C75.7833 244.181 80.2891 234.738 84.48 236.942C87.8159 238.675 88.4849 247.32 84.6836 253.127C81.2144 257.59 78.4656 254.773 77.589 251.376Z" fill="#620F0E"/>
<path d="M62.6006 273.315C60.9663 266.179 64.9493 257.247 68.6494 259.702C71.3251 261.457 72.4289 269.734 68.8869 275.458C65.8236 279.581 63.3624 276.71 62.5715 273.343L62.6006 273.315Z" fill="#620F0E"/>
<path d="M48.9136 294.438C47.5578 287.994 50.6115 279.969 53.7759 281.643C56.3418 282.994 57.6192 291.159 54.3655 296.772C51.7087 300.498 49.5918 297.632 48.9426 294.41L48.9136 294.438Z" fill="#620F0E"/>
<path d="M36.527 314.803C35.3675 308.734 37.8666 301.477 40.5132 303.259C42.8758 304.809 43.5815 312.795 41.058 317.355C38.8659 320.628 37.0926 317.823 36.4986 314.774L36.527 314.803Z" fill="#620F0E"/>
<path d="M25.443 334.294C24.4776 328.773 26.42 322.456 28.6076 324.233C30.5112 325.777 31.1693 332.958 29.1699 336.893C27.5013 339.599 26.0964 337.171 25.6074 334.927C25.5811 334.726 25.5265 334.496 25.5003 334.295L25.443 334.294Z" fill="#620F0E"/>
<path d="M15.5432 353.024C14.7401 348.308 16.067 343.045 17.7453 344.242C19.3669 345.38 20.059 352.132 18.4669 355.613C17.2062 357.807 16.1704 355.7 15.7593 354.117C15.6771 353.8 15.5963 353.368 15.5432 353.024Z" fill="#620F0E"/>
<path d="M6.91631 370.967C6.30458 367.028 7.13148 362.763 8.35634 363.495C9.72429 364.258 10.4234 370.436 9.18124 373.462C8.18192 375.401 7.35215 372.866 7.21468 372.376C7.10554 371.916 6.9964 371.455 6.9156 371.024L6.91631 370.967Z" fill="#620F0E"/>
<path d="M-0.437626 388.006C-0.887055 384.873 -0.357558 381.465 0.46635 382.135C1.40431 382.864 1.97435 387.863 1.17199 390.12C0.642241 391.204 0.193757 390.338 -0.0280294 389.704C-0.166207 389.272 -0.330597 388.638 -0.437626 388.006Z" fill="#620F0E"/>
<path d="M266.663 -0.419343C265.307 -2.15756 267.726 -5.25552 270.104 -4.91078C271.622 -4.69134 272.459 -2.72995 270.54 -0.744885C268.742 0.839931 267.199 0.304577 266.634 -0.448368L266.663 -0.419343Z" fill="#620F0E"/>
<path d="M244.476 21.2314C242.983 18.9463 245.959 14.9656 248.822 15.4598C250.855 15.8003 251.396 18.5041 249.215 20.859C247.096 22.8129 245.181 22.2443 244.505 21.203L244.476 21.2314Z" fill="#620F0E"/>
<path d="M222.629 43.2878C220.914 40.3688 224.475 35.4771 227.794 36.2064C230.112 36.7225 230.702 40.1156 228.113 42.9819C225.644 45.3907 223.416 44.6173 222.657 43.3168L222.629 43.2878Z" fill="#620F0E"/>
<path d="M201.236 65.6932C199.414 62.1416 203.502 56.3382 207.163 57.3012C209.766 57.993 210.347 62.0746 207.379 65.4814C204.504 68.2869 202.077 67.3103 201.236 65.6932Z" fill="#620F0E"/>
<path d="M180.329 88.3064C178.457 84.1803 182.985 77.6075 186.844 78.7738C189.359 79.5506 190.308 84.0672 186.844 88.1853C183.909 91.1622 181.306 90.4704 180.329 88.3064Z" fill="#620F0E"/>
<path d="M159.934 111.212C158.069 106.455 162.951 99.0827 166.95 100.566C169.578 101.517 170.548 106.693 166.791 111.267C163.622 114.585 160.878 113.748 159.904 111.24L159.934 111.212Z" fill="#620F0E"/>
<path d="M140.256 134.213C138.456 128.883 143.517 120.939 147.599 122.682C150.253 123.834 151.13 129.555 147.225 134.5C143.764 138.273 141.058 136.605 140.256 134.213Z" fill="#620F0E"/>
<path d="M121.207 157.279C119.5 151.462 124.653 143.031 128.674 145.061C131.269 146.384 132.082 152.62 128.145 157.823C124.624 161.825 121.978 159.928 121.178 157.307L121.207 157.279Z" fill="#620F0E"/>
<path d="M103.022 180.299C101.433 174.082 106.533 165.364 110.407 167.649C112.885 169.143 113.579 175.78 109.726 181.069C106.291 185.159 103.734 183.062 103.022 180.241L103.022 180.299Z" fill="#620F0E"/>
<path d="M85.9887 202.815C84.5749 196.428 89.3577 187.792 92.9133 190.332C95.2171 191.996 95.8227 198.775 92.1715 204.039C88.9666 208.016 86.6131 205.721 85.9604 202.786L85.9887 202.815Z" fill="#620F0E"/>
<path d="M70.2548 224.63C69.0393 218.446 72.9246 210.459 76.2003 212.422C78.536 213.827 79.2508 221.067 75.8015 226.247C72.8863 229.999 70.7927 227.563 70.2258 224.658L70.2548 224.63Z" fill="#620F0E"/>
<path d="M55.8519 245.658C54.8361 239.562 58.2278 232.058 61.0998 234.187C63.1471 235.704 63.7493 242.77 60.7349 247.583C58.1674 251.052 56.3331 248.533 55.8519 245.658Z" fill="#620F0E"/>
<path d="M42.6049 266.012C41.7557 260.378 44.4503 253.553 46.8993 255.075C48.8355 256.304 49.5793 263.515 46.8249 268.187C44.6059 271.316 43.0011 268.8 42.5765 265.983L42.6049 266.012Z" fill="#620F0E"/>
<path d="M30.6867 285.578C30.0047 280.348 32.232 274.206 34.2212 275.78C35.9831 277.178 36.2721 284.04 34.1587 287.916C32.4043 290.592 31.1694 288.339 30.7654 286.182C30.7392 285.98 30.713 285.779 30.6867 285.578Z" fill="#620F0E"/>
<path d="M19.9841 304.357C19.4658 299.817 21.0215 294.613 22.6155 295.666C24.1811 296.689 24.531 303.264 22.7958 306.715C21.4204 308.908 20.4979 306.917 20.201 305.392C20.1188 305.076 20.0663 304.673 20.0414 304.357L19.9841 304.357Z" fill="#620F0E"/>
<path d="M10.4673 322.375C10.0291 318.324 11.2605 313.834 12.4811 314.911C13.7025 315.93 13.9751 321.787 12.6195 324.697C11.6223 326.464 10.9556 324.677 10.7904 324.101C10.653 323.611 10.5453 323.036 10.4673 322.375Z" fill="#620F0E"/>
<path d="M2.16365 339.603C1.83108 336.299 2.62056 332.751 3.50255 333.364C4.46956 334.064 4.77897 339.262 3.74429 341.745C3.09837 342.943 2.65055 342.019 2.4578 341.357C2.31963 340.925 2.18427 340.263 2.13533 339.574L2.16365 339.603Z" fill="#620F0E"/>
<path d="M230.906 4.65252C229.808 2.94616 232.083 -0.0674889 234.231 0.274437C235.605 0.520811 236.242 2.39369 234.44 4.32277C232.815 5.79494 231.414 5.40476 230.935 4.62418L230.906 4.65252Z" fill="#620F0E"/>
<path d="M210.105 25.6894C208.842 23.4072 211.672 19.5682 214.219 20.0872C215.851 20.4228 216.566 22.9566 214.355 25.3972C212.409 27.2958 210.695 26.7009 210.105 25.6894Z" fill="#620F0E"/>
<path d="M189.7 47.0157C188.273 44.0428 191.977 39.1816 194.774 40.3636C196.515 41.1023 196.794 44.1185 194.466 46.7872C192.172 49.0259 190.258 48.2851 189.671 47.0441L189.7 47.0157Z" fill="#620F0E"/>
<path d="M169.782 68.5511C168.305 65.0037 172.447 59.4305 175.442 60.9305C177.096 61.7542 177.714 65.1763 174.919 68.4705C172.536 70.909 170.506 70.339 169.782 68.5511Z" fill="#620F0E"/>
<path d="M150.376 90.321C148.962 86.2579 153.4 79.9997 156.478 81.759C158.415 82.8731 158.538 86.949 155.741 90.358C152.863 93.393 150.901 91.963 150.348 90.292L150.376 90.321Z" fill="#620F0E"/>
<path d="M131.631 112.186C130.392 107.896 134.575 101.376 137.685 102.82C139.711 103.735 140.227 108.447 137.051 112.454C134.259 115.518 132.181 114.144 131.631 112.186Z" fill="#620F0E"/>
<path d="M113.456 134.172C112.31 129.395 116.612 122.475 119.662 124.148C121.657 125.263 122.082 130.404 118.816 134.668C115.964 137.904 113.975 136.33 113.428 134.143L113.456 134.172Z" fill="#620F0E"/>
<path d="M96.0562 156.196C95.0286 151.076 99.3348 143.869 102.238 145.798C104.145 147.056 104.451 152.54 101.269 156.948C98.4446 160.328 96.5155 158.526 96.0562 156.196Z" fill="#620F0E"/>
<path d="M79.8116 177.661C78.9299 172.342 82.9478 165.247 85.6476 167.374C87.3804 168.802 87.6268 174.457 84.5898 178.781C81.8218 182.219 80.1859 179.904 79.8407 177.633L79.8116 177.661Z" fill="#620F0E"/>
<path d="M64.7794 198.452C64.0677 193.307 67.3617 186.748 69.7802 188.413C71.5442 189.639 71.7864 195.639 68.9795 199.909C66.6181 202.95 65.0942 200.866 64.7511 198.423L64.7794 198.452Z" fill="#620F0E"/>
<path d="M50.9328 218.597C50.3642 213.483 53.2813 207.235 55.3818 209.097C56.9149 210.436 57.1004 216.377 54.6123 220.393C52.5703 223.122 51.3319 221.156 50.9832 219.172C50.9279 218.999 50.9307 218.77 50.9038 218.626L50.9328 218.597Z" fill="#620F0E"/>
<path d="M38.2415 238.068C37.8117 233.329 40.1474 227.705 41.939 229.018C43.3892 230.097 43.6306 236.154 41.3741 240C39.6799 242.447 38.6987 240.57 38.401 239.103C38.3188 238.787 38.2663 238.384 38.2415 238.068Z" fill="#620F0E"/>
<path d="M26.8222 256.752C26.5321 252.33 28.4017 247.274 29.8767 248.669C31.0392 249.802 31.2282 255.457 29.3216 258.849C27.7726 261.154 27.1143 258.678 27.0059 258.16C26.9244 257.786 26.8166 257.211 26.8222 256.752Z" fill="#620F0E"/>
<path d="M16.5306 274.731C16.3191 270.913 17.7199 266.654 18.8569 267.529C19.9933 268.461 19.9549 273.941 18.5136 276.822C17.4307 278.559 16.9056 276.917 16.7688 276.37C16.6321 275.823 16.554 275.162 16.5306 274.731Z" fill="#620F0E"/>
<path d="M7.42462 291.95C7.26489 288.591 8.34195 284.989 9.19139 285.918C10.0125 286.817 9.98254 291.609 8.89188 293.977C8.21763 295.145 7.82651 294.279 7.63306 293.674C7.52322 293.271 7.4452 292.61 7.39555 291.979L7.42462 291.95Z" fill="#620F0E"/>
<path d="M-0.552542 308.409C-0.637091 305.941 -0.0253444 302.849 0.656171 303.431C1.30865 304.042 1.31404 308.289 0.486156 310.287C0.0456315 311.114 -0.205191 310.508 -0.315031 310.105C-0.42487 309.702 -0.503566 309.099 -0.524176 308.438L-0.552542 308.409Z" fill="#620F0E"/>
<path d="M198.856 9.33962C197.931 7.57799 200.379 4.50906 202.179 5.13367C203.178 5.51892 203.645 7.21754 201.988 9.00494C200.565 10.3935 199.334 10.1776 198.828 9.3106L198.856 9.33962Z" fill="#620F0E"/>
<path d="M179.584 29.5036C178.579 27.2532 181.465 23.5297 183.52 24.4157C184.805 24.9766 184.92 27.2448 183.116 29.2886C181.258 31.1022 179.976 30.3692 179.584 29.5036Z" fill="#620F0E"/>
<path d="M160.713 49.9039C159.714 47.1945 162.952 42.844 165.147 43.99C166.516 44.6954 166.568 47.4219 164.56 49.7789C162.496 51.9056 161.131 50.9707 160.742 49.8756L160.713 49.9039Z" fill="#620F0E"/>
<path d="M142.298 70.539C141.334 67.2849 144.895 62.3358 147.173 63.7983C148.597 64.6766 148.557 67.8898 146.401 70.5606C144.25 72.8297 142.711 71.9501 142.327 70.5681L142.298 70.539Z" fill="#620F0E"/>
<path d="M124.54 91.2666C123.695 87.6122 127.405 82.2346 129.652 83.8976C131.074 84.948 130.885 88.6471 128.641 91.4603C126.401 93.9292 124.895 92.7917 124.512 91.2376L124.54 91.2666Z" fill="#620F0E"/>
<path d="M107.386 111.974C106.716 108.15 110.082 102.71 112.303 104.115C113.727 104.993 113.878 109.098 111.34 112.424C109.128 114.98 107.681 113.671 107.386 111.974Z" fill="#620F0E"/>
<path d="M90.8614 132.862C90.2808 128.723 93.7365 123.026 95.8114 124.63C97.1759 125.68 97.1798 130.041 94.6697 133.511C92.5732 136.01 91.1216 135.046 90.8324 132.89L90.8614 132.862Z" fill="#620F0E"/>
<path d="M75.3759 153.246C74.9121 148.936 78.1368 143.351 80.0085 145.153C81.1994 146.316 81.1439 150.849 78.8073 154.206C76.7675 156.763 75.5531 155.17 75.3759 153.246Z" fill="#620F0E"/>
<path d="M61.0741 173.042C60.7818 168.792 63.4575 163.516 65.1896 165.001C66.411 166.02 66.4384 170.812 64.1288 174.313C62.3213 176.644 61.3357 175.111 61.1259 173.502C61.0989 173.358 61.1011 173.186 61.0741 173.042Z" fill="#620F0E"/>
<path d="M47.8699 192.161C47.6626 187.998 50.0763 183.035 51.4917 184.602C52.5686 185.705 52.3948 190.524 50.4336 193.684C48.9158 195.789 48.1308 194.288 47.945 193.051C47.9195 192.793 47.8663 192.448 47.8408 192.189L47.8699 192.161Z" fill="#620F0E"/>
<path d="M35.8511 210.637C35.7544 206.82 37.6453 202.367 38.8652 203.501C39.9435 204.489 39.6246 209.449 37.9835 212.241C36.5231 214.347 36.0057 212.074 35.9802 211.815C35.8987 211.441 35.8753 211.01 35.8511 210.637Z" fill="#620F0E"/>
<path d="M24.9591 228.408C24.9425 225.079 26.3376 221.28 27.3322 222.067C28.2702 222.796 28.0391 227.614 26.6311 230.122C25.6076 231.687 25.1945 230.276 25.1144 229.787C25.0329 229.413 25.0102 228.925 24.9881 228.38L24.9591 228.408Z" fill="#620F0E"/>
<path d="M15.1664 245.505C15.2036 242.464 16.3346 239.149 17.0707 239.962C17.7217 240.687 17.6124 244.932 16.4084 247.184C15.7348 248.295 15.3997 247.545 15.2913 247.027C15.2098 246.653 15.1594 246.079 15.1664 245.505Z" fill="#620F0E"/>
<path d="M6.47301 261.868C6.53155 259.43 7.28151 256.771 7.84968 257.237C8.41714 257.76 8.22623 261.631 7.37141 263.486C7.28289 263.686 6.90255 264.284 6.65313 263.563C6.54259 263.218 6.49294 262.586 6.50137 261.897L6.47301 261.868Z" fill="#620F0E"/>
<path d="M-1.15014 277.528C-1.09721 275.549 -0.556253 273.547 -0.245941 273.981C0.0934115 274.387 -0.00122973 277.427 -0.650658 278.911C-0.738481 279.054 -0.915517 279.453 -1.08203 278.992C-1.19328 278.704 -1.216 278.216 -1.20757 277.527L-1.15014 277.528Z" fill="#620F0E"/>
<path d="M170.919 13.1868C170.335 11.6589 172.348 9.01504 173.689 9.63403C174.43 9.98743 174.67 11.5111 173.303 13.0151C171.996 14.2903 171.141 13.8208 170.89 13.2151L170.919 13.1868Z" fill="#620F0E"/>
<path d="M153.151 32.3941C152.544 30.4355 154.936 27.2511 156.418 28.0727C157.359 28.572 157.306 30.5512 155.85 32.3123C154.426 33.7583 153.428 33.2583 153.151 32.3941Z" fill="#620F0E"/>
<path d="M135.841 51.7796C135.325 49.4491 137.981 45.7802 139.489 46.8029C140.343 47.3872 140.487 49.6845 138.71 51.8148C137.14 53.5171 136.058 52.8153 135.841 51.7796Z" fill="#620F0E"/>
<path d="M119.076 71.259C118.622 68.4701 121.427 64.43 122.96 65.7113C123.926 66.5265 123.692 69.2495 121.972 71.4379C120.314 73.2826 119.263 72.4377 119.076 71.259Z" fill="#620F0E"/>
<path d="M102.911 90.8302C102.574 87.928 105.178 83.7994 106.715 84.8511C107.796 85.6104 107.498 88.8491 105.719 91.2089C104.06 93.1111 103.096 92.1237 102.911 90.8302Z" fill="#620F0E"/>
<path d="M87.3196 110.466C87.1003 107.279 89.7648 102.921 91.2129 104.173C92.1211 104.987 91.9649 108.371 90.01 111.016C88.3498 113.033 87.4168 111.902 87.3196 110.466Z" fill="#620F0E"/>
<path d="M72.7082 129.713C72.5754 126.498 74.8928 122.365 76.2289 123.386C77.1669 124.115 76.9774 127.871 75.1083 130.546C73.5933 132.421 72.8897 131.293 72.7614 130.058C72.7628 129.943 72.7359 129.799 72.7082 129.713Z" fill="#620F0E"/>
<path d="M59.2251 148.314C59.207 145.1 61.2928 141.138 62.398 142.27C63.2765 143.17 62.8278 147.01 61.2491 149.401C59.9657 151.107 59.4059 149.952 59.2741 149.004C59.2478 148.802 59.2223 148.544 59.2534 148.343L59.2251 148.314Z" fill="#620F0E"/>
<path d="M46.7513 166.381C46.8176 163.312 48.5265 159.66 49.4914 160.533C50.3429 161.289 49.8921 165.301 48.4289 167.636C47.1448 169.399 46.823 167.558 46.7967 167.357C46.7429 167.07 46.7471 166.725 46.7513 166.381Z" fill="#620F0E"/>
<path d="M35.3475 183.802C35.44 180.934 36.9152 177.623 37.6789 178.522C38.3293 179.305 37.9103 183.059 36.6503 185.195C35.7444 186.533 35.4432 185.353 35.3617 184.979C35.3355 184.777 35.2831 184.375 35.3184 183.83L35.3475 183.802Z" fill="#620F0E"/>
<path d="M24.9835 200.662C25.1582 198.11 26.2842 195.197 26.8793 195.807C27.4744 196.417 27.0845 200.142 25.9704 202.08C25.3273 203.047 25.0765 202.442 24.9964 201.953C24.8872 201.493 24.924 200.833 24.9551 200.633L24.9835 200.662Z" fill="#620F0E"/>
<path d="M15.7484 216.761C15.8906 214.525 16.8098 212.097 17.2328 212.705C17.6557 213.312 17.2721 216.521 16.4491 218.118C16.3323 218.289 15.981 218.858 15.8166 218.225C15.7344 217.908 15.7116 217.42 15.7484 216.761Z" fill="#620F0E"/>
<path d="M7.49616 232.241C7.66104 230.493 8.22897 228.634 8.51095 229.04C8.82196 229.416 8.55942 232.11 7.9121 233.422C7.82428 233.565 7.61889 233.935 7.50905 233.532C7.45448 233.302 7.43176 232.814 7.49616 232.241Z" fill="#620F0E"/>
<path d="M0.284783 247.044C0.385955 245.812 0.774725 244.525 0.944753 244.699C1.14312 244.903 0.915233 247.109 0.531385 247.994C0.473304 248.051 0.384119 248.308 0.329551 248.078C0.27428 247.905 0.250129 247.531 0.31383 247.016L0.284783 247.044Z" fill="#620F0E"/>
<path d="M147.067 16.1071C146.739 14.7832 148.342 12.7082 149.254 13.2359C149.767 13.5291 149.809 14.7921 148.76 16.0418C147.802 16.9769 147.174 16.6823 147.067 16.1071Z" fill="#620F0E"/>
<path d="M130.95 34.16C130.683 32.5499 132.492 30.1044 133.459 30.8049C134.056 31.2426 133.863 32.9044 132.786 34.1825C131.71 35.3457 131.085 34.879 130.95 34.16Z" fill="#620F0E"/>
<path d="M115.232 52.3887C115.027 50.435 117.041 47.6191 117.977 48.52C118.487 49.0427 118.378 50.9064 117.096 52.4976C115.932 53.8032 115.28 53.1927 115.204 52.3597L115.232 52.3887Z" fill="#620F0E"/>
<path d="M100.088 70.6822C99.999 68.6152 101.9 65.683 102.837 66.4692C103.49 67.0224 103.146 69.3424 101.864 70.9909C100.699 72.3539 100.106 71.6293 100.088 70.6822Z" fill="#620F0E"/>
<path d="M85.5749 88.9831C85.5739 86.7163 87.4473 83.6977 88.3257 84.598C88.9208 85.2078 88.5166 87.7566 87.2622 89.4342C86.1552 90.7979 85.6479 90.0457 85.6011 89.1843C85.6018 89.1269 85.5742 89.0405 85.6039 88.9548L85.5749 88.9831Z" fill="#620F0E"/>
<path d="M71.8386 107.035C71.924 104.74 73.5665 101.834 74.3607 102.589C74.8991 103.141 74.6082 105.806 73.3227 107.684C72.3028 108.963 71.9393 108.184 71.862 107.465C71.8351 107.322 71.8372 107.149 71.8676 107.006L71.8386 107.035Z" fill="#620F0E"/>
<path d="M59.0859 124.525C59.2585 122.146 60.8145 119.267 61.4642 120.107C61.9722 120.802 61.5071 123.637 60.3377 125.402C59.2881 126.766 59.1037 125.415 59.1058 125.243C59.0803 124.984 59.0831 124.755 59.1143 124.554L59.0859 124.525Z" fill="#620F0E"/>
<path d="M47.4297 141.398C47.6569 139.248 48.8935 136.681 49.4312 137.29C49.9413 137.813 49.4181 140.705 48.3939 142.328C47.6063 143.38 47.4448 142.517 47.4192 142.258C47.3654 141.971 47.3979 141.655 47.4297 141.398Z" fill="#620F0E"/>
<path d="M36.7571 157.766C36.9821 155.789 37.9856 153.506 38.439 153.97C38.8924 154.435 38.3983 157.298 37.4903 158.808C37.0229 159.491 36.8252 159.23 36.772 158.885C36.7451 158.742 36.692 158.397 36.7861 157.738L36.7571 157.766Z" fill="#620F0E"/>
<path d="M27.0376 173.485C27.2585 171.853 28.0297 169.796 28.3676 170.317C28.6205 170.75 28.3041 173.157 27.513 174.496C27.2786 174.894 27.0774 174.921 26.9952 174.604C26.9406 174.374 26.9456 173.972 27.0086 173.514L27.0376 173.485Z" fill="#620F0E"/>
<path d="M18.331 188.615C18.52 187.24 19.0836 185.727 19.3096 186.016C19.5356 186.306 19.164 188.54 18.6356 189.509C18.5485 189.594 18.3722 189.936 18.29 189.619C18.2071 189.36 18.2998 188.816 18.3316 188.558L18.331 188.615Z" fill="#620F0E"/>
<path d="M10.5487 203.124C10.7038 202.179 11.0911 201.008 11.2031 201.238C11.315 201.469 11.0361 203.159 10.6827 203.901C10.6246 203.957 10.5361 204.157 10.4808 203.984C10.4539 203.84 10.4864 203.525 10.5487 203.124Z" fill="#620F0E"/>
<path d="M4.02122 216.014L4.10273 216.388L3.83152 217.447L3.77907 217.044L4.02122 216.014Z" fill="#620F0E"/>
<path d="M142.604 1.01837C142.469 0.356767 143.315 -0.751938 143.713 -0.460128C143.94 -0.285183 143.932 0.345963 143.379 0.999141C142.885 1.48089 142.63 1.27693 142.575 1.04672L142.604 1.01837Z" fill="#620F0E"/>
<path d="M127.564 17.7922C127.49 16.8444 128.598 15.3659 129.053 15.7731C129.336 16.0635 129.209 17.0376 128.54 17.8041C127.871 18.5133 127.589 18.1655 127.564 17.7922Z" fill="#620F0E"/>
<path d="M113.068 34.6576C113.024 33.5667 114.162 31.9452 114.646 32.3241C114.958 32.5862 114.858 33.704 114.071 34.6986C113.432 35.3795 113.09 35.2031 113.039 34.6286L113.068 34.6576Z" fill="#620F0E"/>
<path d="M98.9727 51.6446C99.0179 50.2966 100.245 48.4752 100.755 48.9979C101.067 49.3174 100.877 50.7498 100.003 51.8868C99.3043 52.6817 99.0223 52.2765 98.9706 51.8168C98.9706 51.8168 98.972 51.702 98.9437 51.673L98.9727 51.6446Z" fill="#620F0E"/>
<path d="M85.45 68.637C85.554 67.1749 86.7828 65.2388 87.2348 65.8182C87.5451 66.2524 87.1811 67.8547 86.3645 68.9351C85.6945 69.759 85.4706 69.2972 85.4181 68.8948C85.4188 68.8374 85.3919 68.6936 85.4216 68.6079L85.45 68.637Z" fill="#620F0E"/>
<path d="M72.7067 85.3824C72.8971 83.8926 73.9821 81.9835 74.3484 82.5331C74.6594 82.9099 74.3224 84.6561 73.4761 85.8222C72.8641 86.5894 72.7266 86.1 72.6713 85.9271C72.6451 85.7259 72.6472 85.5538 72.6493 85.3817L72.7067 85.3824Z" fill="#620F0E"/>
<path d="M60.9157 101.593C61.1337 100.189 62.0735 98.4219 62.3845 98.7988C62.6679 99.0892 62.3295 100.95 61.5115 102.145C61.0737 102.742 60.9051 102.453 60.8789 102.252C60.8527 102.051 60.8555 101.822 60.9157 101.593Z" fill="#620F0E"/>
<path d="M50.0217 117.27C50.239 115.924 51.0039 114.384 51.2873 114.674C51.5707 114.965 51.1459 116.853 50.5021 117.878C50.1522 118.333 50.0388 118.217 49.9842 117.987C49.9573 117.843 49.9608 117.556 50.0217 117.27Z" fill="#620F0E"/>
<path d="M40.0791 132.47C40.2943 131.297 40.9133 129.955 41.111 130.216C41.2796 130.505 40.9142 132.222 40.3583 133.105C40.2711 133.19 40.0948 133.532 40.0126 133.216C39.9849 133.129 39.9587 132.928 40.0791 132.47Z" fill="#620F0E"/>
<path d="M31.0053 147.108C31.2178 146.164 31.632 145.136 31.7737 145.281C31.9154 145.426 31.6102 146.915 31.1414 147.712C31.0833 147.769 30.9658 147.997 30.9395 147.796C30.9126 147.652 30.9445 147.394 31.0053 147.108Z" fill="#620F0E"/>
<path d="M22.8855 161.155C23.0363 160.554 23.304 159.783 23.389 159.87C23.5023 159.986 23.2304 161.102 22.9662 161.586C22.9372 161.614 22.8494 161.757 22.8501 161.699C22.7948 161.527 22.8543 161.355 22.9138 161.184L22.8855 161.155Z" fill="#620F0E"/>
<path d="M15.8398 174.152L15.8377 174.324L15.6876 174.867L15.6614 174.666L15.8398 174.152Z" fill="#620F0E"/>
<path d="M126.063 2.07742L126.379 2.0526L126.112 2.70927L125.796 2.73409L126.063 2.07742Z" fill="#620F0E"/>
<path d="M112.467 18.1816C112.502 17.6942 112.998 16.9829 113.197 17.1288C113.311 17.245 113.189 17.8174 112.897 18.2155C112.578 18.5272 112.493 18.3827 112.495 18.2106L112.467 18.1816Z" fill="#620F0E"/>
<path d="M99.5072 33.7754C99.6013 33.1166 100.186 32.2056 100.355 32.4946C100.497 32.6398 100.316 33.3263 99.9075 33.8951C99.5873 34.2642 99.5037 34.0623 99.4768 33.9185L99.4782 33.8038L99.5072 33.7754Z" fill="#620F0E"/>
<path d="M87.0926 49.3471C87.1868 48.6883 87.8016 47.6916 87.9709 47.9232C88.1126 48.0684 87.8718 48.9836 87.4348 49.5235C87.0856 49.9209 87.0601 49.6623 87.0608 49.605C87.0331 49.5185 87.0629 49.4328 87.0926 49.3471Z" fill="#620F0E"/>
<path d="M75.3408 64.726C75.493 64.0105 76.0504 63.0131 76.2191 63.3021C76.331 63.533 76.0619 64.4192 75.6532 64.9881C75.3912 65.3005 75.3068 65.156 75.3083 65.0412C75.3097 64.9265 75.311 64.8117 75.3408 64.726Z" fill="#620F0E"/>
<path d="M64.484 79.6281C64.6362 78.9126 65.1341 78.0866 65.2177 78.2885C65.3013 78.4904 65.0605 79.4056 64.6809 79.9461C64.506 80.1735 64.4493 80.1154 64.4217 80.029C64.3947 79.8852 64.4245 79.7995 64.4549 79.6564L64.484 79.6281Z" fill="#620F0E"/>
<path d="M54.4948 94.083C54.6449 93.5397 54.9983 92.798 55.0826 92.9425C55.1676 93.0296 54.9275 93.8874 54.606 94.3713C54.4898 94.4846 54.4317 94.5413 54.4331 94.4266C54.4062 94.2828 54.436 94.197 54.4664 94.054L54.4948 94.083Z" fill="#620F0E"/>
<path d="M45.6379 107.258L45.6642 107.46L45.3667 108.317L45.2832 108.115L45.6379 107.258Z" fill="#620F0E"/>
<path d="M37.1199 121.129L37.1475 121.215L36.9705 121.615L36.9719 121.5L37.1199 121.129Z" fill="#620F0E"/>
<path d="M90.5299 31.1402L90.5588 31.1119L90.5291 31.1974L90.5299 31.1402Z" fill="#620F0E"/>
<path d="M79.8856 45.0982L79.9145 45.0699L79.8559 45.1836L79.8277 45.1547L79.8856 45.0982Z" fill="#620F0E"/>
<path d="M69.9347 58.663L69.9919 58.6637L69.9333 58.7774L69.934 58.7202L69.9347 58.663Z" fill="#620F0E"/>
</g>
</g>
</g>
<defs>
<clipPath id="clip0_301_630">
<rect width="521" height="767" fill="white" transform="matrix(-1 0 0 -1 521 767)"/>
</clipPath>
</defs>
</svg>
